<svg xmlns="http://www.w3.org/2000/svg" xmlns:xlink="http://www.w3.org/1999/xlink" width="1922" height="740" viewBox="0 0 1922 740">
  <defs>
    <clipPath id="clip-path">
      <rect id="Rectangle_1296" data-name="Rectangle 1296" width="1922" height="740" fill="#fff"/>
    </clipPath>
    <radialGradient id="radial-gradient" cx="0.367" cy="0.2" r="0.534" gradientTransform="matrix(0.694, 0.59, -0.435, 0.694, 0.2, -0.155)" gradientUnits="objectBoundingBox">
      <stop offset="0" stop-color="#dac265"/>
      <stop offset="1" stop-color="#4aa49d"/>
    </radialGradient>
    <linearGradient id="linear-gradient" x1="1.127" y1="0.75" x2="0.5" y2="1" gradientUnits="objectBoundingBox">
      <stop offset="0" stop-color="#f7fcfb"/>
      <stop offset="1" stop-color="#30817b"/>
    </linearGradient>
    <linearGradient id="linear-gradient-2" x1="1.005" y1="0.654" x2="0.5" y2="1" gradientUnits="objectBoundingBox">
      <stop offset="0" stop-color="#a2c9c3"/>
      <stop offset="1" stop-color="#32817b"/>
    </linearGradient>
    <linearGradient id="linear-gradient-3" x1="0.933" y1="0.518" x2="0.276" y2="0.915" gradientUnits="objectBoundingBox">
      <stop offset="0" stop-color="#a2c9c3"/>
      <stop offset="1" stop-color="#358680"/>
    </linearGradient>
    <linearGradient id="linear-gradient-4" x1="1.2" y1="0.767" x2="0.211" y2="1.009" gradientUnits="objectBoundingBox">
      <stop offset="0" stop-color="#fafafa"/>
      <stop offset="1" stop-color="#2c837c"/>
    </linearGradient>
    <linearGradient id="linear-gradient-5" x1="1.146" y1="0.478" x2="0.319" y2="1.013" gradientUnits="objectBoundingBox">
      <stop offset="0" stop-color="#e2e2e2"/>
      <stop offset="1" stop-color="#287670"/>
    </linearGradient>
    <linearGradient id="linear-gradient-6" x1="1.051" y1="0.596" x2="0.5" y2="1" gradientUnits="objectBoundingBox">
      <stop offset="0" stop-color="#c7e6e2"/>
      <stop offset="1" stop-color="#2f8079"/>
    </linearGradient>
    <linearGradient id="linear-gradient-7" x1="1.158" y1="0.527" x2="0.278" y2="1.062" gradientUnits="objectBoundingBox">
      <stop offset="0" stop-color="#fafafa"/>
      <stop offset="1" stop-color="#4a8d70"/>
    </linearGradient>
  </defs>
  <g id="Mask_Group_63" data-name="Mask Group 63" clip-path="url(#clip-path)">
    <g id="Group_5795" data-name="Group 5795">
      <path id="Path_7332" data-name="Path 7332" d="M1459.514,1749.207,963.42,1806.357c-367.5,42.336-728.056-236.652-719.733-556.893l11.306-434.257C265.268,420.36,807.4,266.7,1176.7,553.969l484.8,377.093C2029.583,1217.374,1911.116,1697.192,1459.514,1749.207Z" transform="translate(2941.646 -618.044) rotate(110)" fill="url(#radial-gradient)"/>
      <path id="Path_7676" data-name="Path 7676" d="M2339.577,273.7c10.728-6.09,115.458-64.1,115.458-64.1a60.993,60.993,0,0,1,45.833-5.89,38.832,38.832,0,0,0,31.949-5.8l6.016-4.147a12.394,12.394,0,0,0-.815-20.925l-54.1-31.376a13.808,13.808,0,0,1-.608-23.515h0a38.771,38.771,0,0,1,38.915-1.98l32.537,16.759a50.137,50.137,0,0,0,48.384-1.359l69.666-40.989" transform="translate(-1492.909 255.146)" fill="none" stroke="#a2c9c3" stroke-width="2"/>
      <path id="Path_7677" data-name="Path 7677" d="M2710.607,8.348,2722.491.158a24.484,24.484,0,0,0-1.611-41.338l-106.864-61.981a27.278,27.278,0,0,1-1.2-46.453h0a76.594,76.594,0,0,1,76.876-3.911l64.275,33.108a99.047,99.047,0,0,0,95.581-2.686S3158.064-301.722,3239.9-349.869" transform="translate(-1530.839 336.942)" fill="none" stroke="#a2c9c3" stroke-width="2"/>
      <path id="Path_7681" data-name="Path 7681" d="M2458.408,408.709l225.357-135.173a23.323,23.323,0,0,1,24.726.718h0a23.322,23.322,0,0,1,.339,38.58l-2.282,1.58a30.863,30.863,0,0,0,1.709,51.853l5.93,3.552a15.856,15.856,0,0,1-.08,27.254S2870.01,476.916,2870.42,477" transform="translate(-1524.201 218.896)" fill="none" stroke="#a2c9c3" stroke-width="2"/>
      <line id="Line_145" data-name="Line 145" x1="9" y2="5" transform="translate(1151.5 629.5)" fill="none" stroke="#4aa49d" stroke-linecap="round" stroke-width="7"/>
      <ellipse id="Ellipse_431" data-name="Ellipse 431" cx="26.293" cy="15.468" rx="26.293" ry="15.468" transform="translate(959.633 449.72) rotate(-1.388)" fill="url(#linear-gradient)"/>
      <ellipse id="Ellipse_431-2" data-name="Ellipse 431" cx="26.293" cy="15.468" rx="26.293" ry="15.468" transform="translate(959.633 443.72) rotate(-1.388)" fill="#a2c9c3" stroke="#4aa49d" stroke-miterlimit="10" stroke-width="2"/>
      <ellipse id="Ellipse_431-3" data-name="Ellipse 431" cx="34.545" cy="20.323" rx="34.545" ry="20.323" transform="translate(1013.751 365.939) rotate(-1.388)" stroke="#4aa49d" stroke-miterlimit="10" stroke-width="2" fill="url(#linear-gradient-2)"/>
      <ellipse id="Ellipse_431-4" data-name="Ellipse 431" cx="34.545" cy="20.323" rx="34.545" ry="20.323" transform="translate(1013.751 358.939) rotate(-1.388)" fill="#a2c9c3" stroke="#4aa49d" stroke-miterlimit="10" stroke-width="2"/>
      <ellipse id="Ellipse_431-5" data-name="Ellipse 431" cx="50.04" cy="29.439" rx="50.04" ry="29.439" transform="translate(1113.178 323.867) rotate(-1.388)" fill="url(#linear-gradient-3)"/>
      <ellipse id="Ellipse_431-6" data-name="Ellipse 431" cx="50.04" cy="29.439" rx="50.04" ry="29.439" transform="translate(1113.178 316.867) rotate(-1.388)" fill="#a2c9c3" stroke="#4aa49d" stroke-miterlimit="10" stroke-width="2"/>
      <ellipse id="Ellipse_431-7" data-name="Ellipse 431" cx="61.473" cy="36.165" rx="61.473" ry="36.165" transform="translate(1135.366 170.599) rotate(-1.388)" fill="url(#linear-gradient-4)"/>
      <ellipse id="Ellipse_431-8" data-name="Ellipse 431" cx="61.473" cy="36.165" rx="61.473" ry="36.165" transform="translate(1135.366 164.599) rotate(-1.388)" fill="#a2c9c3" stroke="#4aa49d" stroke-miterlimit="10" stroke-width="2"/>
      <path id="Path_7958" data-name="Path 7958" d="M-5516.519-13363.145s-1.348-5.218,4.627-6.125,7.192,1.647,7.192,1.647,3.9-3.5,9.7,1.627c.079.029,5.327.46,5.013,4.644.033-.052,4.934-.339,5.5,5.281.244-.058,6.363,4.493-1.535,7.714-.08.348,2.7,5.664-6.842,5.1.119-.1-.767,6.673-9.57,3.546.193-.025-5.71,5.338-11.078-.89-.129-.245-4.715,1.646-6.452-4.419-.2-.178-4.578.115-5.082-4.05.261.25-5.792-2.563-.94-7.774.225-.2-2.934-4.108,2.36-6.3S-5516.519-13363.145-5516.519-13363.145Z" transform="translate(6554 13732)" fill="#fff"/>
      <ellipse id="Ellipse_431-9" data-name="Ellipse 431" cx="45.45" cy="26.738" rx="45.45" ry="26.738" transform="translate(1112.072 471.473) rotate(-1.388)" stroke="#4aa49d" stroke-miterlimit="10" stroke-width="2" fill="url(#linear-gradient-5)"/>
      <ellipse id="Ellipse_431-10" data-name="Ellipse 431" cx="45.45" cy="26.738" rx="45.45" ry="26.738" transform="translate(1112.072 463.473) rotate(-1.388)" fill="#a2c9c3" stroke="#4aa49d" stroke-miterlimit="10" stroke-width="1"/>
      <ellipse id="Ellipse_431-11" data-name="Ellipse 431" cx="36.078" cy="21.225" rx="36.078" ry="21.225" transform="translate(1161.115 579.805) rotate(-1.388)" stroke="#4aa49d" stroke-miterlimit="10" stroke-width="2" fill="url(#linear-gradient-6)"/>
      <ellipse id="Ellipse_431-12" data-name="Ellipse 431" cx="36.078" cy="21.225" rx="36.078" ry="21.225" transform="translate(1161.115 572.805) rotate(-1.388)" fill="#a2c9c3" stroke="#4aa49d" stroke-miterlimit="10" stroke-width="1"/>
      <ellipse id="Ellipse_431-13" data-name="Ellipse 431" cx="105.119" cy="61.841" rx="105.119" ry="61.841" transform="translate(1283.374 120.802) rotate(-1.388)" fill="url(#linear-gradient-7)"/>
      <ellipse id="Ellipse_431-14" data-name="Ellipse 431" cx="105.119" cy="61.841" rx="105.119" ry="61.841" transform="translate(1283.374 113.802) rotate(-1.388)" fill="#a2c9c3" stroke="#4aa49d" stroke-miterlimit="10" stroke-width="2"/>
      <path id="Path_7956" data-name="Path 7956" d="M-5238.155-13561.041l26.785-11.6,5.688,4.382s4.437,4.405-.69,8.962a16.8,16.8,0,0,1-10.609,4.427,22.841,22.841,0,0,1-13.507-1.394C-5237.1-13559.325-5238.155-13561.041-5238.155-13561.041Z" transform="translate(6619 13704)" fill="#fff"/>
      <path id="Path_7957" data-name="Path 7957" d="M-5238.155-13561.142l26.552-11.5,5.638,4.344s4.4,4.367-.684,8.884a16.656,16.656,0,0,1-10.517,4.389,22.647,22.647,0,0,1-13.39-1.381C-5237.11-13559.44-5238.155-13561.142-5238.155-13561.142Z" transform="translate(6636.297 13757.158)" fill="#fff"/>
      <path id="Path_7654" data-name="Path 7654" d="M733.691,58.557c-4.351-.706-7.4,1.775-7.4,6.783V70.8l24.785,14.88V80.221c0-5.008-3.049-11.149-7.4-15.669" transform="matrix(-0.588, 0.809, -0.809, -0.588, 1892.092, -414.425)" fill="none" stroke="#4aa49d" stroke-linecap="round" stroke-width="1"/>
      <ellipse id="Ellipse_428" data-name="Ellipse 428" cx="4.072" cy="7.379" rx="4.072" ry="7.379" transform="matrix(0.019, 1, -1, 0.019, 1420.202, 146.275)" fill="none" stroke="#4aa49d" stroke-width="0.5"/>
      <ellipse id="Ellipse_429" data-name="Ellipse 429" cx="4.072" cy="7.379" rx="4.072" ry="7.379" transform="matrix(0.019, 1, -1, 0.019, 1420.202, 146.275)" fill="#fff" stroke="#4aa49d" stroke-width="1"/>
      <path id="Path_7955" data-name="Path 7955" d="M-5238.155-13561.041l26.785-11.6,5.688,4.382s4.437,4.405-.69,8.962a16.8,16.8,0,0,1-10.609,4.427,22.841,22.841,0,0,1-13.507-1.394C-5237.1-13559.325-5238.155-13561.041-5238.155-13561.041Z" transform="translate(6587 13718)" fill="#fff"/>
      <path id="Path_7655" data-name="Path 7655" d="M757.964,73.13c-4.351-.7-7.4,1.776-7.4,6.784v5.455l24.785,14.88V94.794c0-5.008-3.049-11.149-7.4-15.669" transform="matrix(-0.588, 0.809, -0.809, -0.588, 1885.419, -411.59)" fill="none" stroke="#4aa49d" stroke-linecap="round" stroke-width="1"/>
      <ellipse id="Ellipse_430" data-name="Ellipse 430" cx="4.072" cy="7.379" rx="4.072" ry="7.379" transform="matrix(0.019, 1, -1, 0.019, 1387.471, 160.183)" fill="none" stroke="#4aa49d" stroke-width="0.5"/>
      <path id="Path_7954" data-name="Path 7954" d="M-5238.155-13561.041l26.785-11.6,5.688,4.382s4.437,4.405-.69,8.962a16.8,16.8,0,0,1-10.609,4.427,22.841,22.841,0,0,1-13.507-1.394C-5237.1-13559.325-5238.155-13561.041-5238.155-13561.041Z" transform="translate(6554 13732)" fill="#fff"/>
      <ellipse id="Ellipse_431-15" data-name="Ellipse 431" cx="4.072" cy="7.379" rx="4.072" ry="7.379" transform="matrix(0.019, 1, -1, 0.019, 1387.471, 160.183)" fill="#fff" stroke="#4aa49d" stroke-width="1"/>
      <path id="Path_7656" data-name="Path 7656" d="M782.237,87.7c-4.351-.706-7.4,1.775-7.4,6.783v5.455l24.785,14.881v-5.456c0-5.008-3.048-11.149-7.4-15.669" transform="matrix(-0.588, 0.809, -0.809, -0.588, 1878.746, -408.755)" fill="none" stroke="#4aa49d" stroke-linecap="round" stroke-width="1"/>
      <ellipse id="Ellipse_432" data-name="Ellipse 432" cx="4.072" cy="7.379" rx="4.072" ry="7.379" transform="matrix(0.019, 1, -1, 0.019, 1354.74, 174.089)" fill="none" stroke="#4aa49d" stroke-width="0.5"/>
      <ellipse id="Ellipse_433" data-name="Ellipse 433" cx="4.072" cy="7.379" rx="4.072" ry="7.379" transform="matrix(0.019, 1, -1, 0.019, 1354.74, 174.089)" fill="#fff" stroke="#4aa49d" stroke-width="1"/>
      <path id="Path_7657" data-name="Path 7657" d="M760.237,22.7c-4.351-.706-7.4,1.775-7.4,6.783v5.455l24.785,14.881V44.367c0-5.008-3.049-11.149-7.4-15.669" transform="matrix(-0.588, 0.809, -0.809, -0.588, 1895.525, -403.528)" fill="none" stroke="#4aa49d" stroke-linecap="round" stroke-width="1"/>
      <ellipse id="Ellipse_434" data-name="Ellipse 434" cx="4.072" cy="7.379" rx="4.072" ry="7.379" transform="matrix(0.019, 1, -1, 0.019, 1437.037, 199.724)" fill="none" stroke="#4aa49d" stroke-width="0.5"/>
      <ellipse id="Ellipse_435" data-name="Ellipse 435" cx="4.072" cy="7.379" rx="4.072" ry="7.379" transform="matrix(0.019, 1, -1, 0.019, 1437.037, 199.724)" fill="#fff" stroke="#4aa49d" stroke-width="1"/>
      <path id="Path_7658" data-name="Path 7658" d="M736.157,54.813V47.435c0-4.983,4.116-6.588,9.147-3.569l42.685,25.628c5.031,3.021,9.147,9.569,9.147,14.552v7.378" transform="matrix(-0.588, 0.809, -0.809, -0.588, 1893.942, -409.958)" fill="none" stroke="#4aa49d" stroke-width="1"/>
      <line id="Line_135" data-name="Line 135" y1="15.923" transform="matrix(-0.588, 0.809, -0.809, -0.588, 1397.464, 176.956)" fill="none" stroke="#4aa49d" stroke-width="1"/>
      <line id="Line_144" data-name="Line 144" y1="14.339" transform="matrix(-0.588, 0.809, -0.809, -0.588, 1409.065, 185.385)" fill="none" stroke="#4aa49d" stroke-linecap="round" stroke-width="1"/>
      <g id="Group_5684" data-name="Group 5684" transform="matrix(-0.588, 0.809, -0.809, -0.588, 1414.487, -113.379)">
        <path id="Path_7635" data-name="Path 7635" d="M407.034-13.876V1.217l-15.2-7.758V-21.634Z" transform="translate(-8.346 -4.261)" fill="#fff" stroke="#4aa49d" stroke-linecap="round" stroke-width="1" fill-rule="evenodd"/>
        <path id="Path_7636" data-name="Path 7636" d="M374.806-30.328v15.093l-15.2-7.758V-38.087Z" fill="#fff" stroke="#4aa49d" stroke-linecap="round" stroke-width="1" fill-rule="evenodd"/>
        <path id="Path_7637" data-name="Path 7637" d="M407.034,18.13V33.223l-15.2-7.758V10.372Z" transform="translate(-8.346 -12.55)" fill="#fff" stroke="#4aa49d" stroke-linecap="round" stroke-width="1" fill-rule="evenodd"/>
        <path id="Path_7638" data-name="Path 7638" d="M374.806,1.678V16.77l-15.2-7.758V-6.081Z" transform="translate(0 -8.289)" fill="#fff" stroke="#4aa49d" stroke-linecap="round" stroke-width="1" fill-rule="evenodd"/>
      </g>
      <g id="Group_5683" data-name="Group 5683" transform="matrix(-0.602, 0.799, -0.799, -0.602, 1532.546, -143.638)">
        <path id="Path_7664" data-name="Path 7664" d="M625.985,12.907,624.8,11.285A9.977,9.977,0,0,0,626.142,8.5l1.674.6A1.961,1.961,0,0,0,630.58,7.07V5.105a4.518,4.518,0,0,0-2.764-4l-1.674-.6A21.181,21.181,0,0,0,624.8-3.237l1.187-.775c1.073-.793,1.005-2.648-.152-4.153l-1.377-1.884c-1.081-1.556-2.9-2.273-4.061-1.6l-1.187.774a22.956,22.956,0,0,0-3.236-2.51v-1.693a4.552,4.552,0,0,0-2.981-3.855l-1.945-.694c-1.584-.623-2.917.147-2.982,1.724v1.693a11.391,11.391,0,0,0-3.237.2l-1.184-1.621c-1.167-1.5-2.981-2.08-4.063-1.3l-1.374.9c-1.161.676-1.231,2.484-.157,4.046l1.188,1.622A9.941,9.941,0,0,0,597.9-9.576l-1.677-.6a1.96,1.96,0,0,0-2.763,2.022v1.966a4.517,4.517,0,0,0,2.763,4l1.677.6a21.13,21.13,0,0,0,1.341,3.747l-1.188.775c-1.074.794-1,2.651.155,4.156l1.378,1.884c1.083,1.554,2.9,2.269,4.062,1.6L604.83,9.8a22.959,22.959,0,0,0,3.236,2.512V14a4.556,4.556,0,0,0,2.982,3.855l1.945.694c1.584.622,2.916-.148,2.981-1.724V15.134a11.426,11.426,0,0,0,3.236-.2l1.188,1.625c1.167,1.5,2.979,2.076,4.061,1.294l1.377-.9C626.991,16.272,627.059,14.466,625.985,12.907Z" transform="translate(0.902 0.889)" fill="#fff" stroke="#4aa49d" stroke-linecap="round" stroke-width="1"/>
        <path id="Path_7665" data-name="Path 7665" d="M611.263-9.12c-4.271-1.525-7.733.735-7.733,5.05s3.463,9.046,7.734,10.572S619,5.767,619,1.453s-3.461-9.046-7.732-10.572Z" transform="translate(1.657 1.657)" fill="#fff" stroke="#4aa49d" stroke-linecap="round" stroke-width="1"/>
        <g id="Group_5677" data-name="Group 5677" transform="translate(581.413 -12.607)">
          <path id="Path_7666" data-name="Path 7666" d="M639.792,9.837l-2.063.478-2.062-1.951V5.916l2.062-.479,2.063,1.952Z" transform="translate(-577.349 15.39)" fill="#fff" stroke="#4aa49d" stroke-linecap="round" stroke-width="1"/>
          <line id="Line_136" data-name="Line 136" x2="5.285" y2="1.888" transform="translate(51.559 20.116)" fill="none" stroke="#4aa49d" stroke-linecap="round" stroke-width="1"/>
          <path id="Path_7667" data-name="Path 7667" d="M581.413-13.46l2.062-.479,2.063,1.952v2.449l-2.062.478-2.062-1.951Z" transform="translate(-581.413 13.939)" fill="#fff" stroke="#4aa49d" stroke-linecap="round" stroke-width="1"/>
          <line id="Line_137" data-name="Line 137" x1="5.285" y1="1.888" transform="translate(5.598 3.702)" fill="none" stroke="#4aa49d" stroke-linecap="round" stroke-width="1"/>
        </g>
        <g id="Group_5678" data-name="Group 5678" transform="translate(610.219 -31.718)">
          <path id="Path_7668" data-name="Path 7668" d="M611.84-30.852l1.2,2.512-1.2,1.653-2.424-.866-1.2-2.513,1.2-1.653Z" transform="translate(-608.212 31.718)" fill="#fff" stroke="#4aa49d" stroke-linecap="round" stroke-width="1"/>
          <line id="Line_138" data-name="Line 138" y1="5.338" transform="translate(2.415 6.087)" fill="none" stroke="#4aa49d" stroke-linecap="round" stroke-width="1"/>
          <path id="Path_7669" data-name="Path 7669" d="M609.415,27.24l-1.2-2.513,1.2-1.653,2.424.866,1.2,2.512-1.2,1.653Z" transform="translate(-608.212 35.822)" fill="#fff" stroke="#4aa49d" stroke-linecap="round" stroke-width="1"/>
          <line id="Line_139" data-name="Line 139" y2="5.338" transform="translate(2.415 52.504)" fill="none" stroke="#4aa49d" stroke-linecap="round" stroke-width="1"/>
        </g>
        <g id="Group_5679" data-name="Group 5679" transform="translate(589.874 -15.769)">
          <path id="Path_7670" data-name="Path 7670" d="M631.955-14.355l-.589,2.126-2.3-.19-1.729-2.335.589-2.127,2.3.19Z" transform="translate(-586.435 16.88)" fill="#fff" stroke="#4aa49d" stroke-linecap="round" stroke-width="1"/>
          <line id="Line_140" data-name="Line 140" y1="2.481" x2="3.707" transform="translate(37.024 3.986)" fill="none" stroke="#4aa49d" stroke-linecap="round" stroke-width="1"/>
          <path id="Path_7671" data-name="Path 7671" d="M589.285,10.717l.589-2.127,2.3.19,1.728,2.335-.589,2.126-2.3-.19Z" transform="translate(-589.285 18.788)" fill="#fff" stroke="#4aa49d" stroke-linecap="round" stroke-width="1"/>
          <line id="Line_141" data-name="Line 141" x1="3.707" y2="2.481" transform="translate(4.79 25.563)" fill="none" stroke="#4aa49d" stroke-linecap="round" stroke-width="1"/>
        </g>
        <g id="Group_5680" data-name="Group 5680" transform="translate(588.538 -29.696)">
          <path id="Path_7672" data-name="Path 7672" d="M631.588,26.232l-2.339-1.317-.737-2.557,1.615-1.25,2.34,1.316.737,2.557Z" transform="translate(-585.01 33.653)" fill="#fff" stroke="#4aa49d" stroke-linecap="round" stroke-width="1"/>
          <line id="Line_142" data-name="Line 142" x2="3.943" y2="4.963" transform="translate(39.267 49.04)" fill="none" stroke="#4aa49d" stroke-linecap="round" stroke-width="1"/>
          <path id="Path_7673" data-name="Path 7673" d="M589.656-29.837,592-28.521l.737,2.557-1.615,1.25-2.339-1.317-.737-2.557Z" transform="translate(-588.042 29.837)" fill="#fff" stroke="#4aa49d" stroke-linecap="round" stroke-width="1"/>
          <line id="Line_143" data-name="Line 143" x1="3.943" y1="4.963" transform="translate(4.983 5.882)" fill="none" stroke="#4aa49d" stroke-linecap="round" stroke-width="1"/>
        </g>
      </g>
      <path id="Path_7659" data-name="Path 7659" d="M660.653-29.875V-16a5.893,5.893,0,0,0,1.4,4.27c.968,1.421,4.96,6.837,5.5,7.492a7.793,7.793,0,0,0,2.372,2l7.04,2.7c.966.37,1.748-.053,1.748-.945V-22.953a2.744,2.744,0,0,0-1.748-2.284L662.4-30.819C661.436-31.189,660.653-30.766,660.653-29.875Z" transform="matrix(-0.616, 0.788, -0.788, -0.616, 1598.773, 49.093)" fill="#fff" stroke="#4aa49d" stroke-linecap="round" stroke-width="1"/>
      <path id="Path_7660" data-name="Path 7660" d="M668.347,9.407a4.256,4.256,0,0,1-.555-1.943V4.536a1.624,1.624,0,0,0-1.01-1.474l-3.356-1.286A3.234,3.234,0,0,1,661.75.36" transform="matrix(-0.616, 0.788, -0.788, -0.616, 1609.588, 56.948)" fill="#fff" stroke="#4aa49d" stroke-linecap="round" stroke-width="1"/>
      <path id="Path_7661" data-name="Path 7661" d="M687.966-11.311l.793.3,6.885,2.639c.965.37,1.748-.051,1.748-.94V-31.788a2.746,2.746,0,0,0-1.748-2.281L681.08-39.652c-.967-.37-1.748.054-1.748.942v6.527" transform="matrix(-0.616, 0.788, -0.788, -0.616, 1600.71, 40.494)" fill="#fff" stroke="#4aa49d" stroke-linecap="round" stroke-width="1"/>
      <path id="Path_7662" data-name="Path 7662" d="M692.655-22.781l4.97-.2,1.221,4.929" transform="matrix(-0.616, 0.788, -0.788, -0.616, 1609.857, 40.428)" fill="#fff" stroke="#4aa49d" stroke-linecap="round" stroke-width="1"/>
      <path id="Path_7663" data-name="Path 7663" d="M697.19-22.845c0,2.238-1.733,3.455-4.021,3.014a5.914,5.914,0,0,1-1.011-.292" transform="matrix(-0.616, 0.788, -0.788, -0.616, 1609.773, 40.632)" fill="#fff" stroke="#4aa49d" stroke-linecap="round" stroke-width="1"/>
      <path id="Path_7689" data-name="Path 7689" d="M2711.891,102.17a3.181,3.181,0,0,0-1.046,1.441l-17.6,3.114a4.559,4.559,0,0,0-1.6-2.094l3.733-3.436a5.36,5.36,0,0,0,4.22-1.05c1.505-1.231,1.523-2.972.039-3.871a5.1,5.1,0,0,0-5.436.6c-1.279,1.045-1.5,2.445-.627,3.395l-3.733,3.437a9.705,9.705,0,0,0-2.83-.472l.613-12.605a4.81,4.81,0,0,0,1.621-.872c1.507-1.231,1.524-2.971.039-3.871a5.106,5.106,0,0,0-5.435.6c-1.506,1.231-1.523,2.972-.04,3.871a3.71,3.71,0,0,0,1.407.478l-.625,12.614a10.628,10.628,0,0,0-4.657,2.128,6.013,6.013,0,0,0-2.326,3.727l-5.675.865a3.143,3.143,0,0,0-1.326-1.466c-2.062-1.249-5.456-.874-7.548.836s-2.118,4.126-.055,5.375,5.458.873,7.549-.836a4.138,4.138,0,0,0,1.493-2.208l5.676-.865a4.576,4.576,0,0,0,2.12,2.576,8.358,8.358,0,0,0,4.257,1.1l-.134,3.831a7.125,7.125,0,0,0-2.669,1.325c-2.092,1.709-2.116,4.125-.054,5.375s5.457.873,7.549-.836,2.117-4.126.054-5.375a5.4,5.4,0,0,0-2.458-.725l.132-3.83a10.65,10.65,0,0,0,4.575-2.11,5.9,5.9,0,0,0,2.351-3.933l17.614-3.123a2.469,2.469,0,0,0,.788.748,5.106,5.106,0,0,0,5.436-.6c1.505-1.23,1.523-2.971.04-3.871A5.09,5.09,0,0,0,2711.891,102.17Z" transform="translate(-1528.511 382.324)" fill="#fff" stroke="#4aa49d" stroke-width="1"/>
      <path id="Path_7694" data-name="Path 7694" d="M-1735.836-13340.494c.665-.322,9.873-5.5,9.873-5.5s1.115-.434,2.733,1.137,5.956,5.219,5.956,5.219,1.5,1.242-.911,2.426-7.572,3.842-7.572,3.842a3.142,3.142,0,0,1-3.3-.363c-1.381-1.287-6.5-5.713-6.5-5.713S-1736.5-13340.174-1735.836-13340.494Z" transform="translate(2775.515 13718.383)" fill="#fff"/>
      <g id="Group_5690" data-name="Group 5690" transform="translate(1025.36 362.172)">
        <path id="Path_7690" data-name="Path 7690" d="M2564.979,146.157a4.44,4.44,0,0,0,1.042,1.29,8.645,8.645,0,0,0,9.129.764,5.411,5.411,0,0,0,1.5-1.2,7.873,7.873,0,0,0,7.379.152c1.688-.924,2.4-2.385,2.053-3.769a7.916,7.916,0,0,0,5.8-.528c2.2-1.2,2.744-3.31,1.443-4.978a7.681,7.681,0,0,0,2.031-.738c2.784-1.524,3.221-4.344.971-6.288a6.354,6.354,0,0,0-1.592-.988,3.494,3.494,0,0,0-1.258-3.856,7.622,7.622,0,0,0-4.221-1.666,3.2,3.2,0,0,0-1.223-3.039,6.832,6.832,0,0,0-3.808-1.487,5.817,5.817,0,0,0-.946-1.036c-2.47-2.134-6.706-2.71-10.067-1.427a9.836,9.836,0,0,0-9.213-.184c-2.223,1.216-3.09,3.176-2.481,4.984a9.915,9.915,0,0,0-7.619.542c-2.742,1.5-3.43,4.131-1.812,6.215-2.572,1.963-2.71,4.933-.241,7.067a7.569,7.569,0,0,0,1.255.866,3.241,3.241,0,0,0,1.25,2.887,6.928,6.928,0,0,0,4.031,1.5,3.637,3.637,0,0,0,1.413,3.2A7.961,7.961,0,0,0,2564.979,146.157Zm8.52-7.3a.961.961,0,0,1-1.015-.084l-7.251-6.269a.4.4,0,0,1,.108-.7l8.978-4.912a.958.958,0,0,1,1.015.085l7.251,6.268a.4.4,0,0,1-.108.7Zm-8.59-20.889a7.686,7.686,0,0,1,8.114.678c2,1.728,1.613,4.236-.862,5.59a.4.4,0,0,0-.108.7.96.96,0,0,0,1.014.084c3.049-1.668,3.557-4.735,1.179-6.892a8.537,8.537,0,0,1,7.915,1.282,3.6,3.6,0,0,1,1.4,3.354c-.047.272.236.523.632.559s.753-.156.8-.428a3.823,3.823,0,0,0-.185-1.96,4.813,4.813,0,0,1,2.107,1,2.325,2.325,0,0,1,.785,2.729.3.3,0,0,0-.01.085c0,.019-.018.036-.018.055a.121.121,0,0,0,.008.027.407.407,0,0,0,.031.107.624.624,0,0,0,.036.079.515.515,0,0,0,.089.09.462.462,0,0,0,.073.062.753.753,0,0,0,.129.061.885.885,0,0,0,.11.042c.015,0,.025.011.041.016a1.111,1.111,0,0,0,.122.008c.028,0,.054.011.084.012a6.169,6.169,0,0,1,3.961,1.335,2.757,2.757,0,0,1,1.043,2.786,8.862,8.862,0,0,0-6.2.68.4.4,0,0,0-.107.7.957.957,0,0,0,1.014.084,6.727,6.727,0,0,1,7.1.594c1.749,1.512,1.41,3.707-.755,4.891a6.126,6.126,0,0,1-2.029.656,7.018,7.018,0,0,0-3.494-1.238.955.955,0,0,0-.538.1.481.481,0,0,0-.263.326c-.047.273.237.523.632.559a5.087,5.087,0,0,1,2.865,1.118c1.5,1.3,1.209,3.177-.647,4.192a5.764,5.764,0,0,1-6.082-.506l0,0-5.438-4.7,1.683-.921.454.391a.957.957,0,0,0,1.014.084.4.4,0,0,0,.108-.7l-.453-.391,1.121-.614a1.207,1.207,0,0,0,.324-2.1l-.91-.786.572-.313a.4.4,0,0,0,.107-.7.957.957,0,0,0-1.014-.085l-.571.313-1.359-1.175.57-.313a.4.4,0,0,0,.107-.7.957.957,0,0,0-1.014-.085l-.57.313-1.359-1.175.57-.313a.4.4,0,0,0,.108-.7.957.957,0,0,0-1.014-.085l-.57.313-.9-.78a2.881,2.881,0,0,0-3.042-.255l-1.122.614-.462-.4a.957.957,0,0,0-1.014-.084.4.4,0,0,0-.107.7l.462.4-1.685.921-5.439-4.7C2562.045,121.827,2562.434,119.32,2564.909,117.966Zm-10.372,19.527a10.873,10.873,0,0,0,2.736.563c.4.03.749-.168.786-.44s-.253-.52-.649-.55a7.684,7.684,0,0,1-4.438-1.69,3.445,3.445,0,0,1-.036-5.592,9.64,9.64,0,0,0,10.032.759.4.4,0,0,0,.108-.7.957.957,0,0,0-1.014-.085,7.686,7.686,0,0,1-8.115-.678c-2-1.728-1.611-4.236.863-5.59a7.685,7.685,0,0,1,8.114.678l5.439,4.7-1.682.921-.462-.4a.957.957,0,0,0-1.014-.084.4.4,0,0,0-.108.7l.462.4-1.123.614a1.208,1.208,0,0,0-.324,2.1l.9.782-.565.308a.4.4,0,0,0-.108.7.958.958,0,0,0,1.015.085l.564-.309,1.36,1.176-.564.308a.4.4,0,0,0-.108.7.956.956,0,0,0,1.014.085l.564-.309,1.36,1.176-.563.308a.4.4,0,0,0-.108.7.957.957,0,0,0,1.014.085l.563-.308.91.786a2.881,2.881,0,0,0,3.042.254l1.124-.615.454.392a.957.957,0,0,0,1.014.084.4.4,0,0,0,.108-.7l-.453-.391,1.683-.921,5.434,4.7,0,0c1.5,1.3,1.209,3.177-.647,4.192a5.764,5.764,0,0,1-6.086-.509,2.419,2.419,0,0,1-.94-2.169c.038-.273-.252-.52-.65-.55a.951.951,0,0,0-.521.1.478.478,0,0,0-.265.337,3.115,3.115,0,0,0,.968,2.62,3.976,3.976,0,0,1-1.384,1.211,6.724,6.724,0,0,1-7.1-.594c-1.749-1.511-1.41-3.706.755-4.89a.4.4,0,0,0,.108-.7.959.959,0,0,0-1.014-.084c-1.8.986-2.614,2.517-2.357,4a6.094,6.094,0,0,1-3.714-1.326,2.732,2.732,0,0,1-1-2.955c.006-.019,0-.039,0-.06a.437.437,0,0,0,.016-.083.3.3,0,0,0-.014-.031.342.342,0,0,0-.033-.082.415.415,0,0,0-.058-.1.421.421,0,0,0-.071-.063.62.62,0,0,0-.106-.079.869.869,0,0,0-.1-.043.942.942,0,0,0-.144-.045c-.013,0-.022-.009-.036-.011s-.056,0-.083,0a.9.9,0,0,0-.124-.012,5.416,5.416,0,0,1-3.691-1.14A2.61,2.61,0,0,1,2554.537,137.492Z" transform="translate(-2550.077 -116.126)" fill="#4aa49d"/>
        <path id="Path_7691" data-name="Path 7691" d="M2579.8,131.9l-6.346-5.485a.956.956,0,0,0-1.014-.084l-7.857,4.3a.4.4,0,0,0-.108.7l6.345,5.486a.961.961,0,0,0,1.015.084l7.856-4.3A.4.4,0,0,0,2579.8,131.9Zm-1.575.223-6.734,3.684-5.439-4.7,6.734-3.685Z" transform="translate(-2548.305 -114.869)" fill="#4aa49d"/>
        <path id="Path_7692" data-name="Path 7692" d="M2570.709,132.837l3.367-1.842a.4.4,0,0,0,.108-.7.959.959,0,0,0-1.014-.084l-3.367,1.842a.4.4,0,0,0-.108.7A.957.957,0,0,0,2570.709,132.837Z" transform="translate(-2547.656 -114.386)" fill="#4aa49d"/>
        <path id="Path_7693" data-name="Path 7693" d="M2570.5,131.11l1.122-.614a.4.4,0,0,0,.108-.7.959.959,0,0,0-1.014-.084l-1.122.614a.4.4,0,0,0-.108.7A.957.957,0,0,0,2570.5,131.11Z" transform="translate(-2547.682 -114.448)" fill="#4aa49d"/>
      </g>
      <g id="Group_5691" data-name="Group 5691" transform="translate(-1506.827 231.247)">
        <path id="Path_7695" data-name="Path 7695" d="M2504.436,229.529l-1.682,1.432-2.534-.567-3.545,3.017-6.2-1.387,3.545-3.017-1.067-.239-7.931,6.751-6.2-1.387,7.931-6.751-2.533-.567,1.683-1.432,2.533.567,7.931-6.751,6.2,1.387-7.931,6.751,1.067.239,3.545-3.018,6.2,1.387-3.545,3.018Z" fill="#fff" stroke="#4aa49d" stroke-width="1" fill-rule="evenodd"/>
      </g>
    </g>
  </g>
</svg>
