<svg xmlns="http://www.w3.org/2000/svg" width="39.883" height="38.448" viewBox="0 0 39.883 38.448">
  <g id="Group_5745" data-name="Group 5745" transform="translate(-3.25 -4.392)">
    <path id="Path_8025" data-name="Path 8025" d="M44.565,24.569l-1.517-.263a6.605,6.605,0,0,0-.727-1.752l.887-1.259a.471.471,0,0,0-.052-.6l-1.319-1.318a.471.471,0,0,0-.6-.052l-1.257.887a6.592,6.592,0,0,0-1.748-.726l-.263-1.514a.472.472,0,0,0-.464-.391H35.635a.472.472,0,0,0-.464.391l-.263,1.514a6.618,6.618,0,0,0-1.752.726L31.9,19.322a.471.471,0,0,0-.6.052l-1.319,1.318a.472.472,0,0,0-.052.6l.887,1.259a6.623,6.623,0,0,0-.726,1.752l-1.513.263a.472.472,0,0,0-.391.464V26.9c0,.644.879.458,1.9.727a6.591,6.591,0,0,0,.726,1.747l-.887,1.259a.472.472,0,0,0,.052.6l1.319,1.319a.472.472,0,0,0,.6.052l1.257-.886a6.558,6.558,0,0,0,1.753.725l.263,1.517a.471.471,0,0,0,.464.391H36.1v5.429a4.068,4.068,0,0,1-4.064,4.062H21.316a4.069,4.069,0,0,1-4.042-3.659,3.218,3.218,0,0,0,2.689-2.759,1.586,1.586,0,0,0,1.462-1.576v-.585h.734a.471.471,0,1,0,0-.942h-.734V33.238h.734a.471.471,0,1,0,0-.942h-.734v-.585a1.587,1.587,0,0,0-.7-1.313,9.684,9.684,0,0,1,2.456-6.347,8.634,8.634,0,1,0-12.869-.074,9.988,9.988,0,0,1,2.524,6.4,1.585,1.585,0,0,0-.741,1.338V32.3h-.734a.471.471,0,1,0,0,.942H12.1v1.088h-.734a.471.471,0,0,0,0,.942H12.1v.585a1.586,1.586,0,0,0,1.5,1.579,3.215,3.215,0,0,0,2.734,2.76,5.009,5.009,0,0,0,4.984,4.6H32.033a5.011,5.011,0,0,0,5.006-5V34.355H37.5a.471.471,0,0,0,.464-.391l.263-1.518a6.637,6.637,0,0,0,1.747-.725l1.257.887a.472.472,0,0,0,.6-.052l1.319-1.319a.471.471,0,0,0,.052-.6l-.887-1.259a6.591,6.591,0,0,0,.726-1.747l1.517-.263a.471.471,0,0,0,.391-.464V25.034A.472.472,0,0,0,44.565,24.569Zm-35.472-6.3a7.692,7.692,0,1,1,13.395,5.155,10.606,10.606,0,0,0-2.7,6.7H18.709V24.244c1.423-.289,2.235-.863,2.235-1.608,0-.909-1.365-1.486-1.911-1.486a1.275,1.275,0,0,0-1.267,1.28v1.006a9.3,9.3,0,0,1-1.97,0V22.428a1.269,1.269,0,0,0-1.652-1.218c-1.261.414-1.524,1-1.524,1.427,0,.739.831,1.325,2.235,1.609v5.878H13.782a10.941,10.941,0,0,0-2.76-6.77A7.668,7.668,0,0,1,9.092,18.265Zm5.763,5.022c-.97-.225-1.293-.56-1.293-.651,0-.04.152-.294.876-.531a.328.328,0,0,1,.416.323Zm.942,1.1a10.422,10.422,0,0,0,1.97,0v5.733H15.8Zm2.912-1.106V22.43c0-.754,1.293.027,1.293.206C20,22.722,19.667,23.057,18.709,23.284Zm-5.667,8.428a.648.648,0,0,1,.648-.646h6.147a.647.647,0,0,1,.646.646V32.3H13.042Zm0,1.527h7.441v1.088H13.042Zm0,2.615v-.585h7.441v.585a.647.647,0,0,1-.646.646H13.69A.64.64,0,0,1,13.042,35.853Zm1.5,1.588h4.483a2.282,2.282,0,0,1-4.483,0ZM44.013,26.5l-1.436.249c-.632.109-.159.781-1.215,2.377-.291.442.25.745.847,1.722l-.758.758-1.19-.839c-.527-.367-.685.45-2.539.826-.521.106-.354.719-.619,1.817H36.031l-.248-1.436c-.107-.617-.85-.193-2.382-1.214-.444-.295-.76.258-1.722.846l-.758-.758.838-1.191c.368-.521-.448-.681-.825-2.538a.472.472,0,0,0-.382-.37L29.121,26.5V25.43l1.431-.248a.473.473,0,0,0,.382-.371,5.684,5.684,0,0,1,.833-2.012.471.471,0,0,0-.008-.531l-.838-1.191.758-.758,1.19.839a.474.474,0,0,0,.531.008,5.694,5.694,0,0,1,2.012-.833.473.473,0,0,0,.371-.382l.248-1.431H37.1l.249,1.431a.471.471,0,0,0,.37.382,5.689,5.689,0,0,1,2.009.833.472.472,0,0,0,.531-.008l1.19-.839.758.758-.839,1.191a.471.471,0,0,0-.008.531,5.679,5.679,0,0,1,.83,1.984.472.472,0,0,0,.386.4l1.436.248Z" transform="translate(-1.822 -1.948)" fill="#4aa49d"/>
    <path id="Path_8026" data-name="Path 8026" d="M50.869,28.848a4.267,4.267,0,1,0,4.266,4.267A4.271,4.271,0,0,0,50.869,28.848Zm0,7.592a3.325,3.325,0,1,1,3.324-3.325A3.329,3.329,0,0,1,50.869,36.44Z" transform="translate(-16.124 -9.096)" fill="#4aa49d"/>
    <path id="Path_8027" data-name="Path 8027" d="M22.087,6.453V4.863a.471.471,0,1,0-.942,0v1.59a.471.471,0,1,0,.942,0Z" transform="translate(-6.656)" fill="#4aa49d"/>
    <path id="Path_8028" data-name="Path 8028" d="M12.974,9.013a.471.471,0,0,0,.816-.471L13,7.165a.471.471,0,1,0-.816.471Z" transform="translate(-3.298 -0.944)" fill="#4aa49d"/>
    <path id="Path_8029" data-name="Path 8029" d="M7.822,15.143A.471.471,0,0,0,7.65,14.5l-1.377-.8a.471.471,0,0,0-.471.816l1.377.8A.471.471,0,0,0,7.822,15.143Z" transform="translate(-0.862 -3.44)" fill="#4aa49d"/>
    <path id="Path_8030" data-name="Path 8030" d="M5.311,22.729H3.721a.471.471,0,1,0,0,.942h1.59a.471.471,0,1,0,0-.942Z" transform="translate(0 -6.82)" fill="#4aa49d"/>
    <path id="Path_8031" data-name="Path 8031" d="M36.95,22.756a.471.471,0,0,0,.471.471h1.59a.471.471,0,0,0,0-.942h-1.59A.471.471,0,0,0,36.95,22.756Z" transform="translate(-12.534 -6.655)" fill="#4aa49d"/>
    <path id="Path_8032" data-name="Path 8032" d="M36.364,13.321l-1.377.8a.471.471,0,0,0,.471.816l1.377-.8a.471.471,0,1,0-.471-.816Z" transform="translate(-11.716 -3.297)" fill="#4aa49d"/>
    <path id="Path_8033" data-name="Path 8033" d="M29.844,8.791l.8-1.377a.471.471,0,0,0-.816-.471l-.8,1.377a.471.471,0,1,0,.816.471Z" transform="translate(-9.564 -0.861)" fill="#4aa49d"/>
  </g>
</svg>
