<svg xmlns="http://www.w3.org/2000/svg" width="29.5" height="29.5" viewBox="0 0 29.5 29.5">
  <path id="Path_7995" data-name="Path 7995" d="M28.956,24.911a4.021,4.021,0,0,0-2.5.871l-2.972-2.972V13.689l2.972-2.972a4.056,4.056,0,1,0-.673-.673l-2.972,2.972H18.726V9.923a.476.476,0,0,0-.952,0v3.093H13.689l-2.972-2.972a4.057,4.057,0,1,0-.673.673l2.972,2.972v9.122l-2.972,2.972a4.057,4.057,0,1,0,.673.673l2.972-2.972h9.122l2.972,2.972a4.04,4.04,0,1,0,3.173-1.544Zm0-20.46a3.093,3.093,0,1,1-3.093,3.093A3.1,3.1,0,0,1,28.956,4.452ZM7.544,10.637a3.093,3.093,0,1,1,3.093-3.093A3.1,3.1,0,0,1,7.544,10.637Zm0,21.411a3.093,3.093,0,1,1,3.093-3.093A3.1,3.1,0,0,1,7.544,32.048Zm14.988-9.516H13.968V13.968h8.565Zm6.423,9.516a3.093,3.093,0,1,1,3.093-3.093A3.1,3.1,0,0,1,28.956,32.048ZM18.25,20.312a2.062,2.062,0,1,0-2.062-2.062A2.064,2.064,0,0,0,18.25,20.312Zm0-3.172a1.11,1.11,0,1,1-1.11,1.11A1.111,1.111,0,0,1,18.25,17.14Z" transform="translate(-3.5 -3.5)" fill="#4aa49d"/>
</svg>
