<svg xmlns="http://www.w3.org/2000/svg" width="22.81" height="25.424" viewBox="0 0 22.81 25.424">
  <g id="Group_5803" data-name="Group 5803" transform="translate(-925.809 -5598.89)">
    <rect id="Rectangle_1279" data-name="Rectangle 1279" width="14.032" height="1.484" transform="translate(926.056 5598.89)" fill="#4aa49d"/>
    <rect id="Rectangle_1280" data-name="Rectangle 1280" width="5.209" height="1.484" transform="translate(943.162 5598.89)" fill="#4aa49d"/>
    <rect id="Rectangle_1281" data-name="Rectangle 1281" width="5.209" height="1.484" transform="translate(943.162 5601.857)" fill="#4aa49d"/>
    <path id="Path_7991" data-name="Path 7991" d="M28.492,44.7h10.22a.742.742,0,0,0,.742-.742V33.742A.742.742,0,0,0,38.712,33H28.492a.742.742,0,0,0-.742.742v10.22A.742.742,0,0,0,28.492,44.7Zm.742-10.22H37.97V43.22H29.234Z" transform="translate(898.059 5570.093)" fill="#4aa49d"/>
    <path id="Path_7992" data-name="Path 7992" d="M28.492,68.206H33.6a.742.742,0,0,0,.742-.742V61.409a.742.742,0,0,0-.742-.742h-5.11a.742.742,0,0,0-.742.742v6.055A.742.742,0,0,0,28.492,68.206Zm.742-6.055H32.86v4.571H29.234Z" transform="translate(898.059 5556.108)" fill="#4aa49d"/>
    <path id="Path_7993" data-name="Path 7993" d="M55.909,39.443v7.4a.742.742,0,0,0,.742.742h7.4a.742.742,0,0,0,.742-.742v-7.4a.742.742,0,0,0-.742-.742h-7.4A.742.742,0,0,0,55.909,39.443Zm1.484.742H63.31V46.1H57.393Z" transform="translate(883.825 5567.211)" fill="#4aa49d"/>
    <path id="Path_7994" data-name="Path 7994" d="M58.411,60.667H45.492a.742.742,0,0,0-.742.742v6.055a.742.742,0,0,0,.742.742h12.92a.742.742,0,0,0,.742-.742V61.409A.742.742,0,0,0,58.411,60.667Zm-.742,6.055H46.234V62.151H57.67Z" transform="translate(889.465 5556.108)" fill="#4aa49d"/>
  </g>
</svg>
