<svg xmlns="http://www.w3.org/2000/svg" width="37.5" height="19.969" viewBox="0 0 37.5 19.969">
  <g id="Group_5718" data-name="Group 5718" transform="translate(-0.8 -23.85)">
    <path id="Path_7986" data-name="Path 7986" d="M43.124,44.821l.838.838H37.071a.571.571,0,0,0,0,1.142h6.891l-.838.838a.552.552,0,0,0,0,.8.652.652,0,0,0,.838,0l2.208-2.208-2.208-2.208a.58.58,0,0,0-.838.8Z" transform="translate(-22.109 -12.386)" fill="#4aa49d"/>
    <path id="Path_7987" data-name="Path 7987" d="M67.142,34.577a.565.565,0,0,0-.8.8l.838.838H64.134A3.233,3.233,0,0,1,60.9,32.978,4.379,4.379,0,0,0,56.52,28.6H55.454a.571.571,0,1,0,0,1.142H56.52a3.233,3.233,0,0,1,3.236,3.236A4.369,4.369,0,0,0,61.2,36.214h-.838a4.379,4.379,0,0,0-4.378,4.378,3.233,3.233,0,0,1-3.236,3.236h-1.18a.571.571,0,0,0,0,1.142h1.18a4.379,4.379,0,0,0,4.378-4.378,3.233,3.233,0,0,1,3.236-3.236H67.18l-.838.838a.552.552,0,0,0,0,.8.652.652,0,0,0,.838,0l2.208-2.208Z" transform="translate(-31.088 -2.942)" fill="#4aa49d"/>
    <path id="Path_7988" data-name="Path 7988" d="M16.533,34.415h1.98a4.379,4.379,0,0,0,4.378-4.378A3.233,3.233,0,0,1,26.127,26.8h2.36l-.838.838a.552.552,0,0,0,0,.8.652.652,0,0,0,.838,0L30.7,26.229l-2.208-2.208a.565.565,0,1,0-.8.8l.838.838h-2.36a4.379,4.379,0,0,0-4.378,4.378,3.233,3.233,0,0,1-3.236,3.236h-1.98a.586.586,0,0,0-.571.571A.553.553,0,0,0,16.533,34.415Z" transform="translate(-9.413)" fill="#4aa49d"/>
    <path id="Path_7989" data-name="Path 7989" d="M14.544,54.577a.552.552,0,0,0,0,.8l.838.838H9.1a3.233,3.233,0,0,1-3.236-3.236A4.379,4.379,0,0,0,1.485,48.6H1.371a.571.571,0,1,0,0,1.142h.114a3.233,3.233,0,0,1,3.236,3.236A4.379,4.379,0,0,0,9.1,57.356h6.282l-.838.838a.552.552,0,0,0,0,.8.652.652,0,0,0,.838,0l2.208-2.208-2.246-2.208A.552.552,0,0,0,14.544,54.577Z" transform="translate(0 -15.327)" fill="#4aa49d"/>
  </g>
</svg>
