<svg xmlns="http://www.w3.org/2000/svg" width="37.5" height="31.55" viewBox="0 0 37.5 31.55">
  <g id="Group_5717" data-name="Group 5717" transform="translate(-31.4 -34.55)">
    <path id="Path_7981" data-name="Path 7981" d="M68.3,47.3H63a.472.472,0,0,0-.5.5V65.6a.472.472,0,0,0,.5.5h5.3a.472.472,0,0,0,.5-.5V47.8A.536.536,0,0,0,68.3,47.3Zm-.5,17.8H63.5V48.3h4.3Z" fill="#4aa49d"/>
    <path id="Path_7982" data-name="Path 7982" d="M37.8,47.3H32.5a.472.472,0,0,0-.5.5V65.6a.472.472,0,0,0,.5.5h5.3a.472.472,0,0,0,.5-.5V47.8A.536.536,0,0,0,37.8,47.3Zm-.5,17.8H33V48.3h4.3Z" fill="#4aa49d"/>
    <path id="Path_7983" data-name="Path 7983" d="M47.9,50H42.6a.472.472,0,0,0-.5.5V65.6a.472.472,0,0,0,.5.5h5.3a.472.472,0,0,0,.5-.5V50.5A.472.472,0,0,0,47.9,50Zm-.5,15.1H43.1V51h4.3Z" fill="#4aa49d"/>
    <path id="Path_7984" data-name="Path 7984" d="M58.1,47.3H52.8a.472.472,0,0,0-.5.5V65.6a.472.472,0,0,0,.5.5h5.3a.472.472,0,0,0,.5-.5V47.8A.472.472,0,0,0,58.1,47.3Zm-.5,17.8H53.3V48.3h4.3Z" fill="#4aa49d"/>
    <path id="Path_7985" data-name="Path 7985" d="M31.9,38.7H67.1L64.9,41a.483.483,0,0,0,0,.7c.1.1.2.1.4.1a.6.6,0,0,0,.4-.1l3.1-3.1h0a.349.349,0,0,0,.1-.2v-.2h0V38c0-.1-.1-.1-.1-.2h0l-3.1-3.1a.495.495,0,1,0-.7.7l2.2,2.2H31.9a.472.472,0,0,0-.5.5A.56.56,0,0,0,31.9,38.7Z" fill="#4aa49d"/>
  </g>
</svg>
