<svg xmlns="http://www.w3.org/2000/svg" width="43.371" height="43.171" viewBox="0 0 43.371 43.171">
  <g id="Group_5742" data-name="Group 5742" transform="translate(-56.94 -57.858)">
    <g id="Group_5741" data-name="Group 5741" transform="translate(56.94 57.859)">
      <g id="Group_5722" data-name="Group 5722" transform="translate(5.7 21.853)">
        <path id="Path_8002" data-name="Path 8002" d="M134.28,279.777H109.751a.492.492,0,0,1-.491-.492V266.679a.491.491,0,0,1,.491-.491h18.58l5.552-7.528a.491.491,0,0,1,.887.292v20.335A.491.491,0,0,1,134.28,279.777Zm-24.037-.983h23.546V260.445l-4.813,6.525a.491.491,0,0,1-.4.2H110.243Z" transform="translate(-109.26 -258.459)" fill="#4aa49d"/>
      </g>
      <g id="Group_5723" data-name="Group 5723" transform="translate(30.228 21.854)">
        <path id="Path_8003" data-name="Path 8003" d="M341.613,279.779h-6.707a.492.492,0,0,1-.492-.492V258.953a.491.491,0,0,1,.9-.272l4.993,7.508h1.3a.492.492,0,0,1,.492.491v12.607A.492.492,0,0,1,341.613,279.779ZM335.4,278.8h5.724V267.172h-1.077a.491.491,0,0,1-.409-.219L335.4,260.58Z" transform="translate(-334.415 -258.462)" fill="#4aa49d"/>
      </g>
      <g id="Group_5724" data-name="Group 5724" transform="translate(0 21.854)">
        <path id="Path_8004" data-name="Path 8004" d="M81.96,267.171H57.432a.492.492,0,0,1-.4-.783l5.7-7.728a.492.492,0,0,1,.4-.2H87.66a.492.492,0,0,1,.4.783l-5.7,7.728A.492.492,0,0,1,81.96,267.171ZM58.4,266.188H81.712l4.975-6.745H63.38Z" transform="translate(-56.94 -258.46)" fill="#4aa49d"/>
      </g>
      <g id="Group_5725" data-name="Group 5725" transform="translate(30.228 21.854)">
        <path id="Path_8005" data-name="Path 8005" d="M347.067,267.172h-7.021a.491.491,0,0,1-.409-.219l-5.139-7.728a.491.491,0,0,1,.409-.764h6.97a.491.491,0,0,1,.408.217l5.19,7.728a.491.491,0,0,1-.408.765Zm-6.758-.983h5.836l-4.53-6.745h-5.791Z" transform="translate(-334.416 -258.461)" fill="#4aa49d"/>
      </g>
      <g id="Group_5726" data-name="Group 5726" transform="translate(2.654 9.123)">
        <path id="Path_8006" data-name="Path 8006" d="M90.753,151.854a.492.492,0,0,1-.48-.389c-.927-4.343-3.674-7.173-8.643-8.9a.491.491,0,0,1,.323-.928c5.252,1.831,8.288,4.98,9.281,9.628a.492.492,0,0,1-.378.583A.5.5,0,0,1,90.753,151.854Z" transform="translate(-81.3 -141.604)" fill="#4aa49d"/>
      </g>
      <g id="Group_5727" data-name="Group 5727" transform="translate(2.371 7.008)">
        <path id="Path_8007" data-name="Path 8007" d="M79.195,125.279a.491.491,0,0,1-.354-.832l2.031-2.111a.491.491,0,1,1,.708.681l-2.031,2.111A.49.49,0,0,1,79.195,125.279Z" transform="translate(-78.703 -122.185)" fill="#4aa49d"/>
      </g>
      <g id="Group_5728" data-name="Group 5728" transform="translate(2.371 9.119)">
        <path id="Path_8008" data-name="Path 8008" d="M79.932,145.424a.492.492,0,0,1-.476-.37l-.738-2.878a.491.491,0,0,1,.952-.244l.738,2.878a.492.492,0,0,1-.476.614Z" transform="translate(-78.702 -141.563)" fill="#4aa49d"/>
      </g>
      <g id="Group_5729" data-name="Group 5729" transform="translate(20.379 4.692)">
        <path id="Path_8009" data-name="Path 8009" d="M244.5,115.61a.491.491,0,0,1-.491-.491v-13.7a.491.491,0,1,1,.983,0v13.7A.492.492,0,0,1,244.5,115.61Z" transform="translate(-244.006 -100.93)" fill="#4aa49d"/>
      </g>
      <g id="Group_5730" data-name="Group 5730" transform="translate(17.662 4.692)">
        <path id="Path_8010" data-name="Path 8010" d="M219.554,103.681a.492.492,0,0,1-.269-.9L222,101.009a.491.491,0,1,1,.536.824l-2.717,1.769A.49.49,0,0,1,219.554,103.681Z" transform="translate(-219.062 -100.929)" fill="#4aa49d"/>
      </g>
      <g id="Group_5731" data-name="Group 5731" transform="translate(20.379 4.692)">
        <path id="Path_8011" data-name="Path 8011" d="M247.212,103.68a.489.489,0,0,1-.268-.08l-2.717-1.769a.491.491,0,1,1,.536-.824l2.717,1.769a.492.492,0,0,1-.269.9Z" transform="translate(-244.005 -100.928)" fill="#4aa49d"/>
      </g>
      <g id="Group_5732" data-name="Group 5732" transform="translate(5.155 2.111)">
        <path id="Path_8012" data-name="Path 8012" d="M113.71,87.483a.492.492,0,0,1-.488-.442c-.431-4.236-3.252-7.13-8.622-8.848a.491.491,0,1,1,.3-.936c5.7,1.824,8.831,5.083,9.3,9.685a.491.491,0,0,1-.439.539Z" transform="translate(-104.258 -77.233)" fill="#4aa49d"/>
      </g>
      <g id="Group_5733" data-name="Group 5733" transform="translate(5.155 0)">
        <path id="Path_8013" data-name="Path 8013" d="M104.751,60.952a.491.491,0,0,1-.354-.832l2.03-2.111a.491.491,0,1,1,.708.681l-2.03,2.111A.49.49,0,0,1,104.751,60.952Z" transform="translate(-104.26 -57.859)" fill="#4aa49d"/>
      </g>
      <g id="Group_5734" data-name="Group 5734" transform="translate(5.155 2.111)">
        <path id="Path_8014" data-name="Path 8014" d="M105.487,81.1a.492.492,0,0,1-.476-.37l-.737-2.879a.491.491,0,1,1,.952-.244l.737,2.879a.492.492,0,0,1-.477.614Z" transform="translate(-104.258 -77.233)" fill="#4aa49d"/>
      </g>
      <g id="Group_5735" data-name="Group 5735" transform="translate(30.64 9.123)">
        <path id="Path_8015" data-name="Path 8015" d="M338.685,151.853a.492.492,0,0,1-.481-.594c.992-4.647,4.027-7.8,9.28-9.628a.491.491,0,1,1,.324.928c-4.969,1.732-7.715,4.562-8.642,8.9A.492.492,0,0,1,338.685,151.853Z" transform="translate(-338.193 -141.603)" fill="#4aa49d"/>
      </g>
      <g id="Group_5736" data-name="Group 5736" transform="translate(37.853 7.008)">
        <path id="Path_8016" data-name="Path 8016" d="M406.929,125.278a.49.49,0,0,1-.354-.151l-2.031-2.111a.491.491,0,0,1,.708-.681l2.031,2.111a.492.492,0,0,1-.354.832Z" transform="translate(-404.407 -122.184)" fill="#4aa49d"/>
      </g>
      <g id="Group_5737" data-name="Group 5737" transform="translate(39.146 9.119)">
        <path id="Path_8017" data-name="Path 8017" d="M416.772,145.425a.492.492,0,0,1-.477-.614l.737-2.878a.491.491,0,1,1,.952.244l-.737,2.878A.491.491,0,0,1,416.772,145.425Z" transform="translate(-416.28 -141.563)" fill="#4aa49d"/>
      </g>
      <g id="Group_5738" data-name="Group 5738" transform="translate(28.14 2.111)">
        <path id="Path_8018" data-name="Path 8018" d="M315.736,87.483l-.05,0a.491.491,0,0,1-.439-.539c.468-4.6,3.6-7.86,9.3-9.685a.491.491,0,1,1,.3.936c-5.371,1.718-8.191,4.612-8.622,8.848A.492.492,0,0,1,315.736,87.483Z" transform="translate(-315.244 -77.234)" fill="#4aa49d"/>
      </g>
      <g id="Group_5739" data-name="Group 5739" transform="translate(35.069 0)">
        <path id="Path_8019" data-name="Path 8019" d="M381.378,60.952a.49.49,0,0,1-.354-.151l-2.031-2.111a.491.491,0,0,1,.708-.682l2.031,2.111a.491.491,0,0,1-.354.832Z" transform="translate(-378.855 -57.859)" fill="#4aa49d"/>
      </g>
      <g id="Group_5740" data-name="Group 5740" transform="translate(36.362 2.111)">
        <path id="Path_8020" data-name="Path 8020" d="M391.215,81.094a.492.492,0,0,1-.477-.614l.738-2.879a.492.492,0,0,1,.952.244l-.738,2.879A.491.491,0,0,1,391.215,81.094Z" transform="translate(-390.723 -77.232)" fill="#4aa49d"/>
      </g>
    </g>
  </g>
</svg>
