<svg xmlns="http://www.w3.org/2000/svg" width="32.09" height="32.092" viewBox="0 0 32.09 32.092">
  <g id="Group_5744" data-name="Group 5744" transform="translate(-27.45 -27.448)">
    <g id="Group_5743" data-name="Group 5743" transform="translate(27.45 27.448)">
      <path id="Path_8021" data-name="Path 8021" d="M56.751,59.541H30.24a2.793,2.793,0,0,1-2.79-2.791V30.237a2.792,2.792,0,0,1,2.79-2.789H56.751a2.792,2.792,0,0,1,2.79,2.789V56.75A2.793,2.793,0,0,1,56.751,59.541ZM30.24,28.929a1.309,1.309,0,0,0-1.307,1.308V56.75a1.31,1.31,0,0,0,1.307,1.308H56.751a1.31,1.31,0,0,0,1.307-1.308V30.237a1.31,1.31,0,0,0-1.307-1.308Z" transform="translate(-27.45 -27.448)" fill="#4aa49d"/>
      <path id="Path_8022" data-name="Path 8022" d="M51.565,36.4a3.288,3.288,0,1,0-4.029,3.2v18.13h1.483V39.594A3.287,3.287,0,0,0,51.565,36.4ZM48.277,38.2A1.805,1.805,0,1,1,50.083,36.4,1.808,1.808,0,0,1,48.277,38.2Z" transform="translate(-32.51 -29.081)" fill="#4aa49d"/>
      <path id="Path_8023" data-name="Path 8023" d="M60.478,51.8V33.321H59V51.8a3.289,3.289,0,1,0,1.482,0Zm-.741,5a1.806,1.806,0,1,1,1.805-1.807A1.808,1.808,0,0,1,59.738,56.8Z" transform="translate(-35.815 -29.142)" fill="#4aa49d"/>
      <path id="Path_8024" data-name="Path 8024" d="M40.1,43.131a3.288,3.288,0,0,0-2.547-3.2V33.321H36.075v6.614a3.279,3.279,0,0,0,0,6.392V57.785h1.482V46.328A3.29,3.29,0,0,0,40.1,43.131Zm-3.289,1.806a1.805,1.805,0,1,1,1.806-1.805A1.808,1.808,0,0,1,36.816,44.937Z" transform="translate(-29.203 -29.142)" fill="#4aa49d"/>
    </g>
  </g>
</svg>
