<svg xmlns="http://www.w3.org/2000/svg" xmlns:xlink="http://www.w3.org/1999/xlink" width="1922" height="740" viewBox="0 0 1922 740">
  <defs>
    <clipPath id="clip-path">
      <rect id="Rectangle_1297" data-name="Rectangle 1297" width="1922" height="740" fill="#fff"/>
    </clipPath>
    <radialGradient id="radial-gradient" cx="0.367" cy="0.2" r="0.534" gradientTransform="matrix(0.694, 0.59, -0.435, 0.694, 0.2, -0.155)" gradientUnits="objectBoundingBox">
      <stop offset="0" stop-color="#dac265"/>
      <stop offset="1" stop-color="#4aa49d"/>
    </radialGradient>
    <linearGradient id="linear-gradient" x1="0.5" x2="0.5" y2="1" gradientUnits="objectBoundingBox">
      <stop offset="0" stop-color="#fff"/>
      <stop offset="1" stop-color="#4aa49d"/>
    </linearGradient>
  </defs>
  <g id="Mask_Group_64" data-name="Mask Group 64" clip-path="url(#clip-path)">
    <g id="Group_5797" data-name="Group 5797">
      <path id="Path_7332" data-name="Path 7332" d="M1459.514,1749.207,963.42,1806.357c-367.5,42.336-728.056-236.652-719.733-556.893l11.306-434.257C265.268,420.36,807.4,266.7,1176.7,553.969l484.8,377.093C2029.583,1217.374,1911.116,1697.192,1459.514,1749.207Z" transform="translate(2941.646 -618.044) rotate(110)" fill="url(#radial-gradient)"/>
      <path id="Path_7515" data-name="Path 7515" d="M12070.67,612.26l-205.084,99.246" transform="translate(-10603.302 -205.621)" fill="none" stroke="#a2c9c3" stroke-width="2"/>
      <path id="Path_7520" data-name="Path 7520" d="M11962.366,621.339l-596.911,271.378" transform="translate(-10451.804 -394.243)" fill="none" stroke="#a2c9c3" stroke-width="2" opacity="0.547"/>
      <path id="Path_7521" data-name="Path 7521" d="M11935.78,694.661l-70.475,38.092" transform="translate(-10896.978 -159.145)" fill="none" stroke="#a2c9c3" stroke-width="2"/>
      <path id="Path_7497" data-name="Path 7497" d="M98.285-65.672,0-120v98.285L98.285,32.613Z" transform="translate(999.212 572.568)" fill="#4aa49d"/>
      <path id="Path_7503" data-name="Path 7503" d="M41.416-97.107,0-120v41.416L41.416-55.69Z" transform="translate(1175.564 251.817)" fill="#a2c9c3"/>
      <g id="Group_5626" data-name="Group 5626" transform="translate(1020.035 494.065)">
        <path id="Path_7506" data-name="Path 7506" d="M1584.058-162.338l-32.149-16.4a4.8,4.8,0,0,1-2.4-3.926l.26-42.38.025-.077a1.282,1.282,0,0,1,.077-.325l.042-.106a.927.927,0,0,1,.315-.369l8.111-4.9a.929.929,0,0,1,.47-.12l.134.011a1.515,1.515,0,0,1,.379.1l.158.063,24.917,12.712a4.8,4.8,0,0,1,2.395,3.927l-.042,6.847a.511.511,0,0,1-.81.489,1.6,1.6,0,0,1-.8-1.308l.042-6.848a1.6,1.6,0,0,0-.8-1.308l-24.921-12.706-8.089,4.88-.258,42.238a1.6,1.6,0,0,0,.8,1.309l32.149,16.4a.511.511,0,0,0,.809-.489l.042-6.848a.511.511,0,0,1,.809-.489,1.6,1.6,0,0,1,.8,1.308l-.042,6.848A1.533,1.533,0,0,1,1584.058-162.338Z" transform="translate(-1549.513 230.941)" fill="#fff"/>
      </g>
      <g id="Group_5627" data-name="Group 5627" transform="translate(1053.969 515.564)">
        <path id="Path_7507" data-name="Path 7507" d="M1589.378-205.685" transform="translate(-1589.378 205.685)" fill="#fff"/>
      </g>
      <g id="Group_5628" data-name="Group 5628" transform="translate(1040.276 515.858)">
        <path id="Path_7508" data-name="Path 7508" d="M1589.224-167.607c-4.914-2.507-9.561-7.4-12.629-13.461-3.74-7.39-4.351-14.967-1.592-19.776s8.306-5.843,14.479-2.7l.013.007c8.287,4.227,15.119,14.683,15.9,24.327s-4.773,15.192-12.91,12.894h0A17.864,17.864,0,0,1,1589.224-167.607Zm.26-34.132-.011-.005c-5.557-2.83-10.55-1.9-13.032,2.429s-1.933,11.148,1.433,17.8,8.847,11.74,14.3,13.278h0c7.323,2.068,12.318-2.921,11.619-11.6S1596.942-197.934,1589.484-201.739Z" transform="translate(-1573.292 205.339)" fill="#fff"/>
      </g>
      <g id="Group_5629" data-name="Group 5629" transform="translate(1044.188 524.17)">
        <path id="Path_7509" data-name="Path 7509" d="M1593.191-186.142c2.219,1.132,4.031.038,4.046-2.443a7.99,7.99,0,0,0-3.992-6.543c-2.219-1.133-4.031-.039-4.046,2.443a6.229,6.229,0,0,0,.271,1.76l-4.663.969c-1.132-1.893-2.867-3.187-4.387-3.272s-2.521,1.056-2.532,2.885a8.033,8.033,0,0,0,2.481,5.442c1.511,1.462,3.251,1.94,4.4,1.211l4.622,5.707a3.753,3.753,0,0,0-.29,1.474,8.118,8.118,0,0,0,3.221,6.1c1.891,1.388,3.793,1.216,4.537-.409s.121-4.248-1.486-6.256-3.748-2.84-5.106-1.983l-4.622-5.706a4.767,4.767,0,0,0,.02-3.236l4.663-.968A7.472,7.472,0,0,0,1593.191-186.142Zm.043-7.19a4.794,4.794,0,0,1,2.4,3.927,1.532,1.532,0,0,1-2.428,1.466,4.8,4.8,0,0,1-2.4-3.927A1.532,1.532,0,0,1,1593.234-193.331Zm-11.335,7.739a4.8,4.8,0,0,1-2.395-3.926,1.532,1.532,0,0,1,2.428-1.466,4.794,4.794,0,0,1,2.394,3.926A1.532,1.532,0,0,1,1581.9-185.592Zm11.236,8.437a4.8,4.8,0,0,1,2.4,3.926,1.532,1.532,0,0,1-2.428,1.466,4.8,4.8,0,0,1-2.4-3.926A1.532,1.532,0,0,1,1593.135-177.154Z" transform="translate(-1577.888 195.575)" fill="#fff"/>
      </g>
      <g id="Group_5618" data-name="Group 5618" transform="translate(805.047 512.146)">
        <path id="Path_7457" data-name="Path 7457" d="M1722.809-259.4a.447.447,0,0,0,.395.054l7.066-3.151,4.7,6.651c.208.391.574.64.853.582l8.636-4.081-.035,5.671a1.044,1.044,0,0,0,.521.855.333.333,0,0,0,.529-.319l.043-7.047a1.1,1.1,0,0,0-.521-.855l-6.3-3.215c-.29-.2-.563-.116-.609.186a1.032,1.032,0,0,0,.439.9.652.652,0,0,0,.163.083l4.99,2.546-8.206,3.874-4.75-6.714c-.2-.375-.552-.6-.8-.521l-7.4,3.3c-.215.111-.246.463-.071.811A1.056,1.056,0,0,0,1722.809-259.4Z" transform="translate(-1713.612 285.423)" fill="#fff"/>
        <path id="Path_7458" data-name="Path 7458" d="M1749.305-268.878a1.4,1.4,0,0,0-.718-.861c-1.219-.5-2.385-.942-3.723-1.428-.027-.073-.052-.15-.082-.226a35,35,0,0,0-2.505-5.376l1.729-2.9a.54.54,0,0,0,.071-.2c0-.017.008-.031.01-.048a.5.5,0,0,0,.016-.078c0-.055-.005-.113-.006-.168q-.77-1.312-1.639-2.562a50.814,50.814,0,0,0-3.719-4.426c-.294-.314-.651-.414-.865-.242-.82.66-1.58,1.361-2.391,2.128l-.314-.278a25.884,25.884,0,0,0-4.5-3.194l-1.061-4.315a1.808,1.808,0,0,0-.9-1.278l-.14-.067a14.1,14.1,0,0,0-2.6-.923l-.079-.018c-.117-.027-.234-.053-.353-.091a9.434,9.434,0,0,0-2.574-.461c-.49-.1-.784.311-.661.924l.4,4.074-.215.009a9.261,9.261,0,0,0-3.743,1c-1.109-1.225-2.25-2.483-3.407-3.7-.009-.009-.018-.014-.027-.023s-.046-.04-.07-.058a1.19,1.19,0,0,0-.179-.132c-.015-.008-.027-.023-.042-.031-.062-.031-.122-.053-.183-.083a8.8,8.8,0,0,0-2.452,2.3c-.228.342-.459.681-.681,1.029-.136.211-.259.437-.385.664l-.153.276a1.093,1.093,0,0,0,.188,1.068l2.891,4.117c-.023.061-.045.122-.067.185a16.161,16.161,0,0,0-.838,4.8c-1.24-.2-2.416-.367-3.579-.52-.308-.04-.509.192-.489.565a36.181,36.181,0,0,0,1.276,7.4,1.387,1.387,0,0,0,.753.911l3.763,1.425.035.1a35.081,35.081,0,0,0,2.639,5.606l-1.693,2.855a.525.525,0,0,0-.045.126.5.5,0,0,0-.021.1.654.654,0,0,0-.017.084c0,.113.011.23.013.344q.941,1.485,2,2.88c.078.1.152.2.231.3q1.133,1.43,2.341,2.765.219.242.437.491l.246.278a1.244,1.244,0,0,0,.131.13l.08.069c.3.27.639.314.82.107l.056-.067c.014-.017.027-.037.037-.047.874-.712,1.6-1.342,2.265-1.956.033.031.068.06.1.089a25.779,25.779,0,0,0,4.674,3.288l1.048,4.353c.019.076.041.153.06.218l.684.109-.672-.063a1.433,1.433,0,0,0,.668.863l.052.027a16.843,16.843,0,0,0,6.113,1.528c.291.008.466-.238.433-.608l-.4-4.376h.023a9.288,9.288,0,0,0,3.761-1.012l3.322,3.625c.013.014.027.021.04.035s.022.019.033.029a1.115,1.115,0,0,0,.236.174c.005,0,.011.009.016.012l.031.016a25.361,25.361,0,0,0,2.211-1.656,11.042,11.042,0,0,0,1.7-2.53,1.121,1.121,0,0,0-.2-1.047l-2.9-4.081c.02-.056.041-.113.06-.17a16.1,16.1,0,0,0,.833-4.663l2.468.341,1.158.15c.3.033.5-.2.477-.566A30.867,30.867,0,0,0,1749.305-268.878Zm-3.689,5.691c-.291-.039-.489.164-.494.505a15.1,15.1,0,0,1-.773,4.784c-.07.2-.144.389-.22.579a1.161,1.161,0,0,0,.22,1.015l2.861,4.032a11.686,11.686,0,0,1-2.584,3.135l-3.259-3.556c-.273-.3-.609-.413-.829-.282a8.343,8.343,0,0,1-3.783,1.118c-.149.008-.3.013-.451.017-.277.006-.441.251-.407.609l.4,4.332a15.526,15.526,0,0,1-4.609-1.166l-1.082-4.5a1.441,1.441,0,0,0-.68-.907l-.1-.05a23.2,23.2,0,0,1-4.663-3.21c-.184-.162-.367-.328-.548-.495-.293-.272-.624-.332-.815-.148-.679.647-1.423,1.3-2.331,2.051-.082-.092-.165-.186-.247-.277a50.261,50.261,0,0,1-3.539-4.36c-.045-.063-.09-.128-.133-.191l1.691-2.853a1.036,1.036,0,0,0-.128-.991,32.228,32.228,0,0,1-2.736-5.668c-.083-.226-.161-.451-.237-.676a1.38,1.38,0,0,0-.728-.829l-3.7-1.4a34.12,34.12,0,0,1-.975-5.6c1.133.154,2.287.324,3.51.523.3.048.507-.159.507-.511a15.082,15.082,0,0,1,.774-4.926c.069-.2.144-.4.223-.587a1.158,1.158,0,0,0-.215-1.011l-2.848-4.054c.085-.153.171-.3.264-.447.365-.571.732-1.138,1.117-1.686a2.607,2.607,0,0,1,.416-.435c.232-.2.467-.4.708-.606l.013-.011c1.064,1.135,2.122,2.3,3.146,3.438l.164.181c.274.3.614.421.837.289a8.345,8.345,0,0,1,3.771-1.11c.211-.01.422-.021.635-.018.284,0,.452-.248.417-.612l-.43-4.366a8.265,8.265,0,0,1,2.008.392c.158.05.313.086.466.119l.074.017a11.88,11.88,0,0,1,2.026.7l1.124,4.573a1.443,1.443,0,0,0,.674.9,23.271,23.271,0,0,1,4.592,3.175q.378.331.748.676c.3.28.633.344.827.159.8-.76,1.533-1.45,2.3-2.094a43.347,43.347,0,0,1,3.9,4.875l-1.714,2.879a1.027,1.027,0,0,0,.12.981,32.191,32.191,0,0,1,2.61,5.459c.1.27.191.539.281.807a1.379,1.379,0,0,0,.739.835c1.339.484,2.485.9,3.642,1.373a28.374,28.374,0,0,1,1,5.6Z" transform="translate(-1709.269 295.907)" fill="#fff"/>
      </g>
      <g id="Group_5617" data-name="Group 5617" transform="matrix(0.995, -0.105, 0.105, 0.995, 1181.488, 144.686)">
        <path id="Path_7456" data-name="Path 7456" d="M6.235.1c-.165-.144-.306-.13-.327.032L5.272,5.106c-5-1.172-6.753,4.35-3.909,12.334a35.311,35.311,0,0,0,3.844,7.6l.616,6.081a1.067,1.067,0,0,0,.325.6l8.469,7.335c.163.137.3.123.326-.032l.647-4.988c2.637.612,4.488-.64,5.071-3.43l1.812,1.569c.177.146.32.113.327-.077l.01-3.593a1.039,1.039,0,0,0-.325-.641l-1.812-1.569a31.619,31.619,0,0,0-5.038-12.206l-.605-6.05a1.07,1.07,0,0,0-.325-.6Zm.283.965,7.9,6.841.516,5.162C12.1,9.131,8.814,6.284,5.975,5.311ZM10.455,8.8c5.4,4.674,9.759,13.288,9.742,19.24s-4.405,6.988-9.8,2.315S.637,17.063.653,11.111s4.4-6.992,9.792-2.323Zm6.852,12.776a.367.367,0,0,0-.245-.122l-4.368.347L9.77,16.666c-.13-.286-.357-.522-.529-.548L3.9,16.682l.01-3.469a.987.987,0,0,0-.325-.641c-.18-.156-.326-.121-.327.077L3.249,16.96a1.04,1.04,0,0,0,.325.641l3.909,3.385c.18.187.349.2.377.023a.921.921,0,0,0-.274-.653.687.687,0,0,0-.1-.088L4.39,17.588l5.073-.536,2.955,5.182c.122.273.343.494.5.5l4.572-.362c.133-.019.151-.228.042-.481A1.084,1.084,0,0,0,17.307,21.573Zm3.464,5.521,1.384,1.2-.008,2.874-1.384-1.2a10.941,10.941,0,0,0,.085-1.367A14.807,14.807,0,0,0,20.771,27.094ZM5.918,26.079c2.83,3.937,6.119,6.785,8.957,7.758l-.542,4.245-7.9-6.841Z" fill="#fff"/>
      </g>
      <path id="Path_7513" data-name="Path 7513" d="M12289.944,516.039l-314.131,149.136" transform="translate(-11027.267 21.502)" fill="none" stroke="#a2c9c3" stroke-width="2" opacity="0.298"/>
      <path id="Path_7514" data-name="Path 7514" d="M12130.748,582.156l-265.162,124.872" transform="translate(-10411.774 -217.315)" fill="none" stroke="#a2c9c3" stroke-width="2" opacity="0.315"/>
      <path id="Path_7516" data-name="Path 7516" d="M12005.511,661.073l-139.925,57.7" transform="translate(-10759.929 -471.658)" fill="none" stroke="#a2c9c3" stroke-width="2" opacity="0.686"/>
      <path id="Path_7517" data-name="Path 7517" d="M11936.259,670.318l-296.618,129.4" transform="translate(-11083.734 -321.514)" fill="none" stroke="#a2c9c3" stroke-width="2" opacity="0.488"/>
      <path id="Path_7518" data-name="Path 7518" d="M11941.752,688.51l-76.166,34.34" transform="translate(-11007.638 -192.278)" fill="none" stroke="#a2c9c3" stroke-width="2" opacity="0.547"/>
      <path id="Path_7519" data-name="Path 7519" d="M11773.523,765.26l-357.046,159.465" transform="translate(-11129.884 -140.705)" fill="none" stroke="#a2c9c3" stroke-width="2" opacity="0.488"/>
      <g id="Group_5700" data-name="Group 5700" transform="translate(1912 13544)">
        <path id="Path_7735" data-name="Path 7735" d="M238.26-24.441c.589-53.73-36.257-117.618-82.3-142.7-27.226-14.832-51.566-12.763-67.04,2.51,13.4-3.213,29.481-.6,46.712,8.791,46.042,25.081,82.889,88.969,82.3,142.7-.24,21.955-6.7,38.81-17.393,49.364C222.951,30.853,237.891,9.179,238.26-24.441Z" transform="translate(-854.981 -13085.785)" fill="url(#linear-gradient)"/>
        <ellipse id="Ellipse_453" data-name="Ellipse 453" cx="70.028" cy="116.507" rx="70.028" ry="116.507" transform="translate(-817.903 -13223.44) rotate(-29.072)" fill="none" stroke="#4aa49d" stroke-miterlimit="10" stroke-width="2"/>
        <ellipse id="Ellipse_452" data-name="Ellipse 452" cx="70.028" cy="116.507" rx="70.028" ry="116.507" transform="translate(-838.232 -13212.14) rotate(-29.072)" fill="#fff" stroke="#4aa49d" stroke-miterlimit="10" stroke-width="2"/>
      </g>
      <path id="Path_7736" data-name="Path 7736" d="M155.279-109.344c.262-23.875-16.111-52.264-36.57-63.408-12.1-6.59-22.913-5.671-29.789,1.115,5.956-1.428,13.1-.265,20.756,3.906,20.459,11.145,36.831,39.533,36.57,63.408-.107,9.756-2.977,17.245-7.728,21.935C148.477-84.774,155.116-94.4,155.279-109.344Z" transform="translate(1082.182 299.386)" fill="url(#linear-gradient)"/>
      <path id="Path_7737" data-name="Path 7737" d="M177.926-86.172c.351-32.023-21.609-70.1-49.05-85.048-16.226-8.84-30.733-7.607-39.955,1.5,7.989-1.915,17.57-.355,27.84,5.239,27.441,14.948,49.4,53.025,49.05,85.048-.143,13.085-3.994,23.131-10.366,29.421C168.8-53.217,177.706-66.135,177.926-86.172Z" transform="translate(1284.126 549.703)" fill="url(#linear-gradient)"/>
      <path id="Path_7738" data-name="Path 7738" d="M156.259-108.341c.266-24.228-16.349-53.035-37.11-64.345-12.276-6.688-23.252-5.755-30.229,1.132,6.044-1.449,13.293-.269,21.063,3.964,20.761,11.309,37.375,40.117,37.11,64.345-.108,9.9-3.021,17.5-7.843,22.259C149.356-83.409,156.093-93.182,156.259-108.341Z" transform="translate(732.223 482.103)" fill="url(#linear-gradient)"/>
      <path id="Path_7739" data-name="Path 7739" d="M131.37-133.807c.167-15.273-10.306-33.433-23.393-40.562-7.739-4.216-14.658-3.628-19.056.713,3.81-.913,8.38-.169,13.278,2.5,13.087,7.129,23.561,25.289,23.393,40.562-.068,6.241-1.9,11.032-4.944,14.032C127.019-118.09,131.265-124.25,131.37-133.807Z" transform="translate(1076.525 758.942)" fill="url(#linear-gradient)"/>
      <path id="Path_7740" data-name="Path 7740" d="M161.344-103.138c.286-26.057-17.583-57.04-39.912-69.2-13.2-7.193-25.007-6.189-32.512,1.217,6.5-1.558,14.3-.289,22.654,4.263,22.329,12.163,40.2,43.146,39.912,69.2-.117,10.648-3.25,18.821-8.435,23.94C153.92-76.323,161.166-86.834,161.344-103.138Z" transform="translate(702.323 669.254)" fill="url(#linear-gradient)"/>
      <path id="Path_7741" data-name="Path 7741" d="M144.717-120.151c.22-20.075-13.546-43.945-30.748-53.315-10.172-5.541-19.266-4.768-25.047.938,5.008-1.2,11.014-.223,17.452,3.285,17.2,9.371,30.969,33.241,30.748,53.315-.09,8.2-2.5,14.5-6.5,18.443C139-99.492,144.579-107.59,144.717-120.151Z" transform="translate(930.537 663.84)" fill="url(#linear-gradient)"/>
      <ellipse id="Ellipse_454" data-name="Ellipse 454" cx="31.117" cy="51.77" rx="31.117" ry="51.77" transform="translate(1148.066 139.735) rotate(-29.072)" fill="none" stroke="#4aa49d" stroke-miterlimit="10" stroke-width="2"/>
      <ellipse id="Ellipse_457" data-name="Ellipse 457" cx="41.736" cy="69.438" rx="41.736" ry="69.438" transform="translate(1342.149 396.056) rotate(-29.072)" fill="none" stroke="#4aa49d" stroke-miterlimit="10" stroke-width="2"/>
      <ellipse id="Ellipse_459" data-name="Ellipse 459" cx="31.576" cy="52.534" rx="31.576" ry="52.534" transform="translate(797.768 322.712) rotate(-29.072)" fill="none" stroke="#4aa49d" stroke-miterlimit="10" stroke-width="2"/>
      <ellipse id="Ellipse_461" data-name="Ellipse 461" cx="19.905" cy="33.117" rx="19.905" ry="33.117" transform="translate(1150.709 592.954) rotate(-29.072)" fill="none" stroke="#4aa49d" stroke-miterlimit="10" stroke-width="2"/>
      <ellipse id="Ellipse_463" data-name="Ellipse 463" cx="33.961" cy="56.501" rx="33.961" ry="56.501" transform="translate(766.102 511.211) rotate(-29.072)" fill="none" stroke="#4aa49d" stroke-miterlimit="10" stroke-width="2"/>
      <ellipse id="Ellipse_465" data-name="Ellipse 465" cx="26.164" cy="43.529" rx="26.164" ry="43.529" transform="translate(1000.088 501.39) rotate(-29.072)" fill="none" stroke="#4aa49d" stroke-miterlimit="10" stroke-width="2"/>
      <ellipse id="Ellipse_455" data-name="Ellipse 455" cx="31.117" cy="51.77" rx="31.117" ry="51.77" transform="translate(1139.033 144.758) rotate(-29.072)" fill="#a2c9c3" stroke="#4aa49d" stroke-miterlimit="10" stroke-width="2"/>
      <ellipse id="Ellipse_456" data-name="Ellipse 456" cx="41.736" cy="69.438" rx="41.736" ry="69.438" transform="translate(1330.033 402.792) rotate(-29.072)" fill="#a2c9c3" stroke="#4aa49d" stroke-miterlimit="10" stroke-width="2"/>
      <ellipse id="Ellipse_458" data-name="Ellipse 458" cx="31.576" cy="52.534" rx="31.576" ry="52.534" transform="translate(788.601 327.809) rotate(-29.072)" fill="#a2c9c3" stroke="#4aa49d" stroke-miterlimit="10" stroke-width="2"/>
      <ellipse id="Ellipse_460" data-name="Ellipse 460" cx="19.905" cy="33.117" rx="19.905" ry="33.117" transform="translate(1144.931 596.167) rotate(-29.072)" fill="#a2c9c3" stroke="#4aa49d" stroke-miterlimit="10" stroke-width="2"/>
      <ellipse id="Ellipse_467" data-name="Ellipse 467" cx="7.905" cy="14.117" rx="7.905" ry="14.117" transform="translate(1164.651 606.942) rotate(-29.072)" fill="#fff" stroke="#4aa49d" stroke-miterlimit="10" stroke-width="2"/>
      <ellipse id="Ellipse_462" data-name="Ellipse 462" cx="33.961" cy="56.501" rx="33.961" ry="56.501" transform="translate(756.244 516.692) rotate(-29.072)" fill="#a2c9c3" stroke="#4aa49d" stroke-miterlimit="10" stroke-width="2"/>
      <ellipse id="Ellipse_464" data-name="Ellipse 464" cx="26.164" cy="43.529" rx="26.164" ry="43.529" transform="translate(992.493 505.612) rotate(-29.072)" fill="#a2c9c3" stroke="#4aa49d" stroke-miterlimit="10" stroke-width="2"/>
      <g id="Group_5620" data-name="Group 5620" transform="translate(1146.881 341.217)">
        <path id="Path_7462" data-name="Path 7462" d="M1877.176-165.07l-1.479-.92c6.6-13.245,5.273-33.1-3.535-52.749l2.66,1.855c.706.553,1.422.434,1.6-.268a1.319,1.319,0,0,0,.035-.226,2.659,2.659,0,0,0-1.094-2.367c-.027-.019-.052-.038-.08-.056l-6.208-4.33-.147-.075a1.01,1.01,0,0,0-1.335.148l0,.164c0,.166-.148.091-.15.257l-1.079,6.418a2.66,2.66,0,0,0,1.092,2.369l.08.056.3.15c.72.4,1.357.158,1.489-.572l.462-2.751c8.4,18.718,9.517,37.616,2.959,49.967l-.147-.077-.874-2.933,2.838-2.7c.483-.4.423-1.387-.136-2.227l-4.554-7.468c-.495-.877-1.343-1.382-1.923-1.146l-3.719,1.255a26.037,26.037,0,0,0-2.213-2.123l-.559-5.43a3.2,3.2,0,0,0-1.473-2.24l-6.657-3.4a.96.96,0,0,0-1.489.733l-.623,4.827-2.226-.14-3.679-5.029c-.572-.83-1.425-1.192-1.924-.816l-4.618,2.788c-.56.273-.632,1.188-.161,2.076l2.78,5.567-.9,2.028-4.589-1.679a.958.958,0,0,0-1.337.977l-.045,7.279a3.193,3.193,0,0,0,1.321,2.329l4.583,3,.872,2.933-2.837,2.866c-.485.4-.424,1.385.134,2.225l4.556,7.468c.494.877,1.342,1.382,1.923,1.146l3.717-1.256,2.213,2.125h0c-15.179.04-32.9-11.3-45.977-29.43-.637-.894-1.57-1.247-2.081-.787s-.408,1.556.23,2.449l.059.08c8.31,11.594,18.608,20.825,29.227,26.2a43.259,43.259,0,0,0,18.967,5.2l.137,1.73a3.193,3.193,0,0,0,1.47,2.245l6.51,3.32a.96.96,0,0,0,1.49-.733l.623-4.827,2.225.14,3.679,5.031c.572.829,1.425,1.191,1.924.816l4.616-2.791c.561-.273.631-1.189.161-2.076l-2.787-5.57.9-2.029,4.589,1.68a.961.961,0,0,0,1.35-.972l.044-7.28a2.661,2.661,0,0,0-1.095-2.367C1877.232-165.034,1877.2-165.053,1877.176-165.07Zm-1.672,6.614-4.3-1.529a.842.842,0,0,0-1.191.556,9.84,9.84,0,0,1-1.355,3.126,1.8,1.8,0,0,0,.137,1.894l2.64,5.331-2.831,1.709-3.385-4.715a2.222,2.222,0,0,0-1.626-.995,9.967,9.967,0,0,1-3.411-.247.764.764,0,0,0-1.046.794l-.622,4.5L1854.674-150l-.564-5.108a2.959,2.959,0,0,0-1.028-1.852,25.361,25.361,0,0,1-3.394-3.225c-.511-.623-1.178-.9-1.629-.665l-3.57,1.167-2.789-4.572,2.688-2.611a1.744,1.744,0,0,0,.158-1.744,25.245,25.245,0,0,1-1.307-4.484,2.553,2.553,0,0,0-1.177-1.763l-4.288-2.85.027-4.3,4.295,1.529a.841.841,0,0,0,1.191-.556,9.851,9.851,0,0,1,1.355-3.126,1.794,1.794,0,0,0-.136-1.894l-2.638-5.328,2.831-1.71,3.532,4.79a2.222,2.222,0,0,0,1.628,1,9.927,9.927,0,0,1,3.411.247c.583.182,1.016-.148,1.044-.794l.622-4.5,3.847,1.962.561,5.1a2.96,2.96,0,0,0,1.029,1.852,25.46,25.46,0,0,1,3.394,3.225c.51.625,1.178.9,1.628.665l3.421-1.242,2.791,4.578-2.688,2.61a1.748,1.748,0,0,0-.159,1.744,25.213,25.213,0,0,1,1.309,4.484,2.543,2.543,0,0,0,1.176,1.763l4.286,2.85Z" transform="translate(-1785.233 272.429)" fill="#4aa49d"/>
        <path id="Path_7463" data-name="Path 7463" d="M1839.854-196.537c-5.066-2.586-9.2-.089-9.237,5.576s4.044,12.353,9.11,14.937,9.2.089,9.238-5.576h0c.061-5.621-3.973-12.286-9.011-14.887Zm-.106,17.2a12.354,12.354,0,0,1-6.17-10.118c.024-3.837,2.825-5.528,6.255-3.776a12.354,12.354,0,0,1,6.173,10.118h0C1845.96-179.293,1843.173-177.61,1839.748-179.333Z" transform="translate(-1768.593 288.366)" fill="#4aa49d"/>
        <path id="Path_7464" data-name="Path 7464" d="M1823.012-243.835c-10.379-4.7-18.42,1.117-17.959,12.989a34.925,34.925,0,0,0,4.72,15.437,49.719,49.719,0,0,1,4.245,9.793,1.022,1.022,0,0,0-.9,1.036l-.043,7.129a2.772,2.772,0,0,0,1.3,2.324c.056.032.113.061.169.086l1.038.529c-.083,4.907,3.426,10.757,7.838,13.067s8.055.206,8.14-4.7c0-.07,0-.142,0-.214l1.038.529c.77.445,1.438.126,1.489-.711a1.882,1.882,0,0,0,0-.19l.043-7.113a2.828,2.828,0,0,0-.878-1.942,14.521,14.521,0,0,1,4.338-5.415C1848.775-209.28,1839.883-236.053,1823.012-243.835Zm8.152,50.292-.023,3.8-15.093-7.7.022-3.8Zm-2.557,5.664c-.019,3.107-2.287,4.476-5.066,3.057a10,10,0,0,1-5-8.191Zm1.541-9.5-4.736-2.417.082-13.062,3.724-2.249c.577-.348.583-1.387.014-2.319s-1.5-1.406-2.075-1.059l-3.133,1.892-3.091-5.068c-.569-.932-1.5-1.406-2.075-1.058s-.584,1.387-.015,2.321h0l3.675,6.023-.079,13.068-5.476-2.793a63.411,63.411,0,0,0-5.119-12.4c-8.937-15.842-1.729-29.756,11.148-23.849,14.06,6.343,21.79,29.038,12.4,35.863a16.217,16.217,0,0,0-5.239,7.118Z" transform="translate(-1783.792 259.904)" fill="#4aa49d"/>
        <path id="Path_7465" data-name="Path 7465" d="M1803.775-245.226c.59.633-.3-.151,6.5,4.644.778.513,1.5.265,1.605-.555a2.78,2.78,0,0,0-1.143-2.361l-2.51-1.945c15.953-3.776,36.871,7.835,51.77,28.74a3.764,3.764,0,0,0,.886.783.914.914,0,0,0,1.188-.057c.5-.45.4-1.522-.226-2.4l-.056-.075c-15.938-22.341-38.314-34.7-55.321-30.549l.462-2.753a2.664,2.664,0,0,0-1.094-2.367c-.027-.019-.053-.038-.08-.056-.706-.555-1.422-.434-1.6.268a1.48,1.48,0,0,0-.035.226c-.151.585.311-2.331-1.081,6.418A2.394,2.394,0,0,0,1803.775-245.226Z" transform="translate(-1784.996 254.523)" fill="#4aa49d"/>
        <path id="Path_7466" data-name="Path 7466" d="M1804.189-190.384c-.7-.555-1.422-.435-1.6.266a1.27,1.27,0,0,0-.036.226l-.609,2.677c-10.515-23.177-9.534-46.143,2.428-56.843.511-.459.408-1.554-.229-2.449s-1.57-1.247-2.081-.788a.626.626,0,0,0-.044.045c-12.78,11.452-13.771,36.049-2.453,60.81l-2.512-1.779c-.7-.553-1.42-.434-1.6.268a1.444,1.444,0,0,0-.037.226,2.669,2.669,0,0,0,1.094,2.369c.026.019.052.037.08.054l6.206,4.33c.751.54,1.476.357,1.624-.41,0-.027.009-.054.014-.083l1.079-6.418A3.5,3.5,0,0,0,1804.189-190.384Z" transform="translate(-1791.709 258.697)" fill="#4aa49d"/>
      </g>
      <path id="Path_7505" data-name="Path 7505" d="M1997.406-89.625c-.005.728-.975.2-.971-.495.046-7.439-14.963-15.1-15.009-7.657,0,.715-.975.22-.971-.495.093-15.106,11.115-21.76,24.625-14.868s24.383,24.718,24.29,39.823c0,.715-.975.22-.97-.495.045-7.4-14.923-15.134-15.015-7.647-.005.689-.969.21-.965-.5C2012.455-89.416,1997.451-97.064,1997.406-89.625Z" transform="translate(-606.234 526.074)" fill="#fff" stroke="#4aa49d" stroke-miterlimit="10" stroke-width="2"/>
      <path id="Path_7512" data-name="Path 7512" d="M2008.68-49.287a1.263,1.263,0,0,1-2,1.207h0a3.964,3.964,0,0,1-1.973-3.233l.244-39.876" transform="translate(-606.239 526.068)" fill="none" stroke="#4aa49d" stroke-linecap="round" stroke-miterlimit="10" stroke-width="2"/>
      <path id="Path_7742" data-name="Path 7742" d="M-2471.922-13531.7s-.484,9.74,0,10.2,12.315,5.829,12.315,5.829l-2.757-5.829,2.757-4.581Z" transform="translate(3659 13674)" fill="#f3f9f9"/>
      <g id="Group_5631" data-name="Group 5631" transform="translate(1166.723 140.586)">
        <path id="Path_7510" data-name="Path 7510" d="M1936.129-126.464a.817.817,0,0,0-.7-.158l-5.993,1.953L1921.4-142.5a1.787,1.787,0,0,0-.884-.918,3.07,3.07,0,0,1-.31-.13c-.294-.136-.66-.307-.932-.033a34.313,34.313,0,0,0-3.063,3.491c-.436.6-1.764-.147-2.541-.665l1.511-5.627a.884.884,0,0,1,1.355-.529l4.317,1.992,6.033,6.234a1.4,1.4,0,0,0,.533.358l8.754,3.019a.591.591,0,0,0,.632-.077.788.788,0,0,0,.2-.679,1.856,1.856,0,0,0-.35-.884,1.584,1.584,0,0,0-.729-.583l-8.489-2.927-5.982-6.183a1.5,1.5,0,0,0-.437-.318l-4.545-2.1c-1.176-.544-2.689-.675-3.259,1.752l-5.511-.734-4.009-2.564a.827.827,0,0,0-.7-.153.578.578,0,0,0-.369.509,1.86,1.86,0,0,0,.836,1.627l4.2,2.684.107.059a.953.953,0,0,0,.3.1l4.574.6-1.044,3.916a1.75,1.75,0,0,0,.628,1.594c.042.036,4.126,3.523,5.6,1.476a33.581,33.581,0,0,1,2.467-2.852l8.08,17.943a1.923,1.923,0,0,0,.144.268,2,2,0,0,0,.112.3,1.565,1.565,0,0,1,.158.908.569.569,0,0,1-.4.5c-.444.126-1.061-.306-1.374-.959l-2.434-5.119c-.286-.633-.874-1.067-1.313-.967s-.559.7-.25,1.385l1.746,3.7c.022.066.049.134.086.218.27.567.176,1.119-.184,1.223a1.489,1.489,0,0,1-1.319-.851l-2.087-4.646a1.97,1.97,0,0,0-.56-.791,1,1,0,0,0-.718-.278c-.45.048-.623.577-.392,1.211a1.286,1.286,0,0,0,.082.184l1.539,3.423.043.1a2.875,2.875,0,0,1,.3,1.509.248.248,0,0,1-.2.227c-.365.1-.873-.244-1.125-.761l-2.117-4.74c-.334-.612-.933-.969-1.327-.791-.332.148-.429.623-.214,1.212l1.789,4.006c.011.046.025.1.046.171.146.4.031.734-.253.752l-.072.009c-.479.129-1.328-.884-1.576-1.2l-.137-.146-.014-.007c-1.421-1.659-3.6-4.535-7.487-9.666l-4.8-6.357a1.56,1.56,0,0,0-.7-.56.583.583,0,0,0-.627.1.819.819,0,0,0-.185.694,1.974,1.974,0,0,0,.4.928l4.609,6.1c4.123,5.462,6.394,8.471,7.846,10.153a7.237,7.237,0,0,0,2.238,1.964l.03.015a1.956,1.956,0,0,0,1.4.224,1.4,1.4,0,0,0,.979-.653,2.705,2.705,0,0,0,2.345.8,1.25,1.25,0,0,0,.907-.861,3.638,3.638,0,0,0,.825.546,2.271,2.271,0,0,0,1.624.248,1.437,1.437,0,0,0,.869-.661,5.023,5.023,0,0,0,.72.618,3.283,3.283,0,0,0,.493.3c1.578.8,2.868.016,2.876-1.751a4.634,4.634,0,0,0-.275-1.525l6.1-1.946a.575.575,0,0,0,.373-.506,1.53,1.53,0,0,0-.173-.873A1.9,1.9,0,0,0,1936.129-126.464Z" transform="translate(-1899.473 186.555)" fill="#4aa49d"/>
        <path id="Path_7511" data-name="Path 7511" d="M1938.966-142.8c-5.076-8.327-11.823-15.029-19.036-18.92l.111-18.007,12.056,6.151a.511.511,0,0,0,.71-.112,1.028,1.028,0,0,0-.032-.943l-2.889-6.383,2.949-3.406a.915.915,0,0,0,.044-.9,1.591,1.591,0,0,0-.7-.838l-12.86-6.56a.511.511,0,0,0-.81.489l-.181,29.69c-7.216-3.47-14-3.674-19.149-.562-.316.191-.318.762-.008,1.272s.821.77,1.137.58c10.413-6.26,27.24,2.326,37.506,19.129a1.5,1.5,0,0,0,.576.569.589.589,0,0,0,.559.032.51.51,0,0,0,.239-.4l.461.236Zm-10.718-38.549,2.357,5.21-10.554-5.384.055-8.987,10.554,5.384-2.406,2.779A.966.966,0,0,0,1928.248-181.349Z" transform="translate(-1898.935 192.807)" fill="#4aa49d"/>
      </g>
      <ellipse id="Ellipse_466" data-name="Ellipse 466" cx="15.454" cy="24.393" rx="15.454" ry="24.393" transform="matrix(0.866, -0.5, 0.5, 0.866, 816.111, 348.998)" fill="#fff"/>
      <g id="Group_5701" data-name="Group 5701" transform="translate(-68.557 900.415) rotate(13)">
        <path id="Path_7743" data-name="Path 7743" d="M804.756-536.626a1.664,1.664,0,0,0-.916-.975c-1.548-.581-3.03-1.081-4.726-1.639l-.1-.255a38.336,38.336,0,0,0-3.215-6.081l2.164-3.263a.56.56,0,0,0,.086-.226.386.386,0,0,1,.013-.054.594.594,0,0,0,.02-.089c0-.062-.009-.126-.01-.189q-.986-1.486-2.1-2.9a60.634,60.634,0,0,0-4.743-5.018c-.375-.357-.828-.472-1.1-.279-1.035.737-1.991,1.522-3.012,2.383q-.2-.16-.4-.319a33.672,33.672,0,0,0-5.728-3.635l-1.377-4.874a2.1,2.1,0,0,0-1.148-1.448l-.174-.075a19.511,19.511,0,0,0-3.3-1.06l-.1-.021c-.148-.031-.3-.061-.447-.1a13.307,13.307,0,0,0-3.263-.539c-.619-.115-.986.348-.824,1.04l.54,4.6c-.087,0-.181,0-.272.009a12.765,12.765,0,0,0-4.732,1.1c-1.413-1.389-2.868-2.816-4.343-4.2-.012-.01-.023-.016-.035-.026-.028-.023-.058-.045-.087-.065a1.493,1.493,0,0,0-.229-.149c-.019-.009-.033-.026-.053-.034-.078-.036-.154-.061-.232-.1a10.532,10.532,0,0,0-3.088,2.573c-.285.384-.577.766-.853,1.155-.173.236-.325.491-.482.747l-.192.309a1.133,1.133,0,0,0,.246,1.206l3.694,4.663c-.028.074-.057.137-.087.206a16.306,16.306,0,0,0-1.023,5.407c-1.573-.231-3.062-.431-4.535-.612-.389-.046-.641.214-.613.635a37.1,37.1,0,0,0,1.673,8.357,1.651,1.651,0,0,0,.961,1.034l4.776,1.634c.016.037.03.074.045.106a38.443,38.443,0,0,0,3.385,6.341l-2.121,3.208a.574.574,0,0,0-.056.142.522.522,0,0,0-.025.114.634.634,0,0,0-.021.1c0,.128.016.26.019.388q1.2,1.682,2.552,3.263c.1.113.194.225.295.338q1.446,1.621,2.986,3.135c.186.184.372.371.557.557l.314.316a1.5,1.5,0,0,0,.167.147l.1.079c.386.306.81.357,1.038.127l.07-.076c.018-.019.034-.041.046-.052,1.1-.8,2.021-1.5,2.857-2.188.042.035.087.068.129.1a33.53,33.53,0,0,0,5.945,3.741l1.36,4.92c.024.086.053.174.078.246l.865.127-.851-.077a1.689,1.689,0,0,0,.851.979l.066.03a23.688,23.688,0,0,0,7.751,1.769c.368.01.589-.266.543-.682l-.546-4.938.03,0a12.773,12.773,0,0,0,4.754-1.114l4.235,4.112c.016.015.034.025.051.039s.028.021.043.033a1.456,1.456,0,0,0,.3.2c.007,0,.013.01.02.013l.04.019a32.138,32.138,0,0,0,2.786-1.853,12.251,12.251,0,0,0,2.131-2.842,1.167,1.167,0,0,0-.269-1.182l-3.7-4.624c.025-.063.051-.126.076-.191a16.293,16.293,0,0,0,1.018-5.253l3.129.4,1.472.18c.382.039.627-.221.6-.636A31.633,31.633,0,0,0,804.756-536.626Z" fill="#fff" stroke="#4aa49d" stroke-miterlimit="10" stroke-width="2"/>
        <path id="Path_7457-2" data-name="Path 7457" d="M767.512-534.09a.625.625,0,0,0,.5.064l8.923-3.5,6,7.535a1.212,1.212,0,0,0,1.084.663l10.907-4.535v6.4a1.176,1.176,0,0,0,.643.98c.369.182.678.039.691-.321a.437.437,0,0,0,0-.047v-7.951a1.242,1.242,0,0,0-.667-.968l-8-3.671c-.369-.226-.714-.135-.772.2a1.14,1.14,0,0,0,.562,1.024.883.883,0,0,0,.211.1l6.338,2.908L783.57-530.9l-6.067-7.6a1.045,1.045,0,0,0-1.022-.593l-9.34,3.662c-.273.122-.311.518-.087.913A1.263,1.263,0,0,0,767.512-534.09Z" transform="translate(-1.82 -3.903)" fill="#4aa49d"/>
      </g>
      <g id="Group_5617-2" data-name="Group 5617" transform="translate(826.507 328.434) rotate(9)">
        <path id="Path_7456-2" data-name="Path 7456" d="M769.369-651.971c-.32-.15-.592-.038-.632.258l-1.206,9.061c-9.676,1.061-13.03,11.767-7.49,23.914a38.967,38.967,0,0,0,7.471,10.85l1.223,10.213a1.2,1.2,0,0,0,.632.837l16.413,7.528c.316.137.582.029.632-.258l1.224-9.091c5.1-.568,8.671-3.9,9.783-9.121l3.511,1.61c.343.146.619,0,.631-.337v-6.265a1.176,1.176,0,0,0-.631-.917l-3.511-1.61c-1.108-6.257-4.688-12.883-9.8-18.142l-1.2-10.165a1.2,1.2,0,0,0-.632-.838Zm.552,1.506,15.307,7.021,1.025,8.674c-5.493-5.1-11.865-8.026-17.358-7.961Zm7.653,11.028c10.458,4.8,18.937,17.1,18.937,27.481s-8.478,14.908-18.937,10.111-18.935-17.1-18.936-27.481,8.465-14.909,18.918-10.119l.018.008Zm13.314,18.012a.591.591,0,0,0-.473-.06l-8.442,3.314L776.3-625.3a1.146,1.146,0,0,0-1.026-.628l-10.319,4.291v-6.047a1.115,1.115,0,0,0-.609-.928c-.348-.172-.641-.037-.654.3a.421.421,0,0,0,0,.045v7.518a1.175,1.175,0,0,0,.632.917l7.574,3.474c.348.214.676.128.73-.193a1.076,1.076,0,0,0-.532-.969.828.828,0,0,0-.2-.091l-6-2.752,9.807-4.076,5.741,7.195a.986.986,0,0,0,.966.56l8.837-3.465c.258-.115.294-.489.081-.863A1.179,1.179,0,0,0,790.888-621.425Zm6.726,7.47,2.682,1.231v5.013l-2.681-1.23a18.32,18.32,0,0,0,.158-2.434,22.144,22.144,0,0,0-.158-2.579ZM768.9-606.51c5.493,5.1,11.865,8.027,17.358,7.961l-1.025,7.734-15.307-7.021Z" transform="translate(-757.37 652.037)" fill="#4aa49d"/>
      </g>
      <g id="Group_5702" data-name="Group 5702" transform="matrix(0.978, 0.208, -0.208, 0.978, 66.734, 938.895)">
        <path id="Path_7744" data-name="Path 7744" d="M881.674-611.906a2.552,2.552,0,0,0-2.031-1.136l-34.395,1.292a1.221,1.221,0,0,0-1.2.988,2.463,2.463,0,0,0,.52,1.946l7.269,9.788-.791,9.159a2.789,2.789,0,0,0,1.027,2.223,2.708,2.708,0,0,0,.88.516,1.6,1.6,0,0,0,1.231-.034l4.707-2.353,7.111,9.573a2.917,2.917,0,0,0,1.355,1.03,1.8,1.8,0,0,0,.406.094,1.244,1.244,0,0,0,1.389-.73l12.958-30.161A2.279,2.279,0,0,0,881.674-611.906Z" fill="#4aa49d"/>
        <path id="Path_7745" data-name="Path 7745" d="M850.831-593.087a.356.356,0,0,1-.371-.081.452.452,0,0,1-.182-.391l.678-7.859,4.481,6.034Z" transform="translate(2.353 4.365)" fill="#4aa49d"/>
        <path id="Path_7746" data-name="Path 7746" d="M880.218-611.237,867.26-581.063a.237.237,0,0,1-.249.131.488.488,0,0,1-.315-.2l-10.159-13.689,17.405-11.558-1.117-1.5-17.406,11.558-10.159-13.688a.467.467,0,0,1-.1-.352.206.206,0,0,1,.215-.177l34.406-1.287a.254.254,0,0,1,.124.021.52.52,0,0,1,.238.183A.4.4,0,0,1,880.218-611.237Z" transform="translate(0.429 0.455)" fill="#fff"/>
      </g>
    </g>
  </g>
</svg>
