<svg xmlns="http://www.w3.org/2000/svg" width="76.11" height="106.94" viewBox="0 0 76.11 106.94">
  <g id="Group_5806" data-name="Group 5806" transform="translate(-321.499 -3276.999)">
    <g id="Group_5634" data-name="Group 5634" transform="translate(0 40)">
      <path id="Path_7460" data-name="Path 7460" d="M85.61,47.71,71.5,58.28,52.8,30.08a1.21,1.21,0,0,0-1.1-.54c-1,.15-1.69-.09-2.19.59-.18.24-4.31,5.85-6.73,10-1.41,2.4-5.55,1.93-7.57,1.53l3.54-13.72a4.14,4.14,0,0,1,3.85-3.11l9.88-.43,13.74,6.39a1.24,1.24,0,0,0,.69.1L86.51,28a1.213,1.213,0,1,0-.35-2.4h0L66.91,28.44,53.24,22.08a1.257,1.257,0,0,0-.57-.11l-10.17.44c-5.83.25-6.36,6.31-6.53,6.61L23,33.39l-9.2-1.06a1.213,1.213,0,1,0-.27,2.41h0l9.41,1.08h.14a1.227,1.227,0,0,0,.38-.06l11.79-4L32.56,42.25a1.21,1.21,0,0,0,.82,1.46c.35.11,8.61,2.55,11.48-2.36,2-3.37,5.24-7.91,6.27-9.33h0l19,28.68a1.168,1.168,0,0,0,.35.35,1.327,1.327,0,0,0,.21.49,3.091,3.091,0,0,1,.52,2.31,3,3,0,0,1-1.25,2,3.11,3.11,0,0,1-4.33-.73l-5.52-7.76a1.224,1.224,0,1,0-2,1.41l4,5.67a1.817,1.817,0,0,0,.14.27,2.81,2.81,0,0,1-.659,3.919h0A3.29,3.29,0,0,1,57.42,68l-4.76-7.21a1.21,1.21,0,0,0-2.137,1.135,1.127,1.127,0,0,0,.137.205l3.5,5.29a.329.329,0,0,0,.06.1,4.819,4.819,0,0,1,.86,3.35,1.8,1.8,0,0,1-.81,1.26,2.73,2.73,0,0,1-3.8-.61l-4.72-7.21a1.21,1.21,0,0,0-2,1.33l4.13,6.3a1.819,1.819,0,0,0,.07.25A2.211,2.211,0,0,1,47,75.167l-.047.023c-1.43,1-3.47-.05-4.55-.77h-.08C39,72.51,33.8,68.76,24.39,62l-10-7.23a1.224,1.224,0,1,0-1.41,2l10,7.22c9.45,6.83,14.67,10.61,18,12.53A8.282,8.282,0,0,0,45.5,78a4.6,4.6,0,0,0,2.72-.85,5,5,0,0,0,2.16-2.69,5.118,5.118,0,0,0,5.23-.39,4.186,4.186,0,0,0,1.83-2.81v-.28a5.99,5.99,0,0,0,2.52.55,5.443,5.443,0,0,0,3.12-1,5.189,5.189,0,0,0,2-2.75,5.49,5.49,0,0,0,2.22.9,5.022,5.022,0,0,0,.94.08,5.51,5.51,0,0,0,4.59-8.54L87.06,49.65a1.211,1.211,0,0,0-1.45-1.94Z" transform="translate(309.548 3265.44)" fill="#4aa49d" stroke="#4aa49d" stroke-width="1"/>
      <g id="Group_5619" data-name="Group 5619" transform="translate(309.548 3265.44)">
        <path id="Path_7461" data-name="Path 7461" d="M74.4,16.664A34.373,34.373,0,0,0,50.5,6.588V-14.44H66a.5.5,0,0,0,.44-.264.5.5,0,0,0-.024-.513L62.6-20.94l3.815-5.723a.5.5,0,0,0,.024-.513A.5.5,0,0,0,66-27.44H50a.5.5,0,0,0-.5.5V6.588A34.377,34.377,0,0,0,25.6,16.664a.5.5,0,0,0,.708.707,33.539,33.539,0,0,1,47.376,0,.5.5,0,1,0,.707-.707ZM61.584-21.217a.5.5,0,0,0,0,.555l3.481,5.223H50.5v-11H65.065Z" fill="#4aa49d" stroke="#4aa49d" stroke-width="2"/>
      </g>
    </g>
    <ellipse id="Ellipse_404" data-name="Ellipse 404" cx="21.452" cy="21.452" rx="21.452" ry="21.452" transform="translate(340.996 3330.394)" fill="#76a19e" opacity="0.486"/>
  </g>
</svg>
