<svg xmlns="http://www.w3.org/2000/svg" width="53.948" height="67.821" viewBox="0 0 53.948 67.821">
  <g id="Group_5805" data-name="Group 5805" transform="translate(-337.596 -1946.67)">
    <ellipse id="Ellipse_402" data-name="Ellipse 402" cx="21.452" cy="21.452" rx="21.452" ry="21.452" transform="translate(337.596 1960.971)" fill="#76a19e" opacity="0.486"/>
    <g id="Group_5617" data-name="Group 5617" transform="translate(337.596 1946.67)">
      <path id="Path_7456" data-name="Path 7456" d="M29.643,6a.77.77,0,0,0-.771.674L27.4,18.5a24.652,24.652,0,0,0-.024,42.774l1.493,11.873a.8.8,0,0,0,.771.674H49.681a.8.8,0,0,0,.771-.674l1.494-11.873A24.685,24.685,0,0,0,63.891,44.535h4.287a.8.8,0,0,0,.771-.771V36.057a.8.8,0,0,0-.771-.771H63.891A24.7,24.7,0,0,0,51.921,18.5L50.452,6.674A.8.8,0,0,0,49.681,6Zm.674,1.541H49.007l1.252,10.092a24.739,24.739,0,0,0-21.194,0Zm9.345,9.248A23.121,23.121,0,1,1,16.541,39.911,23.11,23.11,0,0,1,39.662,16.79ZM55.919,31.433a.824.824,0,0,0-.578.193L45.033,40.465,38.1,34.9a.956.956,0,0,0-1.252-.193l-12.6,11.1V38.369a.771.771,0,1,0-1.541,0v9.248a.8.8,0,0,0,.771.771h9.248a.78.78,0,1,0,0-1.541H25.4L37.374,36.3l7.009,5.612a.854.854,0,0,0,1.18.144l10.79-9.248a.823.823,0,0,0,.1-1.107A.779.779,0,0,0,55.919,31.433Zm8.212,5.395h3.275v6.166H64.132a24.671,24.671,0,0,0,.193-3.083A24.976,24.976,0,0,0,64.132,36.828ZM29.065,62.189a24.739,24.739,0,0,0,21.194,0L49.007,72.28H30.317Z" transform="translate(-15 -6)" fill="#4aa49d"/>
    </g>
  </g>
</svg>
