<svg xmlns="http://www.w3.org/2000/svg" width="60.68" height="61.708" viewBox="0 0 60.68 61.708">
  <g id="Group_5804" data-name="Group 5804" transform="translate(-334.996 -2116.394)">
    <g id="Group_5618" data-name="Group 5618" transform="translate(334.996 2117.393)">
      <path id="Path_7457" data-name="Path 7457" d="M179,73.851a.824.824,0,0,0,.578-.193l10.308-8.839,6.936,5.564a.956.956,0,0,0,1.252.193l12.6-11.1v7.443a.771.771,0,1,0,1.541,0V57.666a.8.8,0,0,0-.771-.771H202.2a.78.78,0,1,0,0,1.541h7.322L197.55,68.986l-7.009-5.611a.855.855,0,0,0-1.18-.145l-10.79,9.248a.824.824,0,0,0-.1,1.108A.786.786,0,0,0,179,73.851Z" transform="translate(-165.47 -35.035)" fill="#4aa49d"/>
      <path id="Path_7458" data-name="Path 7458" d="M220.308,48.086a1.046,1.046,0,0,0-1.058-.646c-1.789.151-3.5.359-5.459.615l-.122-.241a24.336,24.336,0,0,0-3.714-5.361l2.5-4.952a1.021,1.021,0,0,0,.1-.309c0-.024.012-.046.015-.07a.934.934,0,0,0,.022-.113c0-.072-.009-.143-.01-.216a26.75,26.75,0,0,0-2.421-2.257,35.927,35.927,0,0,0-5.48-3.308,1.049,1.049,0,0,0-1.268.261c-1.195,1.41-2.3,2.834-3.479,4.381q-.231-.08-.465-.156a24.379,24.379,0,0,0-6.617-1.173l-1.59-4.937a1.323,1.323,0,0,0-1.326-1.073l-.2.006a19.885,19.885,0,0,0-3.81.526l-.116.029c-.171.043-.342.087-.516.116a16.654,16.654,0,0,0-3.77,1.115,1.356,1.356,0,0,0-.952,1.65l.623,5.064c-.1.051-.209.1-.314.156a24.38,24.38,0,0,0-5.467,3.811c-1.633-.863-3.313-1.746-5.016-2.569-.014-.006-.027-.006-.041-.012a.874.874,0,0,0-.1-.029,1.073,1.073,0,0,0-.264-.052c-.022,0-.039-.012-.062-.012-.09,0-.178.012-.268.012a24.105,24.105,0,0,0-3.567,4.642c-.33.6-.666,1.2-.986,1.8-.2.367-.375.744-.557,1.126l-.221.462a1.05,1.05,0,0,0,.284,1.272l4.267,3.456c-.032.1-.066.19-.1.286a24.322,24.322,0,0,0-1.183,6.839c-1.817.571-3.537,1.133-5.238,1.709A1.05,1.05,0,0,0,161.654,61a33,33,0,0,0,1.932,8.833,1.046,1.046,0,0,0,1.111.69l5.517-.647c.018.034.035.069.052.1a24.335,24.335,0,0,0,3.91,5.573l-2.45,4.865a1.033,1.033,0,0,0-.065.195.855.855,0,0,0-.029.146.945.945,0,0,0-.024.122c0,.149.018.294.021.442a28.664,28.664,0,0,0,2.949,2.435c.114.078.224.159.34.236a39.239,39.239,0,0,0,3.449,2.055c.216.114.43.234.644.351l.363.2a.962.962,0,0,0,.192.082l.118.038a1.047,1.047,0,0,0,1.2-.407l.081-.125c.021-.032.039-.066.054-.086,1.272-1.515,2.334-2.826,3.3-4.071.049.018.1.033.149.049a24.405,24.405,0,0,0,6.868,1.181l1.571,5c.028.087.062.173.09.244l1-.314-.984.365a1.047,1.047,0,0,0,.984.684c.024,0,.05,0,.076,0a27.277,27.277,0,0,0,8.955-2.079,1.052,1.052,0,0,0,.627-1.084l-.63-5.456.034-.017a24.426,24.426,0,0,0,5.493-3.835l4.892,2.525c.018.01.039.011.059.019s.032.009.049.015a1.03,1.03,0,0,0,.348.069c.008,0,.015.005.023.005l.046,0c.755-.785,1.791-1.937,3.219-3.643a26.582,26.582,0,0,0,2.462-4.446,1.048,1.048,0,0,0-.311-1.232l-4.273-3.406c.029-.087.059-.175.087-.263a24.421,24.421,0,0,0,1.177-6.657l3.614-1.2,1.7-.576a1.05,1.05,0,0,0,.692-1.06A27.867,27.867,0,0,0,220.308,48.086ZM214.961,58a1.052,1.052,0,0,0-.717.99,22.329,22.329,0,0,1-1.089,6.774c-.1.3-.207.606-.317.9a1.052,1.052,0,0,0,.331,1.181l4.222,3.364a30.072,30.072,0,0,1-3.753,5.827l-4.8-2.477a1.042,1.042,0,0,0-1.216.186,22.211,22.211,0,0,1-5.524,3.987c-.218.11-.438.217-.66.324a1.048,1.048,0,0,0-.59,1.068l.624,5.4a25.059,25.059,0,0,1-6.752,1.551L193.1,81.911a1.05,1.05,0,0,0-1-.734h-.143a22.274,22.274,0,0,1-6.85-1.087c-.271-.089-.539-.183-.806-.281a1.043,1.043,0,0,0-1.194.351c-.988,1.3-2.071,2.652-3.393,4.238-.121-.066-.243-.133-.365-.2a35.313,35.313,0,0,1-5.216-3.342c-.067-.052-.133-.107-.2-.161l2.448-4.862a1.049,1.049,0,0,0-.195-1.212,22.247,22.247,0,0,1-4.053-5.59c-.123-.241-.239-.482-.352-.727a1.051,1.051,0,0,0-1.073-.6l-5.418.637a30.993,30.993,0,0,1-1.476-6.683c1.659-.556,3.348-1.1,5.139-1.658A1.05,1.05,0,0,0,169.69,59a22.183,22.183,0,0,1,1.089-6.962c.1-.31.207-.613.321-.917a1.049,1.049,0,0,0-.324-1.178l-4.2-3.4c.123-.257.247-.511.381-.761.528-.991,1.061-1.977,1.618-2.951a7.162,7.162,0,0,1,.606-.847c.337-.422.681-.841,1.03-1.265l.018-.023c1.567.775,3.124,1.6,4.633,2.4l.24.128a1.047,1.047,0,0,0,1.227-.18,22.217,22.217,0,0,1,5.507-3.97c.308-.156.617-.305.929-.448a1.049,1.049,0,0,0,.6-1.083l-.668-5.425a14.328,14.328,0,0,1,2.942-.829c.231-.039.458-.1.682-.153l.109-.027a17.1,17.1,0,0,1,2.97-.439l1.686,5.233a1.05,1.05,0,0,0,.993.728,22.267,22.267,0,0,1,6.746,1.088q.556.18,1.1.389a1.046,1.046,0,0,0,1.212-.344c1.16-1.526,2.229-2.92,3.348-4.276a30.309,30.309,0,0,1,5.745,3.773l-2.482,4.911a1.049,1.049,0,0,0,.185,1.2,22.261,22.261,0,0,1,3.866,5.4c.146.287.284.578.419.869a1.056,1.056,0,0,0,1.089.6c1.962-.26,3.643-.475,5.34-.635a25.629,25.629,0,0,1,1.52,6.662Z" transform="translate(-161.652 -28.531)" fill="#4aa49d"/>
    </g>
    <ellipse id="Ellipse_403" data-name="Ellipse 403" cx="21.452" cy="21.452" rx="21.452" ry="21.452" transform="translate(334.996 2116.394)" fill="#76a19e" opacity="0.486"/>
  </g>
</svg>
