<svg xmlns="http://www.w3.org/2000/svg" width="82.089" height="82.196" viewBox="0 0 82.089 82.196">
  <g id="Group_5807" data-name="Group 5807" transform="translate(-314.931 -4731.918)">
    <g id="Group_5620" data-name="Group 5620" transform="translate(313.964 4730.951)">
      <path id="Path_7462" data-name="Path 7462" d="M77.469,55.489l-1.284-.128a41.392,41.392,0,0,0-3.337-39.408l2.311.385a1.143,1.143,0,0,0,1.412-1.027A1.2,1.2,0,0,0,75.543,13.9L70.152,13h-.128a1.348,1.348,0,0,0-1.155.642v.128c0,.128-.128.128-.128.257l-.9,5.391a1.2,1.2,0,0,0,1.027,1.412h.257A1.25,1.25,0,0,0,70.409,19.8l.385-2.311a38.652,38.652,0,0,1,2.824,37.483H73.49l-.77-1.925,2.439-3.209a1.2,1.2,0,0,0-.128-1.669l-3.979-3.979a1.209,1.209,0,0,0-1.669-.128L66.173,46.5a12.047,12.047,0,0,0-1.925-.77l-.513-3.979A1.365,1.365,0,0,0,62.45,40.6H56.674a1.365,1.365,0,0,0-1.284,1.155l-.513,3.979-1.925.77-3.209-2.439a1.2,1.2,0,0,0-1.669.128l-3.979,3.979a1.209,1.209,0,0,0-.128,1.669L46.4,53.05l-.77,1.925-3.979.513A1.365,1.365,0,0,0,40.5,56.772V62.42A1.365,1.365,0,0,0,41.655,63.7l3.979.513.77,1.925-2.439,3.337a1.2,1.2,0,0,0,.128,1.669l3.979,3.979a1.209,1.209,0,0,0,1.669.128l3.209-2.439,1.925.77h0a38.74,38.74,0,0,1-39.921-4.621,1.284,1.284,0,1,0-1.54,2.054A40.942,40.942,0,0,0,38.831,79.75a40.157,40.157,0,0,0,16.431-3.466l.128,1.284a1.365,1.365,0,0,0,1.284,1.155h5.648a1.365,1.365,0,0,0,1.284-1.155l.513-3.979,1.925-.77,3.209,2.439a1.2,1.2,0,0,0,1.669-.128L74.9,71.149a1.209,1.209,0,0,0,.128-1.669l-2.439-3.209.77-1.925,3.979-.513A1.365,1.365,0,0,0,78.5,62.549V56.9A1.2,1.2,0,0,0,77.469,55.489Zm-1.412,5.776-3.723.513a1.244,1.244,0,0,0-1.027.9,11.774,11.774,0,0,1-1.155,2.952,1.167,1.167,0,0,0,.128,1.412l2.311,3.081-2.439,2.439L67.2,70.251a1.406,1.406,0,0,0-1.412-.128,11.774,11.774,0,0,1-2.952,1.155,1.089,1.089,0,0,0-.9,1.027l-.513,3.723H58.086L57.572,72.3a1.244,1.244,0,0,0-.9-1.027,11.774,11.774,0,0,1-2.952-1.155,1.167,1.167,0,0,0-1.412.128l-3.081,2.311L46.79,70.122,49.1,67.042a1.406,1.406,0,0,0,.128-1.412,11.774,11.774,0,0,1-1.155-2.952,1.089,1.089,0,0,0-1.027-.9l-3.723-.513V57.928l3.723-.513a1.244,1.244,0,0,0,1.027-.9,11.774,11.774,0,0,1,1.155-2.952,1.167,1.167,0,0,0-.128-1.412L46.79,49.071l2.439-2.439,3.081,2.311a1.406,1.406,0,0,0,1.412.128,11.774,11.774,0,0,1,2.952-1.155,1.089,1.089,0,0,0,.9-1.027l.513-3.723h3.337l.513,3.723a1.244,1.244,0,0,0,.9,1.027,11.774,11.774,0,0,1,2.952,1.155,1.167,1.167,0,0,0,1.412-.128l2.952-2.311,2.439,2.439L70.28,52.151a1.406,1.406,0,0,0-.128,1.412,11.774,11.774,0,0,1,1.155,2.952,1.089,1.089,0,0,0,1.027.9l3.723.513Z" transform="translate(3.384 3.413)" fill="#4aa49d"/>
      <path id="Path_7463" data-name="Path 7463" d="M50.959,43.1a7.959,7.959,0,1,0,7.959,7.959A7.916,7.916,0,0,0,50.959,43.1Zm0,13.35a5.391,5.391,0,1,1,5.391-5.391A5.424,5.424,0,0,1,50.959,56.45Z" transform="translate(11.923 11.951)" fill="#4aa49d"/>
      <path id="Path_7464" data-name="Path 7464" d="M30.728,7.3a16.321,16.321,0,0,0-11.3,27.213,20.738,20.738,0,0,1,3.723,5.9,1.475,1.475,0,0,0-.77,1.155V47.1a1.213,1.213,0,0,0,1.284,1.284h.9a6.932,6.932,0,1,0,13.863,0h.9A1.213,1.213,0,0,0,40.612,47.1v-5.52a1.234,1.234,0,0,0-.77-1.155,21.844,21.844,0,0,1,3.723-5.9C53.192,23.863,45.361,6.662,30.728,7.3Zm7.317,35.685v2.952H24.951V42.989Zm-2.182,5.391a4.364,4.364,0,1,1-8.729,0h8.729Zm1.284-7.959H33.038V30.281l3.209-3.209a1.271,1.271,0,1,0-1.8-1.8l-2.7,2.7-2.7-2.7a1.271,1.271,0,1,0-1.8,1.8l3.209,3.209V40.422h-4.75a26.846,26.846,0,0,0-4.493-7.574C13.4,24.12,19.56,10.513,30.728,10c12.195-.642,19,13.863,10.911,22.849A23.7,23.7,0,0,0,37.146,40.422Z" transform="translate(4.042 1.793)" fill="#4aa49d"/>
      <path id="Path_7465" data-name="Path 7465" d="M13.649,11.92c.513.257-.257,0,5.648,1.027a1.235,1.235,0,0,0,.385-2.439L17.5,9.995a38.181,38.181,0,0,1,44.928,1.8,1.824,1.824,0,0,0,.77.257,1.167,1.167,0,0,0,1.027-.513,1.256,1.256,0,0,0-.257-1.8,40.685,40.685,0,0,0-48.008-1.8l.385-2.311a1.2,1.2,0,0,0-1.027-1.412,1.143,1.143,0,0,0-1.412,1.027c-.128.513.257-1.925-.9,5.391A1.125,1.125,0,0,0,13.649,11.92Z" transform="translate(3.406 0)" fill="#4aa49d"/>
      <path id="Path_7466" data-name="Path 7466" d="M11.92,56.645a1.143,1.143,0,0,0-1.412,1.027l-.513,2.311a38.181,38.181,0,0,1,1.8-44.928,1.284,1.284,0,1,0-2.054-1.54,40.685,40.685,0,0,0-1.8,48.008l-2.182-.385a1.143,1.143,0,0,0-1.412,1.027,1.2,1.2,0,0,0,1.027,1.412l5.391.9a1.2,1.2,0,0,0,1.412-1.027l.9-5.391A1.5,1.5,0,0,0,11.92,56.645Z" transform="translate(0 3.412)" fill="#4aa49d"/>
    </g>
    <ellipse id="Ellipse_405" data-name="Ellipse 405" cx="29.452" cy="29.452" rx="29.452" ry="29.452" transform="translate(326.996 4743.394)" fill="#76a19e" opacity="0.486"/>
  </g>
</svg>
