<svg xmlns="http://www.w3.org/2000/svg" xmlns:xlink="http://www.w3.org/1999/xlink" width="90.957" height="72.592" viewBox="0 0 124.957 72.592">
  <defs>
    <linearGradient id="linear-gradient" y1="0.5" x2="0.909" y2="0.5" gradientUnits="objectBoundingBox">
      <stop offset="0" stop-color="#1d48e0"/>
      <stop offset="1" stop-color="#1b4be3"/>
    </linearGradient>
  </defs>
  <g id="Group_1729" data-name="Group 1729" transform="translate(1837 4702)">
    <path id="Path_1254" data-name="Path 1254" d="M61.331,41.782h0L49.089,31.08c-.061-.05-.119-.1-.177-.156l-.512-.446.011-.055a6.864,6.864,0,0,1-1.733-4.283,5.886,5.886,0,0,1,1.859-4.446c.535-.525,12.537-10.989,12.991-11.343A5.779,5.779,0,0,0,57.987,0,5.836,5.836,0,0,0,56.8.121V0L2.136,22.931a3.483,3.483,0,0,0,0,6.424L56.8,52.286v-.121a5.791,5.791,0,0,0,6.97-5.665A5.776,5.776,0,0,0,61.331,41.782Z" transform="translate(-1837 -4702)" fill="url(#linear-gradient)"/>
    <path id="Path_1256" data-name="Path 1256" d="M61.331,41.782h0L49.089,31.08c-.061-.05-.119-.1-.177-.156l-.512-.446.011-.055a6.864,6.864,0,0,1-1.733-4.283,5.886,5.886,0,0,1,1.859-4.446c.535-.525,12.537-10.989,12.991-11.343A5.779,5.779,0,0,0,57.987,0,5.836,5.836,0,0,0,56.8.121V0L2.136,22.931a3.483,3.483,0,0,0,0,6.424L56.8,52.286v-.121a5.791,5.791,0,0,0,6.97-5.665A5.776,5.776,0,0,0,61.331,41.782Z" transform="translate(-1712.043 -4629.408) rotate(180)" fill="url(#linear-gradient)"/>
  </g>
</svg>
