<svg xmlns="http://www.w3.org/2000/svg" xmlns:xlink="http://www.w3.org/1999/xlink" width="1922" height="740" viewBox="0 0 1922 740">
  <defs>
    <clipPath id="clip-path">
      <rect id="Rectangle_1295" data-name="Rectangle 1295" width="1922" height="740" transform="translate(1)" fill="#fff"/>
    </clipPath>
    <radialGradient id="radial-gradient" cx="0.367" cy="0.2" r="0.534" gradientTransform="matrix(0.694, 0.59, -0.435, 0.694, 0.2, -0.155)" gradientUnits="objectBoundingBox">
      <stop offset="0" stop-color="#dac265"/>
      <stop offset="1" stop-color="#4aa49d"/>
    </radialGradient>
    <linearGradient id="linear-gradient" x1="0.915" y1="0.123" x2="0.28" y2="0.914" gradientUnits="objectBoundingBox">
      <stop offset="0" stop-color="#a2c9c3"/>
      <stop offset="1" stop-color="#2a5653"/>
    </linearGradient>
    <linearGradient id="linear-gradient-2" x1="0.933" y1="0.518" x2="0.276" y2="0.915" gradientUnits="objectBoundingBox">
      <stop offset="0" stop-color="#a2c9c3"/>
      <stop offset="1" stop-color="#358680"/>
    </linearGradient>
    <linearGradient id="linear-gradient-3" x1="0.5" x2="0.5" y2="1" gradientUnits="objectBoundingBox">
      <stop offset="0" stop-color="#a2c9c3"/>
      <stop offset="1" stop-color="#25524f"/>
    </linearGradient>
    <linearGradient id="linear-gradient-4" x1="0.895" y1="0.833" x2="-0.336" gradientUnits="objectBoundingBox">
      <stop offset="0" stop-color="#3a6673"/>
      <stop offset="1" stop-color="#4aa49d"/>
    </linearGradient>
  </defs>
  <g id="Mask_Group_62" data-name="Mask Group 62" transform="translate(-1)" clip-path="url(#clip-path)">
    <g id="Group_5791" data-name="Group 5791">
      <path id="Path_7332" data-name="Path 7332" d="M1459.514,1749.207,963.42,1806.357c-367.5,42.336-728.056-236.652-719.733-556.893l11.306-434.257C265.268,420.36,807.4,266.7,1176.7,553.969l484.8,377.093C2029.583,1217.374,1911.116,1697.192,1459.514,1749.207Z" transform="translate(2941.646 -618.044) rotate(110)" fill="url(#radial-gradient)"/>
      <ellipse id="Ellipse_395" data-name="Ellipse 395" cx="61.506" cy="100.78" rx="61.506" ry="100.78" transform="translate(1289.542 277.61) rotate(-29.072)" fill="none" stroke="#a2c9c3" stroke-miterlimit="10" stroke-width="2" opacity="0.635"/>
      <path id="Path_7916" data-name="Path 7916" d="M5747.653,997.232V947.482L5618.872,950.6l1.447,50.336.684-.017c1.061,20.279,29.579,35.947,64.208,35.109,34.65-.84,62.386-17.89,62.431-38.212h.012Z" transform="translate(-4325.516 -530.473)" fill="url(#linear-gradient)"/>
      <ellipse id="Ellipse_431-2" data-name="Ellipse 431-2" cx="64.41" cy="37.892" rx="64.41" ry="37.892" transform="translate(1292.438 382.249) rotate(-1.388)" fill="#94beb6" stroke="#3e958c" stroke-miterlimit="10" stroke-width="2"/>
      <path id="Path_7835" data-name="Path 7835" d="M6053.691,1055.767a.986.986,0,0,0,.608.411Z" transform="translate(-4747.887 -539.585)" fill="#00514b"/>
      <path id="Path_7907" data-name="Path 7907" d="M6053.691,1055.767a.864.864,0,0,0,.533.359Z" transform="translate(-4734.608 -547.785)" fill="#00514b"/>
      <path id="Path_7861" data-name="Path 7861" d="M5972.83,710.023c1.844-5.447,5.641-9.718,8.756-14.387a116.073,116.073,0,0,1,8.067-11.077c5.9-6.9,5.766-15.385,6.663-23.614.108-1-.531-2.091-.824-3.141.085-1.993.3-4-.73-5.856.054-3.761.154-7.517,1.345-11.141,3.337,1.02,4.66,3.188,4.179,6.7-.221,1.608-.386,3.963,2.311,3.534,3.411-.542,5.646,1.317,8.027,3.1,3.529,4.811,8,4.811,14.462,0,6.748-4.322,10.451-10.666,12.175-18.324,16.537,7.811,27.809,19.65,30.648,38.526,1.2,7.943,3.5,15.722,4.2,23.774.054.63.189,1.252.257,1.88,1.792,16.665-1.218,21.7-16.69,27.932a11.374,11.374,0,0,1-2.641,1.029c-5.722.7-7.787,4.219-7.948,9.6-.063,2.088.1,4.569-2.372,5.805-5.561-.232-11.16.256-16.672-.9a26.837,26.837,0,0,1-6.8-3.795c2.986-2.841,1.708-10.455-2.172-11.369-6.5-1.531-13.076-3.555-19.821-1L5993,724.255c2.711-6.86,5.454-13.709,8.112-20.591.649-1.677,2.036-3.29.927-5.292.152-.008.3-.024.447-.04l-.385.112c-6.753,4.731-12.491,10.768-19.5,15.167C5980.048,710.5,5976.455,710.218,5972.83,710.023Zm80.255-9.662c-1.36,4.828-3.3,8.515-3.462,12.9C6056.006,710.675,6056.006,710.675,6053.085,700.361Z" transform="translate(-4652.307 -342.275)" fill="#3b6a75"/>
      <path id="Path_7865" data-name="Path 7865" d="M5989.856,629.647q-.155-3.471-.31-6.943a32.035,32.035,0,0,1,10.8-19.247c13.552-6.3,29.032-3.628,32.175,17.293q-.5,3.3-1,6.591c-4.949-2.329-5.954,2.066-7.421,4.771-1.386,2.557-2.534,2.967-5.136,1.8a18.027,18.027,0,0,0-15.523.145c-2.988,1.4-5.9,1.99-9.07.934l-3.616-2.913.058.089C5990.624,631.276,5990.9,630.209,5989.856,629.647Z" transform="translate(-4653.117 -340.561)" fill="#3b6a75"/>
      <path id="Path_7866" data-name="Path 7866" d="M6035.754,767.6c-7.675,8.406-17.933,13.127-27.289,19.138-1.707,1.1-3.337,2.313-5,3.476-3.781,2.188-7.46,4.588-11.375,6.5-3.881,1.9-4.624,4.155-1.851,7.493l2.138,7.336-.087,11c-1.925,8.546-3.783,17.089-5.146,25.763-.972,6.18.474,12.548-1.805,18.554q-1.392.448-2.778.9c.022-12.826,1.349-25.533,2.9-38.259,1.037-8.532,3.852-17.166,1.029-25.815-1.639-5.023.531-7.621,4.578-9.941a192.868,192.868,0,0,0,24.672-16.852c3.109-2.491,6.9-4.768,7.3-9.483,3.349-1.985,6.737-3.9,10.027-5.981,1.737-1.1,4.4-1.177,4.717-3.981.143-2.293-1.927-2.733-3.263-3.571-2.65-1.661-5.607-2.828-8-4.926,5.511,1.153,11.11.665,16.671.9A47,47,0,0,1,6035.754,767.6Z" transform="translate(-4652.777 -347.761)" fill="#3b6a75"/>
      <path id="Path_7920" data-name="Path 7920" d="M-7755.918-13352.815l23.932,15.381,10.128,37.552,41.348-23.345-53.939-31.357h-9.908Z" transform="translate(9066 13732)" fill="#00514b"/>
      <path id="Path_7867" data-name="Path 7867" d="M5994.616,636.326c3.166,1.056,6.082.466,9.07-.934a18.03,18.03,0,0,1,15.524-.145c2.6,1.169,3.749.758,5.135-1.8,1.467-2.705,2.473-7.1,7.421-4.771a35.422,35.422,0,0,0,6.552,6.757c-1.727,7.659-5.43,14-12.177,18.324a17.794,17.794,0,0,0-.089-2.344c-.235-1.45.825-3.5-1.018-4.207-1.74-.67-2.665,1.26-3.742,2.282a14.332,14.332,0,0,1-9.614,4.269c-2.381-1.779-4.614-3.639-8.026-3.1-2.7.429-2.531-1.926-2.312-3.534.482-3.51-.84-5.678-4.18-6.7C5996.3,639.071,5994.856,638.071,5994.616,636.326Z" transform="translate(-4653.361 -341.897)" fill="#a2c9c3"/>
      <path id="Path_7870" data-name="Path 7870" d="M5985.131,724.493a28,28,0,0,1-1.729,9.271c-.513,1.267-1.308,2.916-3,2.442-1.458-.408-1.215-2.02-1.069-3.294.054-.47.211-.929.258-1.4.213-2.152,1.207-4.949-1.524-5.8-2.4-.742-2.658,2.253-3.331,3.713-1.1,2.385-2.151,2.642-4.2,1.193-2.821-1.993-5.777-3.794-8.671-5.676,1.445-5.62,6.549-7.813,10.439-11.142,3.627.2,7.221.475,9.774,3.587Q5983.6,720.94,5985.131,724.493Z" transform="translate(-4651.775 -346.057)" fill="#a2c9c3"/>
      <path id="Path_7880" data-name="Path 7880" d="M5983.462,873.993c2.425,3.031.859,5.427-1.315,7.618-1.61,1.624-3.381,3.09-5.08,4.626-4.344,4.584-7.316,10.535-13.372,13.414-.715-.06-1.439-.144-1.826.676-4.933,1.417-9.929,1.767-14.821.1-4-1.366-4.3-3.709-1.17-6.818,2.431.1,4.569,1.145,6.715,2.128,6.76,3.1,9.511,3.129,14.113-2.664C5972,886.414,5978.648,881.016,5983.462,873.993Z" transform="translate(-4650.896 -353.824)" fill="#b1dce1"/>
      <path id="Path_7883" data-name="Path 7883" d="M6019.921,744.27c-2.457,1.67-5.261,2.033-8.123,2.117-4.456.13-8.33,1.4-11.13,5.154-.721.965-1.911,2.422-3.033,1.614-1.528-1.1-.163-2.664.6-3.714,1.381-1.894,3.038-3.585,4.884-5.713-3.34.2-5.252,2.2-7.323,3.885-1.563,1.269-2.9,3.076-5.337,2.123q-1.783-4.106-3.566-8.214c3.023-3.956,6.188-7.75,11.033-9.617,6.746-2.558,13.32-.534,19.821,1C6021.628,733.815,6022.907,741.429,6019.921,744.27Z" transform="translate(-4652.987 -346.875)" fill="#a2c9c3"/>
      <path id="Path_7885" data-name="Path 7885" d="M6012.548,654.729a14.331,14.331,0,0,0,9.614-4.269c1.077-1.022,2-2.952,3.742-2.282,1.843.71.782,2.757,1.018,4.207a17.709,17.709,0,0,1,.089,2.344C6020.553,659.54,6016.078,659.54,6012.548,654.729Z" transform="translate(-4654.23 -342.868)" fill="#3b6a75"/>
      <path id="Path_7887" data-name="Path 7887" d="M6003.594,701.63l.385-.112c-.147.016-.295.031-.447.04Z" transform="translate(-4653.794 -345.461)" fill="#feffff"/>
      <path id="Path_7888" data-name="Path 7888" d="M5952.761,846.837a7.4,7.4,0,0,1,.59,6.588,21.756,21.756,0,0,1-9.535,3.744,15.554,15.554,0,0,0-11.725,6.911,27.371,27.371,0,0,1-3.048,3.59c-5.96,5.813-16.01,4.033-18.448-3.23,0-1.524,1.422-2.166,2.038-3.306,6.433-4.139,12.27-9.187,19.173-12.615,2.33,1.174,4.854,1.1,7.361,1.138C5943.98,850.071,5948.589,849.511,5952.761,846.837Z" transform="translate(-4649.288 -352.508)" fill="#3b6a75"/>
      <path id="Path_7889" data-name="Path 7889" d="M5945.849,892c5.566-6.288,12.687-11.12,17.22-18.375,5.866,4.281,11.782,2.876,17.708.15q1.39-.451,2.78-.9c0,.356.006.712.006,1.068-4.813,7.024-11.466,12.422-16.754,19.076-4.6,5.793-7.354,5.763-14.113,2.664a18.048,18.048,0,0,0-6.716-2.128Q5945.914,892.773,5945.849,892Z" transform="translate(-4650.996 -353.77)" fill="#3b6a75"/>
      <path id="Path_7890" data-name="Path 7890" d="M5910.542,864.776c2.437,7.263,12.487,9.043,18.449,3.23a27.361,27.361,0,0,0,3.046-3.59,15.556,15.556,0,0,1,11.725-6.911,21.754,21.754,0,0,0,9.535-3.744c1.009,3.741-2.15,4.59-4.284,4.875-7.606,1.015-12.709,5.582-17.5,10.95-2.969,3.328-7.171,4.359-11.329,5.331-1.1-.038-2.2-.093-3.3-.11C5909.913,874.692,5908.082,871.8,5910.542,864.776Z" transform="translate(-4649.234 -352.844)" fill="#b1dce1"/>
      <path id="Path_7897" data-name="Path 7897" d="M5964.74,764.328l-2.139-1.578c1.49-3.581,5-2.574,7.6-2.961,5.387-.8,10.877-.912,16.324-1.3,2.465,6.975,4.932,13.946,5.657,21.378-5.11-1.891-9.406-5.217-14.047-7.934C5973.705,769.335,5969.559,766.239,5964.74,764.328Z" transform="translate(-4651.81 -348.224)" fill="#2f1d1a"/>
      <path id="Path_7898" data-name="Path 7898" d="M5993.243,779.068c-.725-7.432-3.192-14.4-5.657-21.378-.2-3.645-1.6-7.007-2.4-10.506-.411-1.8-2.133-4.428,1.587-5.113l3.565,8.216c-1.3,1.057-.564,2.188-.228,3.4,2.331,8.421,4.6,16.86,6.888,25.291a1.688,1.688,0,0,0-.7,1.855,2.48,2.48,0,0,1-2.247-1.019q-.415-.435-.828-.871Z" transform="translate(-4652.868 -347.428)" fill="#00514b"/>
      <path id="Path_7899" data-name="Path 7899" d="M5957.871,749.952c-2.817-.245-7.289-6.232-6.636-8.92.368-1.513,1.334-1.971,2.85-1.609,2.689.64,6.411,5.622,6.15,8.318C5960.095,749.188,5959.554,750.174,5957.871,749.952Z" transform="translate(-4651.255 -347.293)" fill="#00514b"/>
      <path id="Path_7900" data-name="Path 7900" d="M5963.674,764.626c4.819,1.911,8.965,5.007,13.394,7.6a7.3,7.3,0,0,0-4.333,1.236l-9.146,3.53-1.1.288c-1.6.552-3.2,1.082-4.787,1.659-5.53,2.012-5.528,2.018-2.871,7.591q.612,2.878,1.224,5.755-.231,4.387-.461,8.776c-2.308,13.868-3.914,27.76-1.374,41.788-4.17,2.674-8.78,3.234-13.593,2.819,2.187-18.6.985-37.279.931-55.913-.02-6.723,2.185-11.052,7.666-14.415A97.279,97.279,0,0,0,5963.674,764.626Z" transform="translate(-4650.744 -348.521)" fill="#3b6a75"/>
      <path id="Path_7902" data-name="Path 7902" d="M6023.723,767.842c-7.359,4.256-14.709,8.533-22.092,12.75-1.433.818-2.817,2.272-4.729,1.008a1.693,1.693,0,0,1,.7-1.855c2.063.374,3.585-.811,5.216-1.757q16.715-9.693,33.463-19.325a12.736,12.736,0,0,1,2.186-.783c-.317,2.8-2.983,2.884-4.72,3.981C6030.461,763.939,6027.072,765.857,6023.723,767.842Z" transform="translate(-4653.471 -348.194)" fill="#00514b"/>
      <path id="Path_7906" data-name="Path 7906" d="M5994.5,781.694c-.525-.053-.918-.232-.829-.871C5993.95,781.113,5994.228,781.4,5994.5,781.694Z" transform="translate(-4653.315 -349.307)" fill="#2f1d1a"/>
      <path id="Path_7908" data-name="Path 7908" d="M6048.718,928.862c-.284.343-.568.687-.851,1.03Q6048.291,929.376,6048.718,928.862Z" transform="translate(-4655.944 -356.485)" fill="#0092d8"/>
      <path id="Path_7909" data-name="Path 7909" d="M5960.857,762.451q-8.466-5.058-16.932-10.116l-4.172,3.674a5.061,5.061,0,0,1-1.149,1.575c-3.713,3.861-7.336,7.81-10.994,11.724q-.49,2.648-.979,5.3.442,5.686.884,11.372c2.755,19.227,5.466,38.457,5.069,57.96,2.33,1.174,4.853,1.1,7.359,1.138,2.188-18.6.987-37.279.933-55.913-.021-6.723,2.185-11.052,7.665-14.415A97.262,97.262,0,0,0,5963,764.03Z" transform="translate(-4650.066 -347.925)" fill="#94beb6"/>
      <g id="Group_5711" data-name="Group 5711" transform="translate(1312.071 419.648)">
        <path id="Path_7910" data-name="Path 7910" d="M5993.673,780.823a.722.722,0,0,0,.007.12l.01,0Z" transform="translate(-5965.386 -768.955)" fill="#94beb6"/>
        <path id="Path_7911" data-name="Path 7911" d="M6000.035,781.1c-1.433.818-2.818,2.272-4.728,1.008a2.478,2.478,0,0,1-2.245-1.019c-.485-.049-.84-.223-.822-.751-5.1-1.892-9.4-5.215-14.042-7.931a7.315,7.315,0,0,0-4.333,1.237c1.374,1.228,2.5,2.3.4,4.063a41.889,41.889,0,0,0-6.821,7.35c-1.875,3.429-4,11.1-.732,26.889h0l.005.029a89.863,89.863,0,0,1,1.954,16.308,79.94,79.94,0,0,1-2.7,28.827v.01l-2.024,11.432c5.867,4.281,11.783,2.876,17.71.149.022-12.826,1.349-25.533,2.9-38.259,1.037-8.532,3.853-17.167,1.029-25.815-1.64-5.023.53-7.621,4.577-9.941a192.9,192.9,0,0,0,24.674-16.852c3.109-2.491,6.9-4.768,7.3-9.483C6014.767,772.606,6007.418,776.883,6000.035,781.1Z" transform="translate(-5963.946 -768.35)" fill="#94beb6"/>
      </g>
      <path id="Path_7913" data-name="Path 7913" d="M5982.169,745.324c-.348-1.522-2.025-4.49,1.586-5.112L5968.6,730.134c-1.9-1.343-3.863-2.6-5.826-3.85-.951-.607-1.9-1.212-2.847-1.826l-4.051-2.368q-14.678-8.579-29.368-17.144c-1.029-.6-2.053-1.794-3.4-.925-1.542.993-.9,2.444-.551,3.825,1,3.946,6.795,24.749,8.653,31.216.721,2.508,1.778,4.591,4.191,6,7.5,4.377,14.936,8.863,22.386,13.326h0l.222.13,2.63,1.577.011-.022,30.386,17.883-6.821-24.84C5983.7,750.479,5982.767,747.939,5982.169,745.324Zm-23.342.691c-.141,1.447-.682,2.433-2.361,2.215-2.819-.248-7.291-6.236-6.639-8.924.367-1.513,1.333-1.971,2.85-1.609C5955.365,738.337,5959.087,743.32,5958.827,746.015Z" transform="translate(-4649.846 -345.567)" fill="#fff"/>
      <ellipse id="Ellipse_431" data-name="Ellipse 431" cx="80.607" cy="47.42" rx="80.607" ry="47.42" transform="matrix(0.998, 0.063, -0.063, 0.998, 1011.562, 436.698)" fill="url(#linear-gradient-2)"/>
      <ellipse id="Ellipse_431-2-2" data-name="Ellipse 431" cx="80.607" cy="47.42" rx="80.607" ry="47.42" transform="matrix(0.998, 0.063, -0.063, 0.998, 1012.545, 425.465)" fill="#a2c9c3" stroke="#4aa49d" stroke-miterlimit="10" stroke-width="2"/>
      <path id="Path_7748" data-name="Path 7748" d="M6700.588,807.017c-5.445,8.887-12.1,16.668-21.338,21.747-8.21,4.514-16.98,6.123-26.278,3.7a26.26,26.26,0,0,0-5.041-.335l-20.622-3.592a70.371,70.371,0,0,0-8.888-1.831c-3.109-.257-4.733-1.67-5.325-4.576.246-2.247-.041-4.741.861-6.68,1.388-2.98-.134-3.829-2.324-4.508-2.726-.844-5.691-.949-8.114-2.706a137.806,137.806,0,0,0-14.571-15.831,87.064,87.064,0,0,1-12.534-15.15c-2.155-7.214-1.291-8.728,7.335-12.852,2.309,5.059,2.961,10.619,4.787,15.823.431,2.887,2.443,4.357,4.778,5.755,10.747,6.433,21.428,12.976,32.133,19.48l.966.7-.036-.041c-.081,6,4.009,4.908,7.685,4.513,3.081.706,5.461,4.421,9.214,2.23q15.807-9.231,31.586-18.51c6.507-.5,12.635-1.983,17.477-6.776C6698.164,792.753,6700.433,799.437,6700.588,807.017Z" transform="translate(-5551.201 -334.229)" fill="#4aa49d"/>
      <path id="Path_7749" data-name="Path 7749" d="M6625.873,804.387c-10.705-6.5-21.386-13.047-32.133-19.48-2.334-1.4-4.348-2.868-4.777-5.756,5.232.59,10.319-1.119,15.522-.99.03.767.019,1.538.1,2.3.3,2.912,2.216,4.621,4.611,5.84a1.585,1.585,0,0,0,2.348-.736c.726-2.572-1.028-4.3-2.432-6.1-.1-.121-.176-.251-.265-.377q3.809-.882,7.617-1.763c1.255-.289,3.15.625,3.576-1.214.393-1.7-1.521-2.224-2.585-2.864-10.951-6.585-21.969-13.059-32.969-19.562-.857-.507-1.693-1.656-2.639-.112-.561-1.16-.932-2.46.052-3.436,1.269-1.26,2.241.256,3.183.785,3.484,1.959,6.991,3.908,10.306,6.134,6.347,4.263,16.326,9.724,19.841,11.788,4.306,2.529,8.741,4.836,13.128,7.231-1.411.657-.98,1.265.163,1.554a9.311,9.311,0,0,1,4.971,3.5c-.427,3.642,1.034,7.041,2.755,9.82.876,1.414,3.445-1.875,5.646-1.791.189.008.364.4.545.607-1.085,2.675-5.165,3.14-5.335,7.158,4.016-1.522,6.516-5.69,10.331-5.481,7.725.426,14.673-3.063,22.16-3.482,1.893,1.783,5.229,2.018,5.7,5.323q-15.791,9.257-31.586,18.508c-3.752,2.191-6.132-1.524-9.211-2.228a31.092,31.092,0,0,0-7.687-4.514l.036.041Z" transform="translate(-5551.627 -333.153)" fill="#fff"/>
      <path id="Path_7750" data-name="Path 7750" d="M6581.887,753.815c.946-1.544,1.781-.4,2.639.112,11,6.5,22.019,12.977,32.969,19.562,1.063.64,2.979,1.164,2.585,2.864-.424,1.839-2.32.924-3.574,1.214q-3.81.878-7.613,1.764l-2.97-1.773-1.352.839-.043.01c-5.2-.129-10.29,1.58-15.522.99-1.825-5.2-2.477-10.764-4.786-15.823Q6583.053,758.7,6581.887,753.815Z" transform="translate(-5551.67 -333.4)" fill="#fff"/>
      <path id="Path_7919" data-name="Path 7919" d="M-8021.055-13306.535l34.617,21.033,10,29.688,32.845-17.778-46.676-27.128-12.562,3.2Z" transform="translate(9066 13732)" fill="#00514b"/>
      <path id="Path_7751" data-name="Path 7751" d="M6630.893,775.114c-4.378-2.4-8.814-4.71-13.12-7.239-3.515-2.064.207-2.528.946-3.64a10.374,10.374,0,0,0,2.6-6.04c3.9-7.647,7.972-15.193,13.553-21.8l.116.089a7.354,7.354,0,0,0,.753,2.107c3.832,4.966,3.875,7.966.062,13.127-1.732,2.344-3.548,4.629-5.2,7.028-1.319,1.918-3.183,3.746-2.006,6.469C6629.686,768.441,6632.115,771.354,6630.893,775.114Z" transform="translate(-5554.175 -332.189)" fill="#a2c9c3"/>
      <path id="Path_7752" data-name="Path 7752" d="M6638.284,730a5.557,5.557,0,0,0,1.914-3.439c4.019-5.2,6.172-11.394,9.136-17.156a2.4,2.4,0,0,1,1.9,1.179c-2.935,9.21-8.553,16.761-14.784,23.934l-.118-.089Q6637.308,732.217,6638.284,730Z" transform="translate(-5555.635 -330.224)" fill="#a2c9c3"/>
      <path id="Path_7753" data-name="Path 7753" d="M6603.17,811.234c2.423,1.756,5.389,1.862,8.115,2.705,2.189.679,3.712,1.528,2.324,4.508-.9,1.94-.616,4.433-.862,6.681-10.975-1.287-21.952-2.554-32.922-3.878-3.732-.45-10.225-9.684-9.029-13.205.894-2.632,3.52-2.564,5.887-2.387a57.494,57.494,0,0,1,17.9,4.018A20.72,20.72,0,0,0,6603.17,811.234Z" transform="translate(-5550.854 -337.227)" fill="#3b6a75"/>
      <path id="Path_7754" data-name="Path 7754" d="M6631.382,833.573,6652,837.165a9.146,9.146,0,0,0,.686,6.962c2.2,4.511,1.095,9.037-1.924,12.94-1.836,2.374-5.157,2.066-5.794-.654C6642.839,847.314,6636.591,840.775,6631.382,833.573Z" transform="translate(-5555.273 -339.265)" fill="#3b6a75"/>
      <path id="Path_7755" data-name="Path 7755" d="M6697.96,785.4a4.715,4.715,0,0,0,1.737,3.707c-4.842,4.792-10.969,6.272-17.478,6.775-.47-3.3-3.806-3.538-5.7-5.32A140.436,140.436,0,0,0,6697.96,785.4Z" transform="translate(-5558.561 -335.757)" fill="#34847e"/>
      <path id="Path_7756" data-name="Path 7756" d="M6630.377,809.4a31.1,31.1,0,0,1,7.686,4.515C6634.385,814.3,6630.3,815.4,6630.377,809.4Z" transform="translate(-5555.201 -337.504)" fill="#b1dce1"/>
      <path id="Path_7757" data-name="Path 7757" d="M6629.373,808.686l.967.7Z" transform="translate(-5555.128 -337.452)" fill="#b1dce1"/>
      <path id="Path_7758" data-name="Path 7758" d="M6695.12,781.318a140.437,140.437,0,0,1-21.44,5.162c-7.485.418-14.436,3.908-22.159,3.482-3.815-.21-6.314,3.958-10.331,5.481.171-4.018,4.25-4.483,5.335-7.158-.18-.211-.355-.6-.543-.607-2.2-.083-4.772,3.205-5.648,1.791-1.721-2.779-3.182-6.178-2.754-9.82l6.495-1.493,16.5,1.421-.058-.107.716.484c1.042.594,2.018.237,3.067-.083a109.33,109.33,0,0,0,26.16-11.643c1.476-.789,2.9-1.7,4.438-2.338,2.125-.882,3.065-2.21,2.706-4.588-.891-5.865-1.645-11.751-2.455-17.629-.088-2.278-.029-4.575-.308-6.829-.318-2.568.435-4.044,3.174-4.233,4.126-.284,7.832-2.12,11.721-3.275,1.388,11.346.494,22.756.993,34.119.337,7.672-2.638,12.561-9.774,15.152C6698.943,779.338,6697.06,780.406,6695.12,781.318Z" transform="translate(-5555.721 -331.675)" fill="#a2c9c3"/>
      <path id="Path_7760" data-name="Path 7760" d="M6607.7,779.484l2.969,1.773c.084.124.166.255.26.375,1.4,1.805,3.159,3.533,2.431,6.1a1.585,1.585,0,0,1-2.348.736c-2.394-1.218-4.312-2.927-4.61-5.839-.078-.762-.068-1.534-.1-2.3l.042-.01Z" transform="translate(-5553.449 -335.326)" fill="#00514b"/>
      <path id="Path_7761" data-name="Path 7761" d="M6697.428,697.85c4.725,5.859,11.231,10.466,12.956,18.433.353,1.627.686,3.259,1.029,4.889-.224,1.866.1,3.841-1.069,5.525-3.891,1.153-7.595,2.99-11.721,3.274-2.74.189-3.493,1.664-3.176,4.233.28,2.254.22,4.551.308,6.826-3.15,7.881-6.736,15.682-4.687,24.558a109.325,109.325,0,0,1-26.161,11.643c-1.049.32-2.026.677-3.067.083a1.158,1.158,0,0,1-.716-.484l.059.107a13.814,13.814,0,0,0-6.425-3.628l-1.13-.814a.824.824,0,0,0-.691-.188c-.494-.589-.99-1.178-1.48-1.765a25.346,25.346,0,0,1,1.722-4.706c3.588-5.917,3.783-11.992,1.379-18.342-1.022-2.7-1.885-5.469-2.741-8.232a2.733,2.733,0,0,0-2.555-2.22c-5.211-5.9-3.755-11.645.407-17.329a38.06,38.06,0,0,1,3.231-4.435c2.506-2.54,2.335-4.412-.973-5.88a2.4,2.4,0,0,0-1.9-1.178c-.418-6.319,3.033-10.856,6.979-15.162.955,2,4.081,1.539,4.6,4.044-.055,2.921-.046,5.845-.186,8.762-.09,1.864,1,1.468,2.07,1.278,1.435,5.923,3.638,7.018,9.513,5.094,3.418-1.12,6.008-3.5,8.989-5.289,1.308,2.6.088,5.243.424,8.261a93.45,93.45,0,0,0,10.02-10.2C6694.305,702.79,6695.777,700.245,6697.428,697.85Z" transform="translate(-5556.332 -329.033)" fill="#34847e"/>
      <path id="Path_7762" data-name="Path 7762" d="M6607.7,779.484l-1.352.839Z" transform="translate(-5553.453 -335.326)" fill="#00514b"/>
      <path id="Path_7763" data-name="Path 7763" d="M6650.709,710.679c3.307,1.468,3.478,3.34.973,5.88a37.9,37.9,0,0,0-3.232,4.435c-4.162,5.685-5.618,11.427-.408,17.329a108.008,108.008,0,0,1-8.6,13.606c-2.808,3.093-6.749,5.168-8.366,9.328l-1.537,2.086c-1.177-2.724.686-4.552,2.005-6.47,1.649-2.4,3.466-4.684,5.2-7.028,3.813-5.161,3.77-8.161-.062-13.127a7.339,7.339,0,0,1-.753-2.107C6642.157,727.44,6647.775,719.889,6650.709,710.679Z" transform="translate(-5555.113 -330.316)" fill="#a2c9c3"/>
      <path id="Path_7765" data-name="Path 7765" d="M6662.318,783.407a1.159,1.159,0,0,0,.715.484Z" transform="translate(-5557.527 -335.611)" fill="#00514b"/>
      <path id="Path_7766" data-name="Path 7766" d="M6656.862,684.786c-4.14-1.806-5.677-4.881-5.659-9.452a36.422,36.422,0,0,1,4.9-18.348c.276-.335.554-.669.83-1.005l.873-1.011c3.867-3.115,7.844-5.708,13.195-5.616,9.082.155,16.182,5.717,17.209,14.7a54.052,54.052,0,0,0,6.879,20.16c1.811,3.279,3.324,6.581,2.719,10.462-1.65,2.393-3.122,4.937-4.991,7.148a93.439,93.439,0,0,1-10.02,10.2c-.336-3.018.884-5.662-.425-8.26-.148-4.493-.687-8.884-3.361-12.711.714-2.146-.8-3.753-1.332-5.6-.5-1.739-1.319-2.1-3.008-1.264C6668.854,687.053,6662.854,686.184,6656.862,684.786Z" transform="translate(-5556.717 -325.852)" fill="#2a5653"/>
      <path id="Path_7767" data-name="Path 7767" d="M6680.011,694.327c2.675,3.826,3.212,8.218,3.361,12.711-2.98,1.783-5.569,4.168-8.988,5.288-5.875,1.924-8.077.829-9.512-5.093.773-2.309,4.2-3.574,2.669-6.789C6672.658,700.363,6675.76,696.174,6680.011,694.327Z" transform="translate(-5557.712 -329.126)" fill="#a2c9c3"/>
      <path id="Path_7768" data-name="Path 7768" d="M6679.461,693.754c-4.251,1.847-7.354,6.036-12.469,6.117-2.207-.119-3.182-1.966-4.556-3.252-.515-2.505-3.64-2.043-4.595-4.044q-.267-2.544-.535-5.087c5.993,1.4,11.992,2.267,17.813-.6,1.689-.833,2.512-.476,3.008,1.264C6678.656,690,6680.175,691.609,6679.461,693.754Z" transform="translate(-5557.162 -328.553)" fill="#a2c9c3"/>
      <path id="Path_7769" data-name="Path 7769" d="M6662.823,697.417c1.375,1.286,2.349,3.133,4.556,3.252,1.532,3.215-1.9,4.48-2.669,6.789-1.068.189-2.162.585-2.072-1.278C6662.777,703.262,6662.77,700.338,6662.823,697.417Z" transform="translate(-5557.549 -329.351)" fill="#2a5653"/>
      <path id="Path_7770" data-name="Path 7770" d="M6655.363,779.545c-1.136.781-.878-.367-1.128-.814Q6654.8,779.139,6655.363,779.545Z" transform="translate(-5556.938 -335.271)" fill="#00405e"/>
      <path id="Path_7915" data-name="Path 7915" d="M6216.7,837.983,6216.66,684.5l27.319-13.581V825.078" transform="translate(-5003.777 -542.499)" fill="url(#linear-gradient-3)"/>
      <path id="Path_7858" data-name="Path 7858" d="M5903.259,722.853l25.579-13.146,71.469,40.488L5973.3,764.179Z" transform="translate(-4819.994 -591.28)" fill="url(#linear-gradient-4)"/>
      <path id="Path_7860" data-name="Path 7860" d="M5838.372,810.214l-3.061-85.207,69.438,40.685,60.737-29.609.049,153.538" transform="translate(-4752.598 -594.137)" fill="#a2c9c3"/>
      <path id="Path_7879" data-name="Path 7879" d="M6175.171,778.963l.135-.123Z" transform="translate(-4943.036 -623.173)" fill="#feffff"/>
      <path id="Path_7904" data-name="Path 7904" d="M6196.71,745.572l.152-.223c-.037.089-.075.177-.11.266Z" transform="translate(-4952.719 -558.117)" fill="#d0eced"/>
      <path id="Path_7862" data-name="Path 7862" d="M5854.258,628.628c1.869,2.737,3.539,5.551,3.956,8.945a5.458,5.458,0,0,1-.406,3.45c-1.251.529-2.517,1.028-3.752,1.592-1.7.775-4.344-.1-5.143,1.557-.763,1.59-.152,3.84-.146,5.8a41.315,41.315,0,0,0-2.669,8.012c-.531,2.177-.942,4.367.059,6.536a48.274,48.274,0,0,1-17.408,7.471l-7-4.424c1.542-3.235,4.1-6.183,3.1-10.165-.664-2.642-1.476-5.247-2.227-7.868a2.7,2.7,0,0,0-1.719-2.065c-2.793-3.715-2.878-5.5-.389-9.434.635-1,1.328-1.973,2.034-2.929,2.18-2.95,2.844-2.3-1.061-4.873-.765-2.55,1.4-7.14,4.31-9.083a20,20,0,0,1,1.807-.962l.137.019.139,0c.068.889-.057,1.854.932,2.382,1.635,2.266.449,4.81.688,7.213.269,2.706,1.638,3.822,4.3,3.282a11,11,0,0,0,3.554-1.418,24.459,24.459,0,0,0,7.236-7.189A35.9,35.9,0,0,0,5854.258,628.628Z" transform="translate(-4677.018 -530.448)" fill="#3b6a75"/>
      <path id="Path_7863" data-name="Path 7863" d="M5859.42,606.907a35.908,35.908,0,0,1-9.668-4.156q-1.562-2.265-3.125-4.529a6.988,6.988,0,0,0-4.284-2.6c-3.379-.878-6.781-1.669-10.174-2.5a2.726,2.726,0,0,0-.5-.083,6.587,6.587,0,0,1-2.055-6.8c1.822-8.42,8.64-12.92,15.762-10.1a9.709,9.709,0,0,1,6.384,8.833c.154,1.875.206,3.76.231,5.642C5852.078,597.135,5854.769,602.465,5859.42,606.907Z" transform="translate(-4682.18 -508.728)" fill="#2a5653"/>
      <path id="Path_7921" data-name="Path 7921" d="M-7944.235-13551.129l14.3,8.293,5.14,19.935,20.924-11.537-29.544-17.406-4.082,3.777Z" transform="translate(9066 13682)" fill="#00514b"/>
      <path id="Path_7864" data-name="Path 7864" d="M5818.542,697.233a11.832,11.832,0,0,0-4.1,2.066c-.717.471-1.649,1.773-2.324.932-.781-.974.812-1.361,1.388-1.975.619-.659,1.327-1.236,2.2-2.037-1.373-.48-2.047.307-2.842.614-.634.245-1.351,1.168-1.894-.022-.472-1.035.427-1.289,1.128-1.62.447-.211.866-.481,1.643-.918-.8,0-1.3-.15-1.625.026-1.392.762-1.858.093-2.226-1.162-.484-1.657.443-2.3,1.759-2.44a33.057,33.057,0,0,1,7.7.019c1.7.214,3.377.532,5.063.8a48.274,48.274,0,0,0,17.406-7.472c1.508-.986,4.241-.779,4.021-3.487-.3-3.7-.926-7.375-1.411-11.06-.007-1.96-.617-4.21.146-5.8.8-1.662,3.447-.783,5.143-1.557,1.235-.564,2.5-1.063,3.753-1.592.428,8.276.934,16.548.168,24.837-.219,2.366-1.826,3.308-3.645,4.167-.227-.4-.376-.278-.492.072l.031-.03c-.441.013-.882.029-1.069.542l.035-.023c-5.836,1.121-11.546,3.069-17.515,3.263-4.109.133-6.949,3.375-10.848,3.8l-1.1.01C5818.854,696.957,5818.688,697,5818.542,697.233Z" transform="translate(-4672.683 -549.977)" fill="#a2c9c3"/>
      <path id="Path_7868" data-name="Path 7868" d="M5794.081,686.7c.728,1.782,2.054,3.426,1.151,5.852-2.646-2.13-5.98-2.966-8.542-5.174,1.92-.834,2.449-2.651,3.089-4.384a38.012,38.012,0,0,1,8.125-13.467,5.017,5.017,0,0,0,.511,1.157c2.109,2.657,2.27,4.509.405,7.17-1.214,1.734-2.674,3.3-3.827,5.071C5794.287,684.011,5793.04,685.128,5794.081,686.7Z" transform="translate(-4661.519 -554.32)" fill="#a2c9c3"/>
      <path id="Path_7869" data-name="Path 7869" d="M5800.635,672.245c-1.042-1.573.206-2.69.913-3.774,1.153-1.77,2.612-3.337,3.827-5.071,1.864-2.661,1.7-4.513-.405-7.17a5.017,5.017,0,0,1-.511-1.157q4.041-7.712,8.085-15.424c3.9,2.569,3.241,1.923,1.061,4.873-.706.956-1.4,1.925-2.034,2.929-2.49,3.936-2.405,5.719.388,9.433a37.8,37.8,0,0,1-8.488,11.568,4.776,4.776,0,0,0-1.695,2.216Q5801.206,671.456,5800.635,672.245Z" transform="translate(-4668.072 -539.863)" fill="#a2c9c3"/>
      <path id="Path_7871" data-name="Path 7871" d="M5871.557,733.756c.872,2.471,2.3,3.539.923,4.361-1.31.78-11.368-5.755-11.368-5.755.533-.344-4.472-1.916-3.939-2.26a31.667,31.667,0,0,0,12.4-4.919A16.91,16.91,0,0,1,5871.557,733.756Z" transform="translate(-4694.847 -581.247)" fill="#55807c"/>
      <path id="Path_7872" data-name="Path 7872" d="M5868.078,723.02a31.669,31.669,0,0,1-12.4,4.919c.384-2.487-2.416-2.065-3.191-3.492a68.208,68.208,0,0,0,14.407-3.736C5867.173,721.541,5868.363,721.9,5868.078,723.02Z" transform="translate(-4693.354 -579.083)" fill="#3b6a75"/>
      <path id="Path_7873" data-name="Path 7873" d="M5855.95,719.315a68.216,68.216,0,0,1-14.408,3.736c-3.617-.149-6.788,2.124-10.415,1.921-.422-.024-.843-.058-1.264-.087,3.9-.422,6.739-3.664,10.848-3.8,5.97-.194,11.679-2.142,17.515-3.263Z" transform="translate(-4682.407 -577.687)" fill="#a2c9c3"/>
      <path id="Path_7874" data-name="Path 7874" d="M5833.636,609.673a2.738,2.738,0,0,1,.5.083,4.16,4.16,0,0,1,.871,5.359l-.138,0-.137-.019C5833.908,613.386,5833.11,611.663,5833.636,609.673Z" transform="translate(-4684.15 -525.36)" fill="#2a5653"/>
      <path id="Path_7875" data-name="Path 7875" d="M5884.741,717.363c.189-.513.629-.529,1.07-.542A1.106,1.106,0,0,1,5884.741,717.363Z" transform="translate(-4708.957 -577.201)" fill="#d89269"/>
      <path id="Path_7876" data-name="Path 7876" d="M5886.753,716.577c.117-.35.266-.475.493-.072A1.024,1.024,0,0,1,5886.753,716.577Z" transform="translate(-4709.932 -576.927)" fill="#d89269"/>
      <path id="Path_7892" data-name="Path 7892" d="M5850.922,619.714l3.126,4.529a24.458,24.458,0,0,1-7.236,7.189,11,11,0,0,1-3.554,1.418c-2.663.539-4.032-.577-4.3-3.282-.239-2.4.947-4.947-.687-7.213a2.772,2.772,0,0,1,3.048,1.274c1.7,2.659,2.493,2.815,5.083,1.09C5848.3,623.456,5850.293,622.171,5850.922,619.714Z" transform="translate(-4686.474 -530.219)" fill="#2a5653"/>
      <path id="Path_7893" data-name="Path 7893" d="M5849.229,614.934c-.629,2.457-2.623,3.742-4.521,5.006-2.591,1.725-3.381,1.569-5.082-1.09a2.773,2.773,0,0,0-3.049-1.274c-.991-.529-.866-1.493-.934-2.383a4.161,4.161,0,0,0-.872-5.359c3.393.827,6.794,1.618,10.173,2.5A6.992,6.992,0,0,1,5849.229,614.934Z" transform="translate(-4684.781 -525.438)" fill="#a2c9c3"/>
      <path id="Path_7895" data-name="Path 7895" d="M5779.248,721.46a3.1,3.1,0,0,1-2.87-3.038c-.063-.77-.02-1.562.857-1.474,1.745.176,2.589,1.458,2.925,3.061C5780.309,720.712,5780.176,721.392,5779.248,721.46Z" transform="translate(-4656.521 -577.259)" fill="#0eab9a"/>
      <path id="Path_7896" data-name="Path 7896" d="M5826.769,731.427c.146-.237.312-.276.5-.048Z" transform="translate(-4680.909 -584.171)" fill="#d89269"/>
      <path id="Path_7914" data-name="Path 7914" d="M5765.869,692.7c-4.982-2.96-9.949-5.945-14.933-8.9-.541-.321-1.108-.984-1.807-.311a1.166,1.166,0,0,0-.057,1.613l4.178,15.724h0a4.425,4.425,0,0,0,1.838,2.933c8.642,5.176,21.672,11.932,29.026,16.214-.068,0-4.628-19.392-4.679-19.349C5779.435,700.621,5766.668,693.173,5765.869,692.7Zm.034,12.435a3.1,3.1,0,0,1-2.87-3.038c-.063-.77-.019-1.562.858-1.474,1.745.176,2.589,1.458,2.925,3.061C5766.964,704.385,5766.831,705.065,5765.9,705.133Z" transform="translate(-4643.176 -560.933)" fill="#fff"/>
      <path id="Path_7917" data-name="Path 7917" d="M-8855.9-14254.457l45.449,27.111,49.847-22.122" transform="translate(9951.92 14424.472)" fill="none" stroke="#fff" stroke-linecap="round" stroke-width="6"/>
      <path id="Path_7918" data-name="Path 7918" d="M-8741.053-14254.457l6.1,14.524,10.782-14.524Z" transform="translate(9924.97 14424.472)" fill="#fff"/>
      <ellipse id="Ellipse_392" data-name="Ellipse 392" cx="62.168" cy="103.119" rx="62.168" ry="103.119" transform="translate(948.886 416.686) rotate(-29.072)" fill="none" stroke="#a2c9c3" stroke-miterlimit="10" stroke-width="2"/>
      <ellipse id="Ellipse_394" data-name="Ellipse 394" cx="95.506" cy="157.28" rx="95.506" ry="157.28" transform="translate(999.12 78.728) rotate(-29.072)" fill="none" stroke="#a2c9c3" stroke-miterlimit="10" stroke-width="2"/>
      <path id="Path_7515" data-name="Path 7515" d="M12070.67,612.26l-205.084,99.246" transform="translate(-10431.301 -303.621)" fill="none" stroke="#a2c9c3" stroke-width="2"/>
      <path id="Path_7520" data-name="Path 7520" d="M11962.366,621.339l-596.911,271.378" transform="translate(-10451.805 -564.243)" fill="none" stroke="#a2c9c3" stroke-width="2" opacity="0.547"/>
      <path id="Path_7521" data-name="Path 7521" d="M11935.78,694.661l-70.475,38.092" transform="translate(-10896.977 -329.145)" fill="none" stroke="#a2c9c3" stroke-width="2"/>
      <path id="Path_7513" data-name="Path 7513" d="M12289.944,516.039l-314.131,149.136" transform="translate(-11040.266 -25.498)" fill="none" stroke="#a2c9c3" stroke-width="2" opacity="0.298"/>
      <path id="Path_7516" data-name="Path 7516" d="M12005.511,661.073l-139.925,57.7" transform="translate(-10759.93 -641.658)" fill="none" stroke="#a2c9c3" stroke-width="2" opacity="0.686"/>
      <path id="Path_7927" data-name="Path 7927" d="M12005.511,661.073l-139.925,57.7" transform="translate(-11101.93 -138.658)" fill="none" stroke="#a2c9c3" stroke-width="2" opacity="0.686"/>
      <path id="Path_7517" data-name="Path 7517" d="M11936.259,670.318l-296.618,129.4" transform="translate(-11083.734 -491.514)" fill="none" stroke="#a2c9c3" stroke-width="2" opacity="0.488"/>
    </g>
  </g>
</svg>
