<svg xmlns="http://www.w3.org/2000/svg" xmlns:xlink="http://www.w3.org/1999/xlink" width="1922" height="740" viewBox="0 0 1922 740">
  <defs>
    <clipPath id="clip-path">
      <rect id="Rectangle_1298" data-name="Rectangle 1298" width="1922" height="740" transform="translate(-4)" fill="#fff"/>
    </clipPath>
    <radialGradient id="radial-gradient" cx="0.367" cy="0.2" r="0.534" gradientTransform="matrix(0.694, 0.59, -0.435, 0.694, 0.2, -0.155)" gradientUnits="objectBoundingBox">
      <stop offset="0" stop-color="#dac265"/>
      <stop offset="1" stop-color="#4aa49d"/>
    </radialGradient>
    <linearGradient id="linear-gradient" x1="0.5" x2="0.5" y2="1" gradientUnits="objectBoundingBox">
      <stop offset="0" stop-color="#fff"/>
      <stop offset="1" stop-color="#4aa49d"/>
    </linearGradient>
  </defs>
  <g id="Mask_Group_65" data-name="Mask Group 65" transform="translate(4)" clip-path="url(#clip-path)">
    <g id="Group_5799" data-name="Group 5799">
      <path id="Path_7332" data-name="Path 7332" d="M1459.514,1749.207,963.42,1806.357c-367.5,42.336-728.056-236.652-719.733-556.893l11.306-434.257C265.268,420.36,807.4,266.7,1176.7,553.969l484.8,377.093C2029.583,1217.374,1911.116,1697.192,1459.514,1749.207Z" transform="translate(2941.646 -618.044) rotate(110)" fill="url(#radial-gradient)"/>
      <ellipse id="Ellipse_395" data-name="Ellipse 395" cx="61.506" cy="100.78" rx="61.506" ry="100.78" transform="translate(1218.542 233.61) rotate(-29.072)" fill="none" stroke="#a2c9c3" stroke-miterlimit="10" stroke-width="2" opacity="0.635"/>
      <ellipse id="Ellipse_392" data-name="Ellipse 392" cx="26.168" cy="43.119" rx="26.168" ry="43.119" transform="translate(1012.505 407.634) rotate(-29.072)" fill="none" stroke="#a2c9c3" stroke-miterlimit="10" stroke-width="2"/>
      <ellipse id="Ellipse_394" data-name="Ellipse 394" cx="128.506" cy="211.28" rx="128.506" ry="211.28" transform="translate(934.038 137.566) rotate(-29.072)" fill="none" stroke="#a2c9c3" stroke-miterlimit="10" stroke-width="2"/>
      <path id="Path_7467" data-name="Path 7467" d="M199.256-64.349c.435-39.7-26.788-86.9-60.8-105.43-20.115-10.958-38.1-9.429-49.531,1.855,9.9-2.374,21.781-.44,34.512,6.5C157.45-142.9,184.673-95.7,184.238-56c-.178,16.221-4.951,28.674-12.85,36.471C187.946-23.5,198.984-39.509,199.256-64.349Z" transform="translate(841.169 540.779)" fill="url(#linear-gradient)"/>
      <path id="Path_7477" data-name="Path 7477" d="M181.527-82.489c.365-33.319-22.483-72.936-51.034-88.489-16.883-9.2-31.976-7.914-41.572,1.557,8.312-1.992,18.281-.369,28.967,5.451,28.551,15.553,51.4,55.17,51.034,88.489-.149,13.615-4.155,24.066-10.785,30.611C172.034-48.2,181.3-61.64,181.527-82.489Z" transform="translate(1059.879 562.647)" fill="url(#linear-gradient)"/>
      <ellipse id="Ellipse_387" data-name="Ellipse 387" cx="51.738" cy="86.078" rx="51.738" ry="86.078" transform="translate(891.787 392.785) rotate(-29.072)" fill="none" stroke="#4aa49d" stroke-miterlimit="10" stroke-width="2"/>
      <ellipse id="Ellipse_388" data-name="Ellipse 388" cx="43.425" cy="72.247" rx="43.425" ry="72.247" transform="translate(1116.651 409.954) rotate(-29.072)" fill="none" stroke="#4aa49d" stroke-miterlimit="10" stroke-width="2"/>
      <ellipse id="Ellipse_386" data-name="Ellipse 386" cx="51.738" cy="86.078" rx="51.738" ry="86.078" transform="translate(876.768 401.135) rotate(-29.072)" fill="#fff" stroke="#4aa49d" stroke-miterlimit="10" stroke-width="2"/>
      <ellipse id="Ellipse_389" data-name="Ellipse 389" cx="43.425" cy="72.247" rx="43.425" ry="72.247" transform="translate(1104.046 416.963) rotate(-29.072)" fill="#a2c9c3" stroke="#4aa49d" stroke-miterlimit="10" stroke-width="2"/>
      <g id="Group_5624" data-name="Group 5624" transform="translate(1153.596 438.103)">
        <path id="Path_7470" data-name="Path 7470" d="M378.045-43.03l-2.069-1.207.081,4.3L370.7-47.311l-12.734-7.425A8.554,8.554,0,0,1,354-61.3V-75.338c0-2.336,1.784-3.208,3.964-1.937l20.077,11.706a8.554,8.554,0,0,1,3.964,6.56v14.042C382.008-42.63,380.225-41.758,378.045-43.03Z" transform="translate(-334.182 82.336)" fill="none" stroke="#4aa49d" stroke-miterlimit="10" stroke-width="2"/>
        <path id="Path_7471" data-name="Path 7471" d="M334.51-60.035l2.069,1.207-.081,4.2,5.354-1.126,12.734,7.425c2.181,1.271,3.965.4,3.965-1.937V-64.306a8.55,8.55,0,0,0-3.965-6.56L334.51-82.573c-2.18-1.271-3.965-.4-3.965,1.937V-66.6A8.552,8.552,0,0,0,334.51-60.035Z" transform="translate(-330.545 83.158)" fill="none" stroke="#4aa49d" stroke-miterlimit="10" stroke-width="2"/>
      </g>
      <path id="Path_7478" data-name="Path 7478" d="M166.947-97.406c.308-28.073-18.944-61.453-43-74.557-14.225-7.749-26.942-6.668-35.027,1.311,7-1.679,15.4-.311,24.406,4.593,24.056,13.1,43.307,46.484,43,74.557-.126,11.471-3.5,20.277-9.087,25.791C158.949-68.516,166.755-79.84,166.947-97.406Z" transform="translate(912.57 412.001)" fill="url(#linear-gradient)"/>
      <ellipse id="Ellipse_390" data-name="Ellipse 390" cx="36.588" cy="60.872" rx="36.588" ry="60.872" transform="translate(974.404 255.442) rotate(-29.072)" fill="none" stroke="#4aa49d" stroke-miterlimit="10" stroke-width="2"/>
      <ellipse id="Ellipse_391" data-name="Ellipse 391" cx="36.588" cy="60.872" rx="36.588" ry="60.872" transform="translate(963.783 261.348) rotate(-29.072)" fill="#a2c9c3" stroke="#4aa49d" stroke-miterlimit="10" stroke-width="2"/>
      <g id="Group_5623" data-name="Group 5623" transform="translate(929.912 409.809)">
        <path id="Path_7468" data-name="Path 7468" d="M468.816-10.56,438.344-9.474l-.661.024-.649-.8L407.859-46.114" transform="translate(-405.154 47)" fill="none" stroke="#4aa49d" stroke-miterlimit="10" stroke-width="2"/>
        <path id="Path_7469" data-name="Path 7469" d="M451.85,27.5a.708.708,0,0,0,.036-.315,1.358,1.358,0,0,0-.133-.385,3.229,3.229,0,0,0-.363-.554h0L443.6,16.77l-.074-.064a1.006,1.006,0,0,0-.153-.149,3.118,3.118,0,0,0-.385-.258,1.671,1.671,0,0,0-.524-.21.869.869,0,0,0-.449.036l-2.264,1.149,0,0a.776.776,0,0,1-.36.075,1.64,1.64,0,0,1-.332-.044c-.108-.025-.193-.049-.254-.069a1.832,1.832,0,0,1-.349-.155l-.211-.146-.506-.4a9.325,9.325,0,0,1-.809-.747c-.288-.291-.6-.626-.928-1v0a60.955,60.955,0,0,1-5.919-8.357,57.691,57.691,0,0,1-4.535-8.961h0q-.305-.812-.517-1.536a11.234,11.234,0,0,1-.313-1.351l-.022-.225A1.768,1.768,0,0,1,424.725-6a1.7,1.7,0,0,1,.085-.266,1.168,1.168,0,0,1,.138-.274.708.708,0,0,1,.263-.23v0l1.983-.971,0,0a.634.634,0,0,0,.241-.213,1,1,0,0,0,.15-.362,1.078,1.078,0,0,0,.017-.382,1.521,1.521,0,0,0-.1-.385l-.013-.034-4.319-11.3c-.049-.1-.1-.211-.167-.322a3.781,3.781,0,0,0-.227-.355,1.113,1.113,0,0,0-.121-.138,1.03,1.03,0,0,0-.161-.121v0a.677.677,0,0,0-.257-.1.467.467,0,0,0-.272.056l-5.388,2.632-.042.016a.742.742,0,0,0-.222.139,1.212,1.212,0,0,0-.216.266,2.093,2.093,0,0,0-.174.368,1.943,1.943,0,0,0-.085.324l-.009.2c-.011.208-.02.405-.031.6l0,.091,0,.1,0,0v.034l0,0c0,.2.014.448.039.742s.064.639.117,1.022c.855,6.273,5.448,16.5,11.315,25.8,5.246,8.319,11.466,15.827,16.86,18.972.155.091.241.139.255.147.061.033.116.061.166.085.18.086.116.053.178.083l.074.038a2.508,2.508,0,0,0,.343.11,2.654,2.654,0,0,0,.437.069,1.381,1.381,0,0,0,.366-.019.751.751,0,0,0,.25-.091l.044-.022,5.384-2.586,0,0A.438.438,0,0,0,451.85,27.5Z" transform="translate(-400.669 60.948)" fill="none" stroke="#4aa49d" stroke-miterlimit="10" stroke-width="2"/>
        <path id="Path_7472" data-name="Path 7472" d="M421.325,8.35l-4.784-2.79c-5.725-3.338-10.41-11.091-10.41-17.226V-40.058c0-6.137,4.685-8.425,10.41-5.086l45.15,26.325C467.416-15.48,472.1-7.728,472.1-1.591V26.8c0,6.137-4.685,8.425-10.41,5.086l-25.556-14.9" transform="translate(-406.131 46.68)" fill="none" stroke="#4aa49d" stroke-linecap="round" stroke-miterlimit="10" stroke-width="2"/>
      </g>
      <g id="Group_5621" data-name="Group 5621" transform="translate(1005.768 264.637)">
        <path id="Path_7473" data-name="Path 7473" d="M330.985-167.766c-5.653-3.3-10.252-1.081-10.252,4.948a34.861,34.861,0,0,0,2.9,11.932c1.8,4.33,4.337,8.507,7.35,10.264s5.55.539,7.35-1.692a14.25,14.25,0,0,0,2.9-8.548C341.237-156.891,336.639-164.469,330.985-167.766Z" transform="translate(-311.078 169.293)" fill="none" stroke="#4aa49d" stroke-miterlimit="10" stroke-width="2"/>
        <path id="Path_7474" data-name="Path 7474" d="M339.232-114.514c-.024-.035-.049-.069-.075-.1A41.381,41.381,0,0,0,327.3-125.506c-9.448-5.509-17.427-3.411-19.883,4.382a1.147,1.147,0,0,0,.409,1.041,1.068,1.068,0,0,0,.175.128L346-97.8" transform="translate(-307.395 158.056)" fill="none" stroke="#4aa49d" stroke-linecap="round" stroke-miterlimit="10" stroke-width="2"/>
        <path id="Path_7475" data-name="Path 7475" d="M360.587-89.695" transform="translate(-322.083 147.314)" fill="none" stroke="#4aa49d" stroke-linecap="round" stroke-miterlimit="10" stroke-width="2"/>
        <path id="Path_7476" data-name="Path 7476" d="M342.164-100.438" transform="translate(-316.996 150.281)" fill="none" stroke="#4aa49d" stroke-linecap="round" stroke-miterlimit="10" stroke-width="2"/>
        <line id="Line_91" data-name="Line 91" y1="14.292" transform="translate(31.836 49.17)" fill="none" stroke="#4aa49d" stroke-linecap="round" stroke-miterlimit="10" stroke-width="2"/>
      </g>
      <path id="Path_7400" data-name="Path 7400" d="M20.924-108.434,0-120v20.924L20.924-87.509Z" transform="translate(819.844 462.505)" fill="#a2c9c3"/>
      <path id="Path_7486" data-name="Path 7486" d="M16.607-110.82,0-120v16.607l16.607,9.18Z" transform="translate(786.617 683.601)" fill="#a2c9c3"/>
      <path id="Path_7484" data-name="Path 7484" d="M29.439-103.727,0-120v29.439L29.439-74.289Z" transform="translate(1234.036 379.584)" fill="#a2c9c3"/>
      <path id="Path_7485" data-name="Path 7485" d="M29.439-103.727,0-120v29.439L29.439-74.289Z" transform="translate(1263.358 425.243)" fill="#3a6673"/>
    </g>
  </g>
</svg>
