<svg xmlns="http://www.w3.org/2000/svg" xmlns:xlink="http://www.w3.org/1999/xlink" width="1922" height="740" viewBox="0 0 1922 740">
  <defs>
    <clipPath id="clip-path">
      <rect id="Rectangle_1294" data-name="Rectangle 1294" width="1922" height="740" transform="translate(0 -3)" fill="#fff"/>
    </clipPath>
    <radialGradient id="radial-gradient" cx="0.367" cy="0.2" r="0.534" gradientTransform="matrix(0.694, 0.59, -0.435, 0.694, 0.2, -0.155)" gradientUnits="objectBoundingBox">
      <stop offset="0" stop-color="#dac265"/>
      <stop offset="1" stop-color="#4aa49d"/>
    </radialGradient>
    <linearGradient id="linear-gradient" x1="1" y1="0.12" x2="0.022" y2="0.964" gradientUnits="objectBoundingBox">
      <stop offset="0" stop-color="#fff"/>
      <stop offset="1" stop-color="#a2c9c3"/>
    </linearGradient>
    <linearGradient id="linear-gradient-2" x1="0.014" y1="0.064" x2="1.016" y2="0.955" gradientUnits="objectBoundingBox">
      <stop offset="0" stop-color="#f8f8f8"/>
      <stop offset="1" stop-color="#a2c9c3"/>
    </linearGradient>
  </defs>
  <g id="Mask_Group_61" data-name="Mask Group 61" transform="translate(0 3)" clip-path="url(#clip-path)">
    <g id="Group_5752" data-name="Group 5752">
      <path id="Path_7284" data-name="Path 7284" d="M471.5,643.555l.013.026c.01.023,0,.042-.013.039l-.023,0a.044.044,0,0,1-.033-.052l.01-.026C471.46,643.518,471.487,643.529,471.5,643.555Z" transform="translate(757.219 -349.867)" fill="none" stroke="#a2c9c3" stroke-miterlimit="10" stroke-width="2"/>
      <path id="Path_7285" data-name="Path 7285" d="M471.5,643.549l.023.033c.013.023.013.049-.007.052l-.026,0c-.023,0-.052-.033-.049-.059l0-.036C471.448,643.516,471.481,643.519,471.5,643.549Z" transform="translate(757.215 -349.875)" fill="none" stroke="#a2c9c3" stroke-miterlimit="10" stroke-width="2"/>
      <path id="Path_7286" data-name="Path 7286" d="M471.5,643.543l.036.033c.023.026.026.059.006.069l-.03.01c-.026.013-.069-.023-.072-.059l0-.046C471.434,643.517,471.47,643.51,471.5,643.543Z" transform="translate(757.205 -349.883)" fill="none" stroke="#a2c9c3" stroke-miterlimit="10" stroke-width="2"/>
      <path id="Path_7287" data-name="Path 7287" d="M471.5,643.533l.046.033c.036.023.049.065.026.082l-.03.023c-.026.023-.082-.007-.095-.049l-.02-.059C471.42,643.52,471.462,643.5,471.5,643.533Z" transform="translate(757.189 -349.89)" fill="none" stroke="#a2c9c3" stroke-miterlimit="10" stroke-width="2"/>
      <path id="Path_7288" data-name="Path 7288" d="M471.5,643.524l.062.026c.046.023.072.068.052.1l-.026.039c-.026.033-.1.013-.124-.036l-.036-.069C471.4,643.534,471.447,643.5,471.5,643.524Z" transform="translate(757.172 -349.896)" fill="none" stroke="#a2c9c3" stroke-miterlimit="10" stroke-width="2"/>
      <path id="Path_7289" data-name="Path 7289" d="M471.5,643.516l.076.013c.059.013.1.066.085.108l-.02.056c-.017.052-.1.046-.151-.01l-.056-.072C471.388,643.559,471.427,643.5,471.5,643.516Z" transform="translate(757.152 -349.901)" fill="none" stroke="#a2c9c3" stroke-miterlimit="10" stroke-width="2"/>
      <path id="Path_7290" data-name="Path 7290" d="M471.488,643.512l.092,0c.069,0,.131.052.124.111l-.007.075c-.007.072-.108.088-.173.033l-.085-.072A.079.079,0,0,1,471.488,643.512Z" transform="translate(757.133 -349.91)" fill="none" stroke="#a2c9c3" stroke-miterlimit="10" stroke-width="2"/>
      <path id="Path_7291" data-name="Path 7291" d="M471.472,643.536l.1-.033a.137.137,0,0,1,.174.1l.01.1c.013.091-.1.147-.187.095l-.115-.069A.1.1,0,0,1,471.472,643.536Z" transform="translate(757.109 -349.937)" fill="none" stroke="#a2c9c3" stroke-miterlimit="10" stroke-width="2"/>
      <path id="Path_7292" data-name="Path 7292" d="M471.448,643.578l.108-.072a.148.148,0,0,1,.219.076l.042.124a.143.143,0,0,1-.187.174l-.147-.053A.139.139,0,0,1,471.448,643.578Z" transform="translate(757.086 -349.972)" fill="none" stroke="#a2c9c3" stroke-miterlimit="10" stroke-width="2"/>
      <path id="Path_7293" data-name="Path 7293" d="M471.421,643.641l.1-.121a.164.164,0,0,1,.269.03l.078.144a.181.181,0,0,1-.164.272l-.183-.02A.185.185,0,0,1,471.421,643.641Z" transform="translate(757.064 -350.016)" fill="none" stroke="#a2c9c3" stroke-miterlimit="10" stroke-width="2"/>
      <path id="Path_7294" data-name="Path 7294" d="M471.389,643.739l.085-.184a.18.18,0,0,1,.315-.042l.128.154a.246.246,0,0,1-.115.4l-.21.03C471.432,644.112,471.314,643.906,471.389,643.739Z" transform="translate(757.043 -350.072)" fill="none" stroke="#a2c9c3" stroke-miterlimit="10" stroke-width="2"/>
      <path id="Path_7295" data-name="Path 7295" d="M471.363,643.872l.049-.259a.2.2,0,0,1,.341-.147l.187.157c.167.144.154.458-.023.534l-.229.1C471.51,644.33,471.321,644.1,471.363,643.872Z" transform="translate(757.024 -350.135)" fill="none" stroke="#a2c9c3" stroke-miterlimit="10" stroke-width="2"/>
      <path id="Path_7296" data-name="Path 7296" d="M471.361,644.041l-.016-.337c-.01-.253.164-.4.35-.288l.249.144a.46.46,0,0,1,.118.675l-.232.2C471.649,644.578,471.374,644.349,471.361,644.041Z" transform="translate(756.993 -350.206)" fill="none" stroke="#a2c9c3" stroke-miterlimit="10" stroke-width="2"/>
      <path id="Path_7297" data-name="Path 7297" d="M471.438,644.25l-.111-.422c-.079-.311.079-.547.318-.465l.324.1a.628.628,0,0,1,.315.819l-.213.315C471.906,644.84,471.536,644.637,471.438,644.25Z" transform="translate(756.907 -350.281)" fill="none" stroke="#a2c9c3" stroke-miterlimit="10" stroke-width="2"/>
      <path id="Path_7298" data-name="Path 7298" d="M471.575,644.5l-.236-.5c-.177-.37-.059-.714.233-.684l.393.039a.811.811,0,0,1,.577.937l-.157.462C472.262,645.1,471.787,644.953,471.575,644.5Z" transform="translate(756.793 -350.355)" fill="none" stroke="#a2c9c3" stroke-miterlimit="10" stroke-width="2"/>
      <path id="Path_7299" data-name="Path 7299" d="M471.793,644.829l-.4-.56c-.3-.412-.255-.881.082-.933l.455-.069c.416-.062.947.534.9,1.012l-.056.629C472.733,645.385,472.156,645.339,471.793,644.829Z" transform="translate(756.646 -350.474)" fill="none" stroke="#a2c9c3" stroke-miterlimit="10" stroke-width="2"/>
      <path id="Path_7300" data-name="Path 7300" d="M472.108,645.241l-.6-.589c-.449-.432-.527-1.035-.161-1.2l.5-.223c.452-.2,1.215.39,1.294,1.005l.1.809C473.324,645.66,472.659,645.775,472.108,645.241Z" transform="translate(756.469 -350.638)" fill="none" stroke="#a2c9c3" stroke-miterlimit="10" stroke-width="2"/>
      <path id="Path_7301" data-name="Path 7301" d="M472.538,645.7l-.838-.56c-.622-.416-.875-1.15-.5-1.468l.5-.429c.458-.39,1.477.128,1.736.881l.334.992C474.025,645.864,473.3,646.208,472.538,645.7Z" transform="translate(756.262 -350.825)" fill="none" stroke="#a2c9c3" stroke-miterlimit="10" stroke-width="2"/>
      <path id="Path_7302" data-name="Path 7302" d="M473.09,646.182l-1.1-.455c-.816-.338-1.3-1.189-.963-1.7l.455-.691c.413-.632,1.706-.281,2.2.6l.645,1.146C474.819,645.949,474.092,646.6,473.09,646.182Z" transform="translate(756.034 -351.038)" fill="none" stroke="#a2c9c3" stroke-miterlimit="10" stroke-width="2"/>
      <path id="Path_7303" data-name="Path 7303" d="M473.773,646.676l-1.366-.246c-1.015-.183-1.788-1.113-1.546-1.857l.331-1.009c.3-.92,1.857-.865,2.646.095l1.038,1.255C475.666,645.867,475.017,646.9,473.773,646.676Z" transform="translate(755.793 -351.282)" fill="none" stroke="#a2c9c3" stroke-miterlimit="10" stroke-width="2"/>
      <path id="Path_7304" data-name="Path 7304" d="M474.575,647.147l-1.615.1a2.039,2.039,0,0,1-2.244-1.883l.1-1.369c.092-1.248,1.87-1.641,3.02-.672l1.513,1.274A1.377,1.377,0,0,1,474.575,647.147Z" transform="translate(755.558 -351.573)" fill="none" stroke="#a2c9c3" stroke-miterlimit="10" stroke-width="2"/>
      <path id="Path_7305" data-name="Path 7305" d="M475.655,647.554l-1.8.606a2.337,2.337,0,0,1-3.043-1.7l-.252-1.762c-.229-1.6,1.677-2.627,3.239-1.746l2.05,1.153A1.843,1.843,0,0,1,475.655,647.554Z" transform="translate(755.164 -351.922)" fill="none" stroke="#a2c9c3" stroke-miterlimit="10" stroke-width="2"/>
      <path id="Path_7327" data-name="Path 7327" d="M589.987,1052.888,458.242,882.708c-97.594-126.068-92.17-274.216,10.822-295.732L608.728,557.81C735.714,531.29,908.472,710.3,902.439,862.162l-7.913,199.35C888.516,1212.869,709.912,1207.809,589.987,1052.888Z" transform="translate(568.07 -550.89)" fill="none" stroke="#a2c9c3" stroke-miterlimit="10" stroke-width="2"/>
      <path id="Path_7332" data-name="Path 7332" d="M1459.514,1749.207,963.42,1806.357c-367.5,42.336-728.056-236.652-719.733-556.893l11.306-434.257C265.268,420.36,807.4,266.7,1176.7,553.969l484.8,377.093C2029.583,1217.374,1911.116,1697.192,1459.514,1749.207Z" transform="translate(2941.646 -618.044) rotate(110)" fill="url(#radial-gradient)"/>
      <g id="Group_5657" data-name="Group 5657" transform="translate(1269.722 78.643)">
        <path id="Path_7552" data-name="Path 7552" d="M873.2,427.9,692,325.547V176L873.2,278.354Z" transform="translate(-692 -176)" fill="#fff" stroke="#4aa49d" stroke-miterlimit="10" stroke-width="2"/>
        <g id="Group_5640" data-name="Group 5640" transform="translate(56.483 73.948)">
          <path id="Path_7553" data-name="Path 7553" d="M811.033,329.5c-5.018,3.449-7.787,9.216-7.787,16.723l-20.073-11.339c-.173-7.953-2.769-16.576-7.441-24.8-3.807-6.689-5.711-13.35-5.538-19.188.519-11.576,10.21-15.878,21.977-9.754,13.152,6.905,24.054,23.537,24.054,36.8C816.224,323.181,814.494,327.265,811.033,329.5Z" transform="translate(-770.183 -278.357)" fill="none" stroke="#4aa49d" stroke-linecap="round" stroke-miterlimit="10" stroke-width="2"/>
          <path id="Path_7554" data-name="Path 7554" d="M802.056,292.2c9,5.083,16.439,16.618,16.439,25.869" transform="translate(-779.029 -282.2)" fill="none" stroke="#4aa49d" stroke-linecap="round" stroke-miterlimit="10" stroke-width="2"/>
          <path id="Path_7555" data-name="Path 7555" d="M786.965,363.454l22.67,12.805" transform="translate(-774.841 -301.976)" fill="none" stroke="#4aa49d" stroke-linecap="round" stroke-miterlimit="10" stroke-width="2"/>
          <path id="Path_7556" data-name="Path 7556" d="M786.965,370.669l22.67,12.805" transform="translate(-774.841 -303.979)" fill="none" stroke="#4aa49d" stroke-linecap="round" stroke-miterlimit="10" stroke-width="2"/>
          <path id="Path_7557" data-name="Path 7557" d="M792.474,380.754l14.709,8.309" transform="translate(-776.37 -306.778)" fill="none" stroke="#4aa49d" stroke-linecap="round" stroke-miterlimit="10" stroke-width="2"/>
        </g>
        <g id="Group_5643" data-name="Group 5643" transform="translate(84.513 104.089)">
          <g id="Group_5641" data-name="Group 5641">
            <line id="Line_103" data-name="Line 103" y2="18.784" fill="none" stroke="#4aa49d" stroke-linecap="round" stroke-miterlimit="10" stroke-width="2"/>
          </g>
          <g id="Group_5642" data-name="Group 5642" transform="translate(71.621 40.456)">
            <line id="Line_104" data-name="Line 104" y2="18.784" fill="none" stroke="#4aa49d" stroke-linecap="round" stroke-miterlimit="10" stroke-width="2"/>
          </g>
          <line id="Line_105" data-name="Line 105" x2="71.621" y2="40.456" transform="translate(0 8.669)" fill="none" stroke="#4aa49d" stroke-linecap="round" stroke-miterlimit="10" stroke-width="2" stroke-dasharray="3 3"/>
        </g>
        <g id="Group_5646" data-name="Group 5646" transform="translate(130.221 158.806)">
          <g id="Group_5644" data-name="Group 5644" transform="translate(0 33.955)">
            <line id="Line_106" data-name="Line 106" x2="8.752" y2="4.944" fill="none" stroke="#4aa49d" stroke-linecap="round" stroke-miterlimit="10" stroke-width="2"/>
          </g>
          <g id="Group_5645" data-name="Group 5645" transform="translate(0 0)">
            <line id="Line_107" data-name="Line 107" x2="8.752" y2="4.944" fill="none" stroke="#4aa49d" stroke-linecap="round" stroke-miterlimit="10" stroke-width="2"/>
          </g>
          <line id="Line_108" data-name="Line 108" y1="33.955" transform="translate(4.039 2.282)" fill="none" stroke="#4aa49d" stroke-linecap="round" stroke-miterlimit="10" stroke-width="2" stroke-dasharray="3 3"/>
        </g>
        <g id="Group_5649" data-name="Group 5649" transform="translate(13.608 19.968)">
          <g id="Group_5647" data-name="Group 5647" transform="translate(0 105.589)">
            <line id="Line_109" data-name="Line 109" x2="27.216" y2="15.373" fill="none" stroke="#4aa49d" stroke-linecap="round" stroke-miterlimit="10" stroke-width="2"/>
          </g>
          <g id="Group_5648" data-name="Group 5648" transform="translate(0)">
            <line id="Line_110" data-name="Line 110" x2="27.216" y2="15.373" fill="none" stroke="#4aa49d" stroke-linecap="round" stroke-miterlimit="10" stroke-width="2"/>
          </g>
          <line id="Line_111" data-name="Line 111" y1="105.589" transform="translate(12.561 7.095)" fill="none" stroke="#4aa49d" stroke-linecap="round" stroke-miterlimit="10" stroke-width="2" stroke-dasharray="3 3"/>
        </g>
        <g id="Group_5653" data-name="Group 5653" transform="translate(56.436 151.132)">
          <g id="Group_5650" data-name="Group 5650" transform="translate(0 4.123)">
            <path id="Path_7558" data-name="Path 7558" d="M770.8,391.032l1.664.94a1.406,1.406,0,0,1,.505.461,1.107,1.107,0,0,1,.176.606v3.4c0,.221-.059.356-.176.407a.6.6,0,0,1-.505-.108l-1.664-.94a1.389,1.389,0,0,1-.5-.46,1.11,1.11,0,0,1-.175-.606v-3.4c0-.221.059-.357.175-.408A.594.594,0,0,1,770.8,391.032Zm-.064.582v3.533l1.8,1.015v-3.534Z" transform="translate(-770.118 -390.901)" fill="#4aa39d"/>
            <path id="Path_7559" data-name="Path 7559" d="M776.7,394.323l1.476.833v4.152l.591.334v-1.215c0-.1.028-.172.083-.2a.241.241,0,0,1,.224.037.6.6,0,0,1,.221.218.555.555,0,0,1,.085.293V400.3c0,.091-.032.147-.1.169a.317.317,0,0,1-.246-.053l-2.338-1.32a.732.732,0,0,1-.248-.226.5.5,0,0,1-.095-.277c0-.091.032-.147.1-.168a.315.315,0,0,1,.246.053l.863.488v-3.534l-.863-.487a.722.722,0,0,1-.249-.225.493.493,0,0,1-.093-.277c0-.092.032-.147.1-.169A.315.315,0,0,1,776.7,394.323Z" transform="translate(-771.851 -391.834)" fill="#4aa39d"/>
            <path id="Path_7560" data-name="Path 7560" d="M783.286,398.087l1.664.94a1.4,1.4,0,0,1,.5.461,1.1,1.1,0,0,1,.176.607v3.4q0,.332-.176.407a.6.6,0,0,1-.5-.108l-1.664-.94a1.379,1.379,0,0,1-.5-.46,1.1,1.1,0,0,1-.177-.605v-3.4c0-.22.059-.357.177-.408A.593.593,0,0,1,783.286,398.087Zm-.065.582V402.2l1.8,1.015v-3.534Z" transform="translate(-773.584 -392.859)" fill="#4aa39d"/>
            <path id="Path_7561" data-name="Path 7561" d="M789.195,401.378l1.475.834v4.152l.592.334v-1.215c0-.1.029-.172.084-.2a.241.241,0,0,1,.223.036.613.613,0,0,1,.222.218.563.563,0,0,1,.085.293v1.524c0,.091-.032.147-.1.169a.315.315,0,0,1-.246-.053l-2.338-1.321a.733.733,0,0,1-.248-.226.491.491,0,0,1-.094-.276c0-.091.032-.147.1-.169a.315.315,0,0,1,.246.053l.863.487v-3.533l-.863-.488a.732.732,0,0,1-.25-.225.5.5,0,0,1-.092-.277c0-.091.032-.147.1-.169A.315.315,0,0,1,789.195,401.378Z" transform="translate(-775.318 -393.792)" fill="#4aa39d"/>
            <path id="Path_7562" data-name="Path 7562" d="M795.775,405.142l1.665.94a1.4,1.4,0,0,1,.5.462,1.107,1.107,0,0,1,.176.606v3.4c0,.22-.059.356-.176.407a.6.6,0,0,1-.5-.109l-1.665-.94a1.387,1.387,0,0,1-.5-.46,1.107,1.107,0,0,1-.175-.605v-3.4c0-.22.058-.357.175-.408A.594.594,0,0,1,795.775,405.142Zm-.064.582v3.534l1.8,1.014v-3.534Z" transform="translate(-777.051 -394.817)" fill="#4aa39d"/>
            <path id="Path_7563" data-name="Path 7563" d="M801.684,408.434l1.476.834v4.151l.592.334v-1.214c0-.106.028-.173.084-.2a.241.241,0,0,1,.223.036.6.6,0,0,1,.22.219.559.559,0,0,1,.085.293v1.524c0,.091-.032.147-.1.168a.316.316,0,0,1-.246-.053l-2.338-1.321a.727.727,0,0,1-.246-.226.494.494,0,0,1-.1-.277c0-.091.033-.147.1-.168a.313.313,0,0,1,.245.053l.863.487v-3.534l-.863-.487a.735.735,0,0,1-.249-.225.493.493,0,0,1-.093-.277c0-.091.033-.147.1-.168A.309.309,0,0,1,801.684,408.434Z" transform="translate(-778.784 -395.75)" fill="#4aa39d"/>
            <path id="Path_7564" data-name="Path 7564" d="M808.264,412.2l1.665.94a1.4,1.4,0,0,1,.5.462,1.1,1.1,0,0,1,.177.605v3.4c0,.221-.06.356-.177.407a.6.6,0,0,1-.5-.109l-1.665-.939a1.393,1.393,0,0,1-.5-.46,1.11,1.11,0,0,1-.175-.606v-3.4c0-.22.059-.356.175-.407A.592.592,0,0,1,808.264,412.2Zm-.064.582v3.534l1.8,1.015v-3.534Z" transform="translate(-780.518 -396.776)" fill="#4aa39d"/>
            <path id="Path_7565" data-name="Path 7565" d="M814.174,415.488l1.476.834v4.152l.591.334v-1.215c0-.1.028-.172.083-.2a.237.237,0,0,1,.223.036.6.6,0,0,1,.221.218.554.554,0,0,1,.086.293v1.524c0,.091-.032.147-.1.168a.315.315,0,0,1-.246-.053l-2.338-1.321a.731.731,0,0,1-.248-.226.494.494,0,0,1-.095-.277c0-.091.032-.147.1-.168a.314.314,0,0,1,.245.052l.863.488v-3.534l-.863-.487a.723.723,0,0,1-.249-.225.492.492,0,0,1-.093-.277c0-.092.032-.147.1-.169A.318.318,0,0,1,814.174,415.488Z" transform="translate(-782.251 -397.708)" fill="#4aa39d"/>
            <path id="Path_7566" data-name="Path 7566" d="M820.755,419.252l1.664.94a1.4,1.4,0,0,1,.5.461,1.1,1.1,0,0,1,.176.607v3.4c0,.221-.058.356-.176.408a.6.6,0,0,1-.5-.108l-1.664-.941a1.382,1.382,0,0,1-.5-.46,1.1,1.1,0,0,1-.175-.606v-3.4c0-.22.058-.356.175-.408A.6.6,0,0,1,820.755,419.252Zm-.065.581v3.534l1.8,1.014v-3.533Z" transform="translate(-783.984 -398.733)" fill="#4aa39d"/>
            <path id="Path_7567" data-name="Path 7567" d="M826.663,422.543l1.475.834v4.152l.592.334v-1.215c0-.1.028-.172.083-.2a.237.237,0,0,1,.223.037.6.6,0,0,1,.222.218.56.56,0,0,1,.085.293v1.524c0,.091-.033.147-.1.168a.314.314,0,0,1-.246-.052l-2.338-1.321a.725.725,0,0,1-.248-.226.5.5,0,0,1-.095-.277c0-.091.033-.147.1-.168a.317.317,0,0,1,.246.052l.862.488v-3.534l-.862-.487a.733.733,0,0,1-.25-.225.5.5,0,0,1-.093-.277c0-.092.033-.148.1-.169A.315.315,0,0,1,826.663,422.543Z" transform="translate(-785.717 -399.667)" fill="#4aa39d"/>
            <path id="Path_7568" data-name="Path 7568" d="M833.244,426.307l1.664.94a1.4,1.4,0,0,1,.5.461,1.105,1.105,0,0,1,.176.606v3.4c0,.22-.059.356-.176.408a.6.6,0,0,1-.5-.108l-1.664-.94a1.39,1.39,0,0,1-.5-.46,1.1,1.1,0,0,1-.176-.606v-3.4q0-.331.176-.407A.594.594,0,0,1,833.244,426.307Zm-.065.582v3.534l1.8,1.014V427.9Z" transform="translate(-787.45 -400.692)" fill="#4aa39d"/>
            <path id="Path_7569" data-name="Path 7569" d="M839.489,429.834l1.664.941a1.391,1.391,0,0,1,.5.46,1.1,1.1,0,0,1,.176.607v3.4q0,.33-.176.407a.6.6,0,0,1-.5-.108l-1.664-.94a1.373,1.373,0,0,1-.5-.46,1.1,1.1,0,0,1-.175-.605v-3.4c0-.22.058-.357.175-.408A.592.592,0,0,1,839.489,429.834Zm-.065.582v3.534l1.8,1.014V431.43Z" transform="translate(-789.184 -401.671)" fill="#4aa39d"/>
            <path id="Path_7570" data-name="Path 7570" d="M845.4,433.125l1.475.834v4.152l.593.334V437.23c0-.105.028-.173.083-.2a.24.24,0,0,1,.223.037.6.6,0,0,1,.222.218.558.558,0,0,1,.085.293V439.1c0,.091-.033.148-.1.169a.311.311,0,0,1-.245-.053L845.4,437.9a.724.724,0,0,1-.247-.226.491.491,0,0,1-.095-.276c0-.091.033-.147.1-.169a.314.314,0,0,1,.246.053l.863.487v-3.533l-.863-.488a.732.732,0,0,1-.249-.225.492.492,0,0,1-.092-.277c0-.091.033-.147.1-.169A.315.315,0,0,1,845.4,433.125Z" transform="translate(-790.917 -402.604)" fill="#4aa39d"/>
          </g>
          <g id="Group_5651" data-name="Group 5651" transform="translate(1.826 16.81)">
            <path id="Path_7571" data-name="Path 7571" d="M773.322,408.593l1.664.94a1.408,1.408,0,0,1,.5.462,1.1,1.1,0,0,1,.176.606V414c0,.22-.059.355-.176.408a.6.6,0,0,1-.5-.109l-1.664-.94a1.375,1.375,0,0,1-.5-.46,1.1,1.1,0,0,1-.175-.605v-3.4c0-.221.058-.357.175-.408A.6.6,0,0,1,773.322,408.593Zm-.064.582v3.534l1.8,1.014V410.19Z" transform="translate(-772.645 -408.463)" fill="#4aa39d"/>
            <path id="Path_7572" data-name="Path 7572" d="M779.231,411.885l1.475.834v4.152l.592.334V415.99c0-.106.028-.173.083-.2a.236.236,0,0,1,.223.035.611.611,0,0,1,.222.219.558.558,0,0,1,.085.293v1.524c0,.091-.032.147-.1.168a.314.314,0,0,1-.245-.053l-2.339-1.321a.715.715,0,0,1-.247-.226.494.494,0,0,1-.095-.277c0-.091.033-.147.1-.168a.31.31,0,0,1,.246.052l.863.487V412.99l-.863-.487a.717.717,0,0,1-.249-.225.488.488,0,0,1-.093-.277c0-.091.033-.147.1-.168A.317.317,0,0,1,779.231,411.885Z" transform="translate(-774.378 -409.396)" fill="#4aa39d"/>
            <path id="Path_7573" data-name="Path 7573" d="M785.812,415.648l1.664.941a1.389,1.389,0,0,1,.5.461,1.1,1.1,0,0,1,.176.606v3.4q0,.331-.176.407a.6.6,0,0,1-.5-.108l-1.664-.941a1.4,1.4,0,0,1-.5-.46,1.106,1.106,0,0,1-.175-.605v-3.4q0-.33.175-.408A.6.6,0,0,1,785.812,415.648Zm-.065.582v3.533l1.8,1.014v-3.534Z" transform="translate(-776.111 -410.421)" fill="#4aa39d"/>
            <path id="Path_7574" data-name="Path 7574" d="M791.721,418.94l1.475.834v4.152l.592.334v-1.214c0-.106.028-.173.083-.2a.237.237,0,0,1,.224.036.591.591,0,0,1,.22.218.558.558,0,0,1,.086.293v1.524c0,.091-.032.147-.1.168a.314.314,0,0,1-.246-.052l-2.338-1.321a.719.719,0,0,1-.248-.226.49.49,0,0,1-.095-.276c0-.091.032-.147.1-.169a.319.319,0,0,1,.246.053l.862.488v-3.534l-.862-.487a.725.725,0,0,1-.25-.225.491.491,0,0,1-.093-.277c0-.091.032-.147.1-.168A.315.315,0,0,1,791.721,418.94Z" transform="translate(-777.845 -411.354)" fill="#4aa39d"/>
            <path id="Path_7575" data-name="Path 7575" d="M798.3,422.7l1.664.94a1.4,1.4,0,0,1,.5.461,1.1,1.1,0,0,1,.177.607v3.4c0,.22-.059.355-.177.407a.6.6,0,0,1-.5-.108l-1.664-.941a1.383,1.383,0,0,1-.5-.46,1.109,1.109,0,0,1-.175-.606V423q0-.331.175-.407A.594.594,0,0,1,798.3,422.7Zm-.064.582v3.533l1.8,1.015V424.3Z" transform="translate(-779.578 -412.379)" fill="#4aa39d"/>
            <path id="Path_7576" data-name="Path 7576" d="M804.21,426l1.476.833v4.152l.591.334V430.1c0-.105.028-.173.084-.2a.242.242,0,0,1,.223.037.6.6,0,0,1,.221.218.56.56,0,0,1,.085.293v1.524c0,.091-.032.147-.1.168a.312.312,0,0,1-.246-.053l-2.338-1.321a.726.726,0,0,1-.248-.226.5.5,0,0,1-.095-.276c0-.091.033-.147.1-.169a.319.319,0,0,1,.245.053l.863.486V427.1l-.863-.488a.719.719,0,0,1-.249-.225.491.491,0,0,1-.093-.277.156.156,0,0,1,.1-.169A.316.316,0,0,1,804.21,426Z" transform="translate(-781.311 -413.312)" fill="#4aa39d"/>
            <path id="Path_7577" data-name="Path 7577" d="M810.791,429.758l1.664.94a1.4,1.4,0,0,1,.505.461,1.106,1.106,0,0,1,.176.606v3.4c0,.221-.059.357-.176.407a.6.6,0,0,1-.505-.108l-1.664-.94a1.39,1.39,0,0,1-.5-.46,1.1,1.1,0,0,1-.175-.605v-3.4c0-.221.058-.357.175-.408A.594.594,0,0,1,810.791,429.758Zm-.064.582v3.533l1.8,1.015v-3.533Z" transform="translate(-783.044 -414.337)" fill="#4aa39d"/>
            <path id="Path_7578" data-name="Path 7578" d="M816.7,433.05l1.475.833v4.152l.592.334v-1.215c0-.106.028-.172.084-.2a.239.239,0,0,1,.223.035.615.615,0,0,1,.222.219.561.561,0,0,1,.085.293v1.524c0,.091-.032.147-.1.168a.316.316,0,0,1-.246-.053l-2.338-1.32a.727.727,0,0,1-.248-.227.491.491,0,0,1-.095-.276c0-.091.032-.147.1-.168a.311.311,0,0,1,.246.052l.862.488v-3.534l-.862-.487a.728.728,0,0,1-.25-.226.492.492,0,0,1-.093-.277c0-.091.032-.147.1-.168A.315.315,0,0,1,816.7,433.05Z" transform="translate(-784.778 -415.27)" fill="#4aa39d"/>
            <path id="Path_7579" data-name="Path 7579" d="M823.281,436.813l1.664.94a1.4,1.4,0,0,1,.5.462,1.1,1.1,0,0,1,.176.606v3.4q0,.331-.176.407a.6.6,0,0,1-.5-.108l-1.664-.94a1.384,1.384,0,0,1-.5-.46,1.108,1.108,0,0,1-.175-.605v-3.4c0-.22.058-.357.175-.408A.6.6,0,0,1,823.281,436.813Zm-.065.581v3.534l1.8,1.014v-3.534Z" transform="translate(-786.511 -416.295)" fill="#4aa39d"/>
            <path id="Path_7580" data-name="Path 7580" d="M829.19,440.1l1.475.834v4.151l.592.335V444.21c0-.106.028-.173.083-.2a.239.239,0,0,1,.223.036.608.608,0,0,1,.222.219.564.564,0,0,1,.085.293v1.524c0,.091-.032.148-.1.169a.313.313,0,0,1-.245-.053l-2.339-1.321a.7.7,0,0,1-.247-.225.492.492,0,0,1-.095-.277c0-.091.033-.147.1-.168a.315.315,0,0,1,.246.053l.863.487V441.21l-.863-.488a.73.73,0,0,1-.249-.225.494.494,0,0,1-.093-.277c0-.091.033-.147.1-.168A.312.312,0,0,1,829.19,440.1Z" transform="translate(-788.244 -417.228)" fill="#4aa39d"/>
            <path id="Path_7581" data-name="Path 7581" d="M835.77,443.868l1.665.94a1.4,1.4,0,0,1,.5.461,1.109,1.109,0,0,1,.176.607v3.4c0,.22-.059.355-.176.407a.6.6,0,0,1-.5-.109l-1.665-.94a1.387,1.387,0,0,1-.5-.46,1.109,1.109,0,0,1-.175-.606v-3.4q0-.331.175-.407A.588.588,0,0,1,835.77,443.868Zm-.064.582v3.533L837.5,449v-3.533Z" transform="translate(-789.978 -418.253)" fill="#4aa39d"/>
            <path id="Path_7582" data-name="Path 7582" d="M842.015,447.4l1.664.941a1.389,1.389,0,0,1,.5.461,1.1,1.1,0,0,1,.177.606v3.4q0,.331-.177.407a.6.6,0,0,1-.5-.108l-1.664-.941a1.385,1.385,0,0,1-.5-.459,1.1,1.1,0,0,1-.176-.606v-3.4q0-.331.176-.408A.592.592,0,0,1,842.015,447.4Zm-.064.582v3.534l1.8,1.014v-3.533Z" transform="translate(-791.711 -419.232)" fill="#4aa39d"/>
            <path id="Path_7583" data-name="Path 7583" d="M847.925,450.688l1.475.834v4.151l.591.335v-1.214c0-.106.029-.173.084-.2a.241.241,0,0,1,.223.036.592.592,0,0,1,.22.219.55.55,0,0,1,.086.293v1.524c0,.091-.032.148-.1.168a.313.313,0,0,1-.246-.052l-2.337-1.321a.71.71,0,0,1-.248-.225.494.494,0,0,1-.095-.277c0-.091.032-.147.1-.168a.316.316,0,0,1,.246.053l.862.487v-3.533l-.862-.488a.723.723,0,0,1-.25-.225.493.493,0,0,1-.093-.277c0-.091.032-.147.1-.168A.312.312,0,0,1,847.925,450.688Z" transform="translate(-793.444 -420.165)" fill="#4aa39d"/>
          </g>
          <g id="Group_5652" data-name="Group 5652" transform="translate(7.906)">
            <path id="Path_7584" data-name="Path 7584" d="M781.74,385.325l1.665.94a1.406,1.406,0,0,1,.5.461,1.1,1.1,0,0,1,.176.607v3.4q0,.33-.176.407a.6.6,0,0,1-.5-.109l-1.665-.94a1.375,1.375,0,0,1-.5-.46,1.1,1.1,0,0,1-.175-.606v-3.4q0-.332.175-.407A.589.589,0,0,1,781.74,385.325Zm-.065.582v3.533l1.8,1.015v-3.534Z" transform="translate(-781.062 -385.194)" fill="#4aa39d"/>
            <path id="Path_7585" data-name="Path 7585" d="M787.649,388.616l1.475.834V393.6l.592.334v-1.215c0-.1.028-.172.083-.2a.24.24,0,0,1,.223.037.6.6,0,0,1,.222.218.56.56,0,0,1,.085.293v1.524c0,.091-.033.147-.1.168a.316.316,0,0,1-.245-.053l-2.339-1.321a.73.73,0,0,1-.248-.226.5.5,0,0,1-.094-.277c0-.091.032-.147.1-.168a.317.317,0,0,1,.245.053l.863.488v-3.534l-.863-.487a.73.73,0,0,1-.249-.225.49.49,0,0,1-.092-.277c0-.092.032-.147.1-.169A.317.317,0,0,1,787.649,388.616Z" transform="translate(-782.795 -386.127)" fill="#4aa39d"/>
            <path id="Path_7586" data-name="Path 7586" d="M794.23,392.38l1.664.94a1.4,1.4,0,0,1,.5.461,1.109,1.109,0,0,1,.176.607v3.4c0,.221-.059.356-.176.407a.6.6,0,0,1-.5-.108l-1.664-.94a1.389,1.389,0,0,1-.5-.46,1.105,1.105,0,0,1-.175-.605v-3.4q0-.331.175-.408A.594.594,0,0,1,794.23,392.38Zm-.065.582V396.5l1.8,1.014v-3.534Z" transform="translate(-784.529 -387.152)" fill="#4aa39d"/>
            <path id="Path_7587" data-name="Path 7587" d="M800.139,395.672l1.474.834v4.152l.592.335v-1.215c0-.106.028-.173.084-.2a.241.241,0,0,1,.223.035.6.6,0,0,1,.22.219.559.559,0,0,1,.085.293v1.524c0,.091-.031.147-.1.168a.313.313,0,0,1-.246-.053l-2.337-1.321a.712.712,0,0,1-.248-.226.492.492,0,0,1-.095-.276c0-.091.033-.147.1-.168a.313.313,0,0,1,.246.052l.862.487v-3.533l-.862-.488a.72.72,0,0,1-.25-.225.492.492,0,0,1-.092-.277c0-.091.033-.147.1-.168A.318.318,0,0,1,800.139,395.672Z" transform="translate(-786.262 -388.086)" fill="#4aa39d"/>
            <path id="Path_7588" data-name="Path 7588" d="M806.719,399.435l1.664.94a1.4,1.4,0,0,1,.5.461,1.1,1.1,0,0,1,.177.607v3.4c0,.22-.059.355-.177.407a.6.6,0,0,1-.5-.108l-1.664-.94a1.391,1.391,0,0,1-.5-.46,1.108,1.108,0,0,1-.175-.606v-3.4q0-.331.175-.407A.594.594,0,0,1,806.719,399.435Zm-.064.582v3.534l1.8,1.014v-3.534Z" transform="translate(-787.995 -389.111)" fill="#4aa39d"/>
            <path id="Path_7589" data-name="Path 7589" d="M812.628,402.727l1.476.834v4.152l.591.334v-1.214c0-.105.028-.173.083-.2a.238.238,0,0,1,.224.036.6.6,0,0,1,.221.218.558.558,0,0,1,.085.293V408.7c0,.091-.032.147-.1.168a.314.314,0,0,1-.246-.052l-2.338-1.321a.738.738,0,0,1-.248-.227.49.49,0,0,1-.095-.276c0-.091.032-.147.1-.169a.318.318,0,0,1,.246.053l.863.488v-3.534l-.863-.487a.724.724,0,0,1-.249-.225.493.493,0,0,1-.093-.277c0-.091.032-.147.1-.168A.311.311,0,0,1,812.628,402.727Z" transform="translate(-789.728 -390.044)" fill="#4aa39d"/>
            <path id="Path_7590" data-name="Path 7590" d="M819.209,406.49l1.664.94a1.409,1.409,0,0,1,.505.461,1.1,1.1,0,0,1,.176.606v3.4c0,.221-.058.356-.176.407a.6.6,0,0,1-.505-.108l-1.664-.94a1.389,1.389,0,0,1-.5-.46,1.1,1.1,0,0,1-.175-.606v-3.4c0-.221.058-.357.175-.408A.593.593,0,0,1,819.209,406.49Zm-.064.582V410.6l1.8,1.015v-3.534Z" transform="translate(-791.461 -391.069)" fill="#4aa39d"/>
            <path id="Path_7591" data-name="Path 7591" d="M825.118,409.782l1.475.833v4.152l.592.334v-1.215c0-.106.028-.172.084-.2a.242.242,0,0,1,.223.037.6.6,0,0,1,.222.219.555.555,0,0,1,.085.292v1.524c0,.091-.032.147-.1.168a.312.312,0,0,1-.246-.053l-2.338-1.321a.718.718,0,0,1-.248-.226.49.49,0,0,1-.094-.276q0-.137.1-.169a.316.316,0,0,1,.246.053l.862.487v-3.534l-.862-.488a.726.726,0,0,1-.25-.225.49.49,0,0,1-.092-.277c0-.091.032-.147.1-.169A.316.316,0,0,1,825.118,409.782Z" transform="translate(-793.195 -392.002)" fill="#4aa39d"/>
            <path id="Path_7592" data-name="Path 7592" d="M831.7,413.545l1.664.94a1.4,1.4,0,0,1,.5.461,1.108,1.108,0,0,1,.176.607v3.4c0,.221-.059.357-.176.407a.6.6,0,0,1-.5-.108l-1.664-.94a1.4,1.4,0,0,1-.5-.46,1.108,1.108,0,0,1-.175-.605v-3.4c0-.22.058-.357.175-.408A.594.594,0,0,1,831.7,413.545Zm-.065.582v3.534l1.8,1.015v-3.534Z" transform="translate(-794.928 -393.027)" fill="#4aa39d"/>
            <path id="Path_7593" data-name="Path 7593" d="M837.608,416.836l1.475.834v4.152l.592.334v-1.215c0-.1.029-.172.084-.2a.241.241,0,0,1,.222.036.608.608,0,0,1,.221.218.562.562,0,0,1,.085.293v1.524c0,.091-.032.147-.1.169a.315.315,0,0,1-.246-.053l-2.338-1.321a.726.726,0,0,1-.248-.226.5.5,0,0,1-.094-.276c0-.091.032-.147.1-.169a.318.318,0,0,1,.246.052l.863.488v-3.533l-.863-.488a.732.732,0,0,1-.249-.225.492.492,0,0,1-.092-.277c0-.091.032-.147.1-.169A.315.315,0,0,1,837.608,416.836Z" transform="translate(-796.661 -393.96)" fill="#4aa39d"/>
            <path id="Path_7594" data-name="Path 7594" d="M844.188,420.6l1.665.94a1.4,1.4,0,0,1,.5.462,1.1,1.1,0,0,1,.176.606v3.4c0,.22-.059.356-.176.407a.6.6,0,0,1-.5-.109l-1.665-.94a1.385,1.385,0,0,1-.5-.46,1.107,1.107,0,0,1-.175-.606v-3.4q0-.331.175-.407A.594.594,0,0,1,844.188,420.6Zm-.064.581v3.534l1.8,1.014V422.2Z" transform="translate(-798.395 -394.985)" fill="#4aa39d"/>
            <path id="Path_7595" data-name="Path 7595" d="M850.433,424.127l1.664.941a1.391,1.391,0,0,1,.5.461,1.105,1.105,0,0,1,.176.606v3.4c0,.221-.059.356-.176.407a.6.6,0,0,1-.5-.109l-1.664-.94a1.393,1.393,0,0,1-.5-.46,1.11,1.11,0,0,1-.175-.606v-3.4q0-.33.175-.408A.6.6,0,0,1,850.433,424.127Zm-.064.582v3.534l1.8,1.014v-3.534Z" transform="translate(-800.128 -395.964)" fill="#4aa39d"/>
            <path id="Path_7596" data-name="Path 7596" d="M856.342,427.419l1.476.834v4.152l.591.334v-1.215c0-.1.028-.172.084-.2a.239.239,0,0,1,.223.036.606.606,0,0,1,.22.218.556.556,0,0,1,.086.293v1.524c0,.091-.032.147-.1.168a.315.315,0,0,1-.246-.052l-2.338-1.321a.721.721,0,0,1-.247-.226.494.494,0,0,1-.1-.277c0-.091.033-.147.1-.168a.317.317,0,0,1,.246.052l.863.488v-3.534l-.863-.487a.73.73,0,0,1-.249-.225.5.5,0,0,1-.093-.277c0-.092.033-.148.1-.169A.314.314,0,0,1,856.342,427.419Z" transform="translate(-801.861 -396.897)" fill="#4aa39d"/>
          </g>
        </g>
        <g id="Group_5654" data-name="Group 5654" transform="translate(147.573 181.003)">
          <line id="Line_112" data-name="Line 112" x1="2.937" y2="1.139" transform="translate(47.553 71.823)" fill="none" stroke="#4aa49d" stroke-linecap="round" stroke-miterlimit="10" stroke-width="2"/>
          <line id="Line_113" data-name="Line 113" x1="2.937" y2="1.139" transform="translate(6.72 5.139)" fill="none" stroke="#4aa49d" stroke-linecap="round" stroke-miterlimit="10" stroke-width="2"/>
          <line id="Line_114" data-name="Line 114" x1="2.937" y2="1.139" transform="translate(12.554 14.665)" fill="none" stroke="#4aa49d" stroke-linecap="round" stroke-miterlimit="10" stroke-width="2"/>
          <line id="Line_115" data-name="Line 115" x1="2.937" y2="1.139" transform="translate(18.387 24.191)" fill="none" stroke="#4aa49d" stroke-linecap="round" stroke-miterlimit="10" stroke-width="2"/>
          <line id="Line_116" data-name="Line 116" x1="2.937" y2="1.139" transform="translate(24.22 33.718)" fill="none" stroke="#4aa49d" stroke-linecap="round" stroke-miterlimit="10" stroke-width="2"/>
          <line id="Line_117" data-name="Line 117" x1="2.937" y2="1.139" transform="translate(30.053 43.244)" fill="none" stroke="#4aa49d" stroke-linecap="round" stroke-miterlimit="10" stroke-width="2"/>
          <line id="Line_118" data-name="Line 118" x1="2.937" y2="1.139" transform="translate(35.886 52.771)" fill="none" stroke="#4aa49d" stroke-linecap="round" stroke-miterlimit="10" stroke-width="2"/>
          <line id="Line_119" data-name="Line 119" x1="2.937" y2="1.139" transform="translate(41.72 62.297)" fill="none" stroke="#4aa49d" stroke-linecap="round" stroke-miterlimit="10" stroke-width="2"/>
          <line id="Line_120" data-name="Line 120" x1="1.622" y2="0.629" transform="translate(10.861 9.752)" fill="none" stroke="#4aa49d" stroke-linecap="round" stroke-miterlimit="10" stroke-width="2"/>
          <line id="Line_121" data-name="Line 121" x1="1.622" y2="0.629" transform="translate(16.694 19.279)" fill="none" stroke="#4aa49d" stroke-linecap="round" stroke-miterlimit="10" stroke-width="2"/>
          <line id="Line_122" data-name="Line 122" x1="1.622" y2="0.629" transform="translate(22.528 28.805)" fill="none" stroke="#4aa49d" stroke-linecap="round" stroke-miterlimit="10" stroke-width="2"/>
          <line id="Line_123" data-name="Line 123" x1="1.622" y2="0.629" transform="translate(28.361 38.332)" fill="none" stroke="#4aa49d" stroke-linecap="round" stroke-miterlimit="10" stroke-width="2"/>
          <line id="Line_124" data-name="Line 124" x1="1.622" y2="0.629" transform="translate(34.194 47.858)" fill="none" stroke="#4aa49d" stroke-linecap="round" stroke-miterlimit="10" stroke-width="2"/>
          <line id="Line_125" data-name="Line 125" x1="1.622" y2="0.629" transform="translate(40.027 57.384)" fill="none" stroke="#4aa49d" stroke-linecap="round" stroke-miterlimit="10" stroke-width="2"/>
          <line id="Line_126" data-name="Line 126" x1="1.622" y2="0.629" transform="translate(45.861 66.911)" fill="none" stroke="#4aa49d" stroke-linecap="round" stroke-miterlimit="10" stroke-width="2"/>
          <path id="Path_7597" data-name="Path 7597" d="M896.268,429.7l45.771,74.749,8.135-3.153L904.4,426.542Z" transform="translate(-896.268 -426.542)" fill="none" stroke="#4aa49d" stroke-linecap="round" stroke-miterlimit="10" stroke-width="2"/>
        </g>
        <path id="Path_7598" data-name="Path 7598" d="M782.04,241.705l-5.043,1.9a.629.629,0,0,1-.555-.125,1.387,1.387,0,0,1-.626-1.133l.727-6.563a.578.578,0,0,1,.015-.112l1.493-8.575a.384.384,0,0,1,.1-.21L795.27,203.4l0,0,0,0,2.127-2.906a1.751,1.751,0,0,1,1.949-.543,5.378,5.378,0,0,1,2.529,1.649l5,5.446h0l0,0v0a7.1,7.1,0,0,1,1.628,2.883,2.9,2.9,0,0,1-.22,2.422l0,0h0l0,0-2.126,2.906-.005.007-.006.007-17.132,23.507a.317.317,0,0,1-.147.125l-6.823,2.8-.006,0Z" transform="translate(-715.262 -182.623)" fill="none" stroke="#4aa49d" stroke-miterlimit="10" stroke-width="2"/>
      </g>
      <g id="Group_5656" data-name="Group 5656" transform="translate(940.632 133.816)">
        <g id="Group_5655" data-name="Group 5655" transform="translate(0 0)">
          <path id="Path_7454" data-name="Path 7454" d="M2801.892,507.108V517.6l132.674-75.777V431.389Z" transform="translate(-2604.836 -139.92)" fill="url(#linear-gradient)"/>
          <line id="Line_79" data-name="Line 79" x2="0.01" y2="10.326" transform="translate(328.922 291.118)" fill="#fff" stroke="#4aa49d" stroke-miterlimit="10" stroke-width="2"/>
          <line id="Line_80" data-name="Line 80" x2="0.01" y2="10.326" transform="translate(197.583 367.187)" fill="#fff" stroke="#4aa49d" stroke-miterlimit="10" stroke-width="2"/>
          <g id="Group_5613" data-name="Group 5613" transform="translate(0 75.007)">
            <path id="Path_7450" data-name="Path 7450" d="M429.7,1669.688c-3.369-56.772,77.579-108.218,191.3-114.966" transform="translate(-400.223 -1554.722)" fill="none" stroke="#a2c9c3" stroke-linecap="round" stroke-miterlimit="10" stroke-width="2"/>
            <path id="Path_7451" data-name="Path 7451" d="M418.05,1592.71l29.382,27.034,30.372-20.293" transform="translate(-418.05 -1494.877)" fill="none" stroke="#a2c9c3" stroke-linecap="round" stroke-miterlimit="10" stroke-width="2"/>
          </g>
          <g id="Group_5614" data-name="Group 5614" transform="translate(358.517 202.925)">
            <path id="Path_7448" data-name="Path 7448" d="M577.226,1613.694l35.622-26.3,33.428,26.3" transform="translate(-318.57 -1587.389)" fill="none" stroke="#a2c9c3" stroke-linecap="round" stroke-miterlimit="10" stroke-width="2"/>
            <path id="Path_7449" data-name="Path 7449" d="M766.776,1589.836c3.275,55.191-83.69,105.253-194.245,111.813-36.08,2.141-70.213-.615-99.943-7.218" transform="translate(-472.589 -1583.787)" fill="none" stroke="#a2c9c3" stroke-linecap="round" stroke-miterlimit="10" stroke-width="2"/>
          </g>
          <path id="Path_7452" data-name="Path 7452" d="M318.9,1572.455l-190.643-109.2a2.126,2.126,0,0,1-1.07-1.846V1301.313a2.126,2.126,0,0,1,3.183-1.844l189.969,108.817a2.126,2.126,0,0,1,1.07,1.843V1571A1.677,1.677,0,0,1,318.9,1572.455Z" transform="translate(98.843 -1298.269)" fill="#fff" stroke="#4aa49d" stroke-miterlimit="10" stroke-width="2"/>
          <path id="Path_7425" data-name="Path 7425" d="M423.871,1500.852l-191.28-109.569a2.132,2.132,0,0,1-1.074-1.851V1228.8a2.134,2.134,0,0,1,3.194-1.852l190.605,109.182a2.133,2.133,0,0,1,1.073,1.852v161.407A1.682,1.682,0,0,1,423.871,1500.852Z" transform="translate(-5.551 -1226.667)" fill="none" stroke="#4aa49d" stroke-width="1"/>
          <path id="Path_7427" data-name="Path 7427" d="M405.877,1393.166l-163.315-93.549v-29.929l163.315,93.55Z" transform="translate(-0.817 -1208.226)" fill="#fff"/>
          <path id="Path_7428" data-name="Path 7428" d="M406.8,1394.766,242.062,1300.4v-31.576L406.8,1363.192Zm-163.314-95.194L405.376,1392.3v-28.283L243.491,1271.29Z" transform="translate(-1.031 -1208.595)" fill="#a2c9c3"/>
          <path id="Path_7429" data-name="Path 7429" d="M405.877,1431.994l-163.315-93.549v-29.929l163.315,93.55Z" transform="translate(-0.817 -1191.583)" fill="#fff"/>
          <path id="Path_7430" data-name="Path 7430" d="M406.8,1433.6l-164.743-94.369v-31.575L406.8,1402.021Zm-163.314-95.2,161.886,92.732V1402.85l-161.886-92.732Z" transform="translate(-1.031 -1191.953)" fill="#a2c9c3"/>
          <g id="Group_5591" data-name="Group 5591" transform="translate(243.611 22.558)">
            <path id="Path_7431" data-name="Path 7431" d="M243.887,1242.456a27.908,27.908,0,0,1,4.02,1.932,13.736,13.736,0,0,1,4.676,3.936,6.527,6.527,0,0,1,1.411,3.892c0,1.686-1.09,2.541-2.886,2.193v.052c1.617,1.337,3.513,3.793,3.51,6.384a2.58,2.58,0,0,1-1.444,2.677c-1.19.437-3.112-.14-5.893-1.726-1.516-.864-2.68-1.631-3.413-2.154Zm2.183,16.781a18.7,18.7,0,0,0,1.846,1.157c2.274,1.3,4.373,1.637,4.376-.9,0-2.384-1.992-4.507-4.395-5.877l-1.82-1.039Zm.009-8.372,2,1.14c2.326,1.324,3.692.859,3.693-.824,0-2.048-1.513-3.716-3.737-4.986a12.527,12.527,0,0,0-1.947-.954Z" transform="translate(-243.868 -1242.456)" fill="#a2c9c3"/>
            <path id="Path_7432" data-name="Path 7432" d="M267.416,1268.292c0,1.294.024,2.45.1,3.479l-1.973-1.124-.124-2.12-.05-.029c-.583.679-1.871,1.266-4.046.026a8.617,8.617,0,0,1-4.217-7.9l.007-7.336,2.226,1.27-.007,6.945c0,2.385.7,4.4,2.726,5.55,1.491.85,2.529.38,2.934-.4a2.537,2.537,0,0,0,.2-1.053l.007-7.7,2.224,1.267Z" transform="translate(-238.195 -1237.814)" fill="#a2c9c3"/>
            <path id="Path_7433" data-name="Path 7433" d="M273.224,1260.262c.024.793-.533,1.1-1.417.593a2.719,2.719,0,0,1-1.339-2.164c0-.8.583-1.093,1.393-.632A2.693,2.693,0,0,1,273.224,1260.262Zm-2.494,14.657.013-12.545,2.224,1.267-.013,12.547Z" transform="translate(-232.466 -1235.862)" fill="#a2c9c3"/>
            <path id="Path_7434" data-name="Path 7434" d="M278.561,1261.413l2.224,1.269-.02,18.4-2.223-1.271Z" transform="translate(-229.006 -1234.33)" fill="#a2c9c3"/>
            <path id="Path_7435" data-name="Path 7435" d="M297.315,1270.53l-.016,15.163c0,1.114.023,2.4.1,3.3l-2-1.139-.1-2.235-.051-.029c-.684,1.01-2.177,1.224-4.173.085a11.247,11.247,0,0,1-5.226-9.36c-.021-4.186,2.509-5.312,5.492-3.61a8.8,8.8,0,0,1,3.69,4.021l.049.029.009-7.489Zm-2.236,9.7a4.878,4.878,0,0,0-.1-1.016,7.056,7.056,0,0,0-3.207-4.476c-2.3-1.311-3.669-.017-3.672,2.756a7.729,7.729,0,0,0,3.612,6.7c1.491.851,2.857.618,3.263-.862a3.393,3.393,0,0,0,.1-.927Z" transform="translate(-225.872 -1230.966)" fill="#a2c9c3"/>
            <path id="Path_7436" data-name="Path 7436" d="M301.7,1284.767a7.966,7.966,0,0,0,4.192,6.747,8.9,8.9,0,0,0,3.39,1.284l.377,1.849a10.931,10.931,0,0,1-4.072-1.543,11.508,11.508,0,0,1-6.01-9.755c0-3.784,2.181-5.526,5.746-3.493a10.322,10.322,0,0,1,5.05,8.793,8.08,8.08,0,0,1-.077,1.019Zm6.525,2.087a6.242,6.242,0,0,0-3.08-5.465c-2.252-1.284-3.239.278-3.417,1.759Z" transform="translate(-219.988 -1226.793)" fill="#a2c9c3"/>
            <path id="Path_7437" data-name="Path 7437" d="M312.842,1288.985c0-1.479-.023-2.763-.1-3.971l1.946,1.108.073,2.506.1.057c.559-1.367,1.9-1.666,3.392-.814a4.048,4.048,0,0,1,.631.437l0,2.152a5.444,5.444,0,0,0-.759-.51c-1.566-.894-2.68-.31-2.986,1.227a5.612,5.612,0,0,0-.1,1l-.007,6.688-2.2-1.253Z" transform="translate(-214.345 -1224.214)" fill="#a2c9c3"/>
          </g>
          <g id="Group_5592" data-name="Group 5592" transform="translate(261.358 82.741)">
            <path id="Path_7438" data-name="Path 7438" d="M267.216,1304.879l-10.926-6.486.321-13.81Z" transform="translate(-256.291 -1284.583)" fill="#a2c9c3"/>
          </g>
          <g id="Group_5593" data-name="Group 5593" transform="translate(346.727 133.416)">
            <path id="Path_7439" data-name="Path 7439" d="M327.293,1326.539l-10.926-6.485-.321,13.81Z" transform="translate(-316.046 -1320.053)" fill="#4aa49d"/>
          </g>
          <g id="Group_5594" data-name="Group 5594" transform="translate(276.521 93.91)">
            <ellipse id="Ellipse_377" data-name="Ellipse 377" cx="5.016" cy="8.639" rx="5.016" ry="8.639" transform="translate(0 4.204) rotate(-24.771)" fill="#3a6673"/>
          </g>
          <g id="Group_5595" data-name="Group 5595" transform="translate(300.532 107.837)">
            <path id="Path_7440" data-name="Path 7440" d="M295.221,1321.449l-7.077-2.612-4.433-9.651,2.644-7.038,7.077,2.612,4.433,9.65Z" transform="translate(-283.711 -1302.149)" fill="#dac265"/>
          </g>
          <g id="Group_5596" data-name="Group 5596" transform="translate(325.151 120.608)">
            <path id="Path_7441" data-name="Path 7441" d="M311.869,1331.384l-10.926-6.485.321-13.811,10.926,6.486Z" transform="translate(-300.943 -1311.088)" fill="#a2c9c3"/>
          </g>
          <path id="Path_7455" data-name="Path 7455" d="M2616.538,403.944l183.077,103.033v10.07L2616.538,413.91Z" transform="translate(-2602.206 -139.531)" stroke="#707070" stroke-width="1" fill="url(#linear-gradient-2)"/>
          <g id="Group_5598" data-name="Group 5598" transform="translate(367.305 140.53)">
            <path id="Path_7442" data-name="Path 7442" d="M341.376,1345.328l-10.926-6.486.321-13.81Z" transform="translate(-330.45 -1325.033)"/>
          </g>
          <g id="Group_5601" data-name="Group 5601" transform="translate(259.225 136.08)">
            <path id="Path_7443" data-name="Path 7443" d="M265.723,1342.214l-10.926-6.486.321-13.81Z" transform="translate(-254.797 -1321.918)"/>
          </g>
          <g id="Group_5602" data-name="Group 5602" transform="translate(344.594 186.754)">
            <path id="Path_7444" data-name="Path 7444" d="M325.8,1363.874l-10.926-6.486-.321,13.81Z" transform="translate(-314.553 -1357.388)" fill="#3a6673"/>
          </g>
          <g id="Group_5603" data-name="Group 5603" transform="translate(274.388 147.248)">
            <ellipse id="Ellipse_379" data-name="Ellipse 379" cx="5.016" cy="8.639" rx="5.016" ry="8.639" transform="translate(0 4.204) rotate(-24.771)"/>
          </g>
          <g id="Group_5604" data-name="Group 5604" transform="translate(298.398 161.175)">
            <path id="Path_7445" data-name="Path 7445" d="M293.728,1358.784l-7.077-2.612-4.433-9.65,2.644-7.038,7.077,2.612,4.433,9.65Z" transform="translate(-282.218 -1339.484)" fill="#a2c9c3"/>
          </g>
          <g id="Group_5605" data-name="Group 5605" transform="translate(323.017 173.947)">
            <path id="Path_7446" data-name="Path 7446" d="M310.376,1368.719l-10.926-6.486.321-13.81,10.926,6.486Z" transform="translate(-299.45 -1348.424)" fill="#c65f57"/>
          </g>
          <g id="Group_5607" data-name="Group 5607" transform="translate(365.171 193.868)">
            <path id="Path_7447" data-name="Path 7447" d="M339.883,1382.664l-10.926-6.486.321-13.81Z" transform="translate(-328.957 -1362.368)" fill="#dac265"/>
          </g>
          <path id="Path_7404" data-name="Path 7404" d="M376.733,1444.179c0,4.513.593,5.184-1.028,6.007l-129.521,74.385a2.029,2.029,0,0,1-2.016.008L63.2,1422.176c-1.374-.776-1.02-1.167-1.04-4.254" transform="translate(-47.8 -1147.598)" fill="none" stroke="#4aa49d" stroke-miterlimit="10" stroke-width="2"/>
          <path id="Path_7405" data-name="Path 7405" d="M308.546,1557.7,128.2,1454.392a2.011,2.011,0,0,1-1.012-1.746V1301.2a2.011,2.011,0,0,1,3.011-1.744l179.71,102.94a2.01,2.01,0,0,1,1.012,1.744v152.183A1.586,1.586,0,0,1,308.546,1557.7Z" transform="translate(18.007 -1267.708)" fill="#fff" stroke="#4aa49d" stroke-miterlimit="10" stroke-width="2"/>
          <path id="Path_7409" data-name="Path 7409" d="M194.709,1376.429l180.967,102.4a2.036,2.036,0,0,1,.012,3.538l-129.521,74.386a2.029,2.029,0,0,1-2.016.008l-180.969-102.4a2.035,2.035,0,0,1-.012-3.536l129.521-74.388A2.039,2.039,0,0,1,194.709,1376.429Z" transform="translate(-47.784 -1189.838)" fill="#fff" stroke="#4aa49d" stroke-miterlimit="10" stroke-width="2"/>
          <path id="Path_7410" data-name="Path 7410" d="M153.164,1388.542l133.674,75.64-43.879,24.36L109.285,1412.9Z" transform="translate(-0.102 -1177.318)" fill="#a2c9c3" stroke="#a2c9c3" stroke-miterlimit="10" stroke-width="2"/>
          <path id="Path_7411" data-name="Path 7411" d="M122.29,1415.81l67.7,38.308-22.223,12.337-67.7-38.308Z" transform="translate(-9.427 -1149.735)" fill="#a2c9c3" stroke="#a2c9c3" stroke-miterlimit="10" stroke-width="2"/>
          <line id="Line_78" data-name="Line 78" x2="0.01" y2="10.326" transform="translate(14.361 263.078)" fill="#fff" stroke="#4aa49d" stroke-miterlimit="10" stroke-width="2"/>
          <g id="Group_5615" data-name="Group 5615" transform="translate(198.448 113.91)">
            <line id="Line_81" data-name="Line 81" y2="31.663" transform="translate(38.352 4.014)" fill="#fff" stroke="#a2c9c3" stroke-miterlimit="10" stroke-width="2"/>
            <line id="Line_82" data-name="Line 82" y2="31.663" transform="translate(38.352 56.314)" fill="#fff" stroke="#a2c9c3" stroke-miterlimit="10" stroke-width="2"/>
            <line id="Line_83" data-name="Line 83" x1="22.298" y2="12.041" transform="translate(43.703 30.771)" fill="#fff" stroke="#a2c9c3" stroke-miterlimit="10" stroke-width="2"/>
            <line id="Line_84" data-name="Line 84" x1="22.298" y2="12.041" transform="translate(11.518 48.875)" fill="#fff" stroke="#a2c9c3" stroke-miterlimit="10" stroke-width="2"/>
            <line id="Line_85" data-name="Line 85" x2="20.144" y2="35.676" transform="translate(11.518)" fill="#fff" stroke="#a2c9c3" stroke-miterlimit="10" stroke-width="2"/>
            <line id="Line_86" data-name="Line 86" x2="20.144" y2="35.676" transform="translate(45.561 58.182)" fill="#fff" stroke="#a2c9c3" stroke-miterlimit="10" stroke-width="2"/>
            <line id="Line_87" data-name="Line 87" x2="31.663" y2="17.392" transform="translate(0 25.419)" fill="#fff" stroke="#a2c9c3" stroke-miterlimit="10" stroke-width="2"/>
            <line id="Line_88" data-name="Line 88" x2="31.663" y2="17.392" transform="translate(45.561 50.208)" fill="#fff" stroke="#a2c9c3" stroke-miterlimit="10" stroke-width="2"/>
          </g>
        </g>
        <g id="Group_5599" data-name="Group 5599" transform="translate(380.985 151.698)">
          <ellipse id="Ellipse_378" data-name="Ellipse 378" cx="5.016" cy="8.639" rx="5.016" ry="8.639" transform="translate(0 4.204) rotate(-24.771)" fill="#c65f57"/>
        </g>
        <g id="Group_5608" data-name="Group 5608" transform="translate(378.851 205.037)">
          <ellipse id="Ellipse_380" data-name="Ellipse 380" cx="5.016" cy="8.639" rx="5.016" ry="8.639" transform="translate(0 4.204) rotate(-24.771)" fill="#a2c9c3"/>
        </g>
      </g>
    </g>
  </g>
</svg>
